<?xml version="1.0" encoding="utf-8"?>
<!-- Generator: Adobe Illustrator 25.2.3, SVG Export Plug-In . SVG Version: 6.00 Build 0)  -->
<svg version="1.1" id="Layer_1" focusable="false" xmlns="http://www.w3.org/2000/svg" xmlns:xlink="http://www.w3.org/1999/xlink"
	 x="0px" y="0px" viewBox="0 0 16 16" style="enable-background:new 0 0 16 16;" xml:space="preserve">
<style type="text/css">
	.st0{fill:#333333;}
</style>
<path class="st0" d="M7.9,0.2C3.4,0.2,0,3.6,0,8.1c0,3.6,2.3,6.6,5.5,7.7C5.9,15.9,6,15.6,6,15.4c0-0.2,0-1.3,0-2c0,0-2.3,0.5-2.7-1
	c0,0-0.4-0.9-0.9-1.2c0,0-0.7-0.5,0.1-0.5c0,0,0.8,0.1,1.2,0.8c0.7,1.2,1.9,0.9,2.4,0.7c0.1-0.5,0.3-0.9,0.5-1.1
	C4.7,11,2.9,10.7,2.9,7.6c0-0.9,0.2-1.3,0.8-1.9c-0.1-0.2-0.4-1,0.1-2.2C4.4,3.3,6,4.4,6,4.4c0.6-0.2,1.3-0.3,2-0.3s1.4,0.1,2,0.3
	c0,0,1.6-1.1,2.2-0.9c0.4,1.1,0.2,2,0.1,2.2c0.5,0.6,0.8,1,0.8,1.9c0,3.1-1.9,3.4-3.7,3.6c0.3,0.3,0.5,0.7,0.5,1.5
	c0,1.1,0,2.4,0,2.7c0,0.2,0.1,0.5,0.6,0.4c3.2-1.1,5.4-4.1,5.4-7.7C16,3.6,12.4,0.2,7.9,0.2z"/>
</svg>
