<svg xmlns="http://www.w3.org/2000/svg" width="500" height="200" viewBox="0 0 500 200">
  <defs>
    <style>
      .a, .b, .c {
        fill: none;
        stroke-miterlimit: 10;
      }

      .a {
        stroke: #f8f8f8;
      }

      .b {
        stroke: #f1f0f0;
      }

      .c {
        stroke: #d8d8d8;
      }

      .d {
        fill: #414141;
      }
    </style>
  </defs>
  <g>
    <g>
      <line class="a" x1="10" x2="10" y2="200"/>
      <line class="a" x1="20" x2="20" y2="200"/>
      <line class="a" x1="30" x2="30" y2="200"/>
      <line class="a" x1="40" x2="40" y2="200"/>
      <line class="a" x1="60" x2="60" y2="200"/>
      <line class="a" x1="70" x2="70" y2="200"/>
      <line class="a" x1="80" x2="80" y2="200"/>
      <line class="a" x1="90" x2="90" y2="200"/>
      <line class="a" x1="110" x2="110" y2="200"/>
      <line class="a" x1="120" x2="120" y2="200"/>
      <line class="a" x1="130" x2="130" y2="200"/>
      <line class="a" x1="140" x2="140" y2="200"/>
      <line class="a" x1="160" x2="160" y2="200"/>
      <line class="a" x1="170" x2="170" y2="200"/>
      <line class="a" x1="180" x2="180" y2="200"/>
      <line class="a" x1="190" x2="190" y2="200"/>
      <line class="a" x1="210" x2="210" y2="200"/>
      <line class="a" x1="220" x2="220" y2="200"/>
      <line class="a" x1="230" x2="230" y2="200"/>
      <line class="a" x1="240" x2="240" y2="200"/>
      <line class="a" x1="260" x2="260" y2="200"/>
      <line class="a" x1="270" x2="270" y2="200"/>
      <line class="a" x1="280" x2="280" y2="200"/>
      <line class="a" x1="290" x2="290" y2="200"/>
      <line class="a" x1="310" x2="310" y2="200"/>
      <line class="a" x1="320" x2="320" y2="200"/>
      <line class="a" x1="330" x2="330" y2="200"/>
      <line class="a" x1="340" x2="340" y2="200"/>
      <line class="a" x1="360" x2="360" y2="200"/>
      <line class="a" x1="370" x2="370" y2="200"/>
      <line class="a" x1="380" x2="380" y2="200"/>
      <line class="a" x1="390" x2="390" y2="200"/>
      <line class="a" x1="410" x2="410" y2="200"/>
      <line class="a" x1="420" x2="420" y2="200"/>
      <line class="a" x1="430" x2="430" y2="200"/>
      <line class="a" x1="440" x2="440" y2="200"/>
      <line class="a" x1="460" x2="460" y2="200"/>
      <line class="a" x1="470" x2="470" y2="200"/>
      <line class="a" x1="480" x2="480" y2="200"/>
      <line class="a" x1="490" x2="490" y2="200"/>
      <line class="a" y1="10" x2="500" y2="10"/>
      <line class="a" y1="20" x2="500" y2="20"/>
      <line class="a" y1="30" x2="500" y2="30"/>
      <line class="a" y1="40" x2="500" y2="40"/>
      <line class="a" y1="60" x2="500" y2="60"/>
      <line class="a" y1="70" x2="500" y2="70"/>
      <line class="a" y1="80" x2="500" y2="80"/>
      <line class="a" y1="90" x2="500" y2="90"/>
      <line class="a" y1="110" x2="500" y2="110"/>
      <line class="a" y1="120" x2="500" y2="120"/>
      <line class="a" y1="130" x2="500" y2="130"/>
      <line class="a" y1="140" x2="500" y2="140"/>
      <line class="a" y1="160" x2="500" y2="160"/>
      <line class="a" y1="170" x2="500" y2="170"/>
      <line class="a" y1="180" x2="500" y2="180"/>
      <line class="a" y1="190" x2="500" y2="190"/>
    </g>
    <g>
      <line class="b" x1="50" x2="50" y2="200"/>
      <line class="b" x1="150" x2="150" y2="200"/>
      <line class="b" x1="250" x2="250" y2="200"/>
      <line class="b" x1="350" x2="350" y2="200"/>
      <line class="b" x1="450" x2="450" y2="200"/>
      <line class="b" y1="50" x2="500" y2="50"/>
      <line class="b" y1="150" x2="500" y2="150"/>
    </g>
    <g>
      <line class="c" y2="200"/>
      <line class="c" x1="100" x2="100" y2="200"/>
      <line class="c" x1="200" x2="200" y2="200"/>
      <line class="c" x1="300" x2="300" y2="200"/>
      <line class="c" x1="400" x2="400" y2="200"/>
      <line class="c" x1="500" x2="500" y2="200"/>
      <line class="c" x2="500"/>
      <line class="c" y1="100" x2="500" y2="100"/>
      <line class="c" y1="200" x2="500" y2="200"/>
    </g>
  </g>
  <path class="d" d="M499,1V199H1V1H499m1-1H0V200H500V0Z"/>
</svg>
