<svg xmlns="http://www.w3.org/2000/svg" width="600" height="300" viewBox="0 0 600 300">
  <defs>
    <style>
      .a, .g {
        isolation: isolate;
      }

      .b {
        fill: #ddd;
      }

      .c {
        fill: #404040;
      }

      .d {
        fill: #4bb77e;
      }

      .e {
        fill: #485bfc;
      }

      .f, .h, .i, .j {
        fill: none;
        stroke-miterlimit: 10;
      }

      .f, .j {
        stroke: #404040;
      }

      .f {
        opacity: 0.5;
      }

      .g {
        opacity: 0.3333;
      }

      .h {
        stroke: #485bfc;
      }

      .h, .i {
        opacity: 0.8;
      }

      .i {
        stroke: #4bb77e;
      }
    </style>
  </defs>
  <g>
    <g class="a">
      <path class="b" d="M211.5112,163.3364V131.769h-11.792v-4.2236h28.3692v4.2236H216.2475v31.5674Z"/>
      <path class="b" d="M229.4311,173.3217l-.4882-4.1259a9.8205,9.8205,0,0,0,2.5146.3906,4.8292,4.8292,0,0,0,2.3438-.4883,3.9988,3.9988,0,0,0,1.44-1.3672,21.6209,21.6209,0,0,0,1.3428-3.2715q.1215-.3661.3906-1.0742l-9.8389-25.9765h4.7363l5.3956,15.0146q1.05,2.8564,1.88,6.0059a59.0767,59.0767,0,0,1,1.8067-5.9082l5.542-15.1123h4.3945l-9.8633,26.3671a51.842,51.842,0,0,1-2.4658,5.8838,8.6905,8.6905,0,0,1-2.6855,3.1866,6.3494,6.3494,0,0,1-3.6133,1.0127A8.8148,8.8148,0,0,1,229.4311,173.3217Z"/>
      <path class="b" d="M254.6265,173.2729V137.4087H258.63v3.3691a9.8762,9.8762,0,0,1,3.1982-2.9668,8.7976,8.7976,0,0,1,4.3213-.9883,10.2508,10.2508,0,0,1,5.8594,1.709,10.49,10.49,0,0,1,3.833,4.8223,17.6062,17.6062,0,0,1,1.2939,6.8232,17.3266,17.3266,0,0,1-1.4282,7.1651,10.7617,10.7617,0,0,1-4.15,4.8828,10.6519,10.6519,0,0,1-5.7251,1.6972,8.2731,8.2731,0,0,1-3.9429-.9277,8.9651,8.9651,0,0,1-2.8686-2.3438v12.6221Zm3.9794-22.7539q0,5.0053,2.0264,7.3975a6.2112,6.2112,0,0,0,4.9072,2.3926,6.3522,6.3522,0,0,0,5.0171-2.4786q2.0874-2.4769,2.0874-7.6777,0-4.9556-2.0385-7.4219a6.14,6.14,0,0,0-4.8707-2.4658,6.3291,6.3291,0,0,0-4.9682,2.624Q258.606,145.5141,258.6059,150.519Z"/>
      <path class="b" d="M300.1831,154.9868l4.541.5615a11.0812,11.0812,0,0,1-3.98,6.1768,13.481,13.481,0,0,1-16.4429-1.3067q-3.3324-3.5024-3.3325-9.8261,0-6.5421,3.3692-10.1563a11.4061,11.4061,0,0,1,8.74-3.6133,11.0869,11.0869,0,0,1,8.4961,3.54q3.2959,3.54,3.2959,9.9609,0,.391-.0244,1.1719H285.51a9.961,9.961,0,0,0,2.417,6.5429,7.1929,7.1929,0,0,0,5.42,2.2706,6.7226,6.7226,0,0,0,4.1259-1.27A8.4259,8.4259,0,0,0,300.1831,154.9868Zm-14.4287-7.1045h14.4775a8.7877,8.7877,0,0,0-1.66-4.9072,6.7368,6.7368,0,0,0-5.4444-2.5391,6.9814,6.9814,0,0,0-5.09,2.0264A8.0218,8.0218,0,0,0,285.7544,147.8823Z"/>
      <path class="b" d="M311.2915,163.3364v-22.51H307.41v-3.4179h3.8818V134.65a12.0726,12.0726,0,0,1,.4639-3.8819,5.6231,5.6231,0,0,1,2.2338-2.7714,8.0576,8.0576,0,0,1,4.48-1.0616,21.5119,21.5119,0,0,1,4.1016.4395l-.6592,3.833a14.8143,14.8143,0,0,0-2.5879-.2442,3.8518,3.8518,0,0,0-2.832.8545,4.6316,4.6316,0,0,0-.83,3.1983v2.3926h5.0537v3.4179h-5.0537v22.51Z"/>
      <path class="b" d="M341.0522,160.1382a16.3558,16.3558,0,0,1-4.7,2.93,13.5876,13.5876,0,0,1-4.8462.8545q-4.2729,0-6.5673-2.0879a6.8856,6.8856,0,0,1-2.295-5.3339,7.0872,7.0872,0,0,1,.8667-3.4786,7.1667,7.1667,0,0,1,2.2705-2.5273,10.6871,10.6871,0,0,1,3.1617-1.44,31.4925,31.4925,0,0,1,3.9062-.6592,40.1492,40.1492,0,0,0,7.8369-1.5137q.0242-.9023.0244-1.1474,0-2.6851-1.2451-3.7842A7.3581,7.3581,0,0,0,334.46,140.46a7.757,7.757,0,0,0-4.5776,1.0869,6.6334,6.6334,0,0,0-2.1851,3.8448l-4.2968-.586a10.65,10.65,0,0,1,1.9287-4.456,8.4455,8.4455,0,0,1,3.8818-2.6114,17.2887,17.2887,0,0,1,5.8838-.916,15.5828,15.5828,0,0,1,5.3955.7813,7.1218,7.1218,0,0,1,3.0518,1.9648A6.9269,6.9269,0,0,1,344.91,142.56a24.7578,24.7578,0,0,1,.22,4.0528v5.8593a62.107,62.107,0,0,0,.2807,7.751,9.7619,9.7619,0,0,0,1.1109,3.1133h-4.59A9.3022,9.3022,0,0,1,341.0522,160.1382Zm-.3662-9.8145a32.19,32.19,0,0,1-7.1777,1.66,16.6312,16.6312,0,0,0-3.833.8789,3.8207,3.8207,0,0,0-1.7334,1.4287,3.8836,3.8836,0,0,0,.72,5.0166,5.7245,5.7245,0,0,0,3.894,1.1719,9.0669,9.0669,0,0,0,4.5166-1.11,6.8435,6.8435,0,0,0,2.9053-3.04,10.6171,10.6171,0,0,0,.708-4.3946Z"/>
      <path class="b" d="M368.86,153.8393l4.3213.5615a11.2048,11.2048,0,0,1-3.6254,6.9942,10.5584,10.5584,0,0,1-7.1656,2.5273,11.1343,11.1343,0,0,1-8.5571-3.4785q-3.2351-3.48-3.2349-9.9736a18.05,18.05,0,0,1,1.3916-7.3486,9.7066,9.7066,0,0,1,4.2359-4.7247,12.5772,12.5772,0,0,1,6.1889-1.5742,10.756,10.756,0,0,1,6.9092,2.1367,9.7974,9.7974,0,0,1,3.4424,6.0664l-4.2725.6592a7.0993,7.0993,0,0,0-2.1606-3.9306,5.5913,5.5913,0,0,0-3.7476-1.3184,6.8178,6.8178,0,0,0-5.3955,2.3809q-2.0757,2.3789-2.0752,7.5312,0,5.2251,2.002,7.5928a6.5138,6.5138,0,0,0,5.2246,2.3682,6.1553,6.1553,0,0,0,4.3213-1.587A7.8772,7.8772,0,0,0,368.86,153.8393Z"/>
      <path class="b" d="M394.69,154.9868l4.541.5615a11.0811,11.0811,0,0,1-3.9794,6.1768,13.481,13.481,0,0,1-16.4429-1.3067q-3.3326-3.5024-3.3325-9.8261,0-6.5421,3.3691-10.1563a11.4062,11.4062,0,0,1,8.74-3.6133,11.0867,11.0867,0,0,1,8.4961,3.54q3.2959,3.54,3.2959,9.9609,0,.391-.0244,1.1719H380.0171a9.96,9.96,0,0,0,2.417,6.5429,7.1927,7.1927,0,0,0,5.42,2.2706,6.7231,6.7231,0,0,0,4.126-1.27A8.4265,8.4265,0,0,0,394.69,154.9868Zm-14.4287-7.1045h14.4776a8.7885,8.7885,0,0,0-1.66-4.9072,6.7366,6.7366,0,0,0-5.4443-2.5391,6.9814,6.9814,0,0,0-5.09,2.0264A8.0218,8.0218,0,0,0,380.2612,147.8823Z"/>
    </g>
    <g>
      <path class="c" d="M186.185,250.312a1.4851,1.4851,0,0,0,.3062.8437,2.0756,2.0756,0,0,0,1.5386.4453,2.3583,2.3583,0,0,0,1.0478-.1953.6249.6249,0,0,0,.3887-.5859.6315.6315,0,0,0-.313-.57,12.77,12.77,0,0,0-2.33-.6719,4.8353,4.8353,0,0,1-2.0449-.8984,1.9474,1.9474,0,0,1-.5938-1.5313,2.6537,2.6537,0,0,1,.9278-2.0273,3.73,3.73,0,0,1,2.6113-.8477,4.7959,4.7959,0,0,1,2.603.6367,2.7266,2.7266,0,0,1,1.1548,2.1993h-2.2265a1.3181,1.3181,0,0,0-.2427-.68,1.5317,1.5317,0,0,0-1.2534-.4532,1.8014,1.8014,0,0,0-1.0381.2266.6516.6516,0,0,0-.31.5313.5806.5806,0,0,0,.3291.5546,14.2457,14.2457,0,0,0,2.3247.6172,4.261,4.261,0,0,1,1.9946.9453,2.1459,2.1459,0,0,1,.6563,1.6016,2.586,2.586,0,0,1-.9434,2.0664,5.6686,5.6686,0,0,1-5.8867-.0469,2.7547,2.7547,0,0,1-.959-2.16Z"/>
      <path class="c" d="M192.4819,246.1792v-1.586h1.1875v-2.375h2.2031v2.375h1.3829v1.586h-1.3829v4.5a1.0115,1.0115,0,0,0,.1329.6523,1.4611,1.4611,0,0,0,.8125.1289c.0673,0,.1391-.001.2148-.0039s.1494-.0068.2227-.0117v1.6641l-1.0547.039a2.83,2.83,0,0,1-2.1563-.5469,1.6274,1.6274,0,0,1-.375-1.18v-5.2422Z"/>
      <path class="c" d="M202.0581,247.851a3.51,3.51,0,0,0,.8892-.1953.6706.6706,0,0,0,.48-.6328.749.749,0,0,0-.3681-.7226,2.3285,2.3285,0,0,0-1.0811-.1993,1.4176,1.4176,0,0,0-1.1323.3907,1.6064,1.6064,0,0,0-.3169.7812H198.38a3.255,3.255,0,0,1,.6279-1.8359,3.6584,3.6584,0,0,1,3.0439-1.125,5.4231,5.4231,0,0,1,2.4951.5547,2.1267,2.1267,0,0,1,1.0909,2.0937v3.9063q0,.4057.0156.9843a1.2343,1.2343,0,0,0,.1328.5938.7911.7911,0,0,0,.3281.2578v.3281h-2.4218a2.4506,2.4506,0,0,1-.1407-.4843c-.0263-.1514-.0468-.3233-.0625-.5157a4.6067,4.6067,0,0,1-1.0688.8516,3.2256,3.2256,0,0,1-1.6343.4141,2.8188,2.8188,0,0,1-1.9214-.66,2.3482,2.3482,0,0,1-.7583-1.8711,2.4249,2.4249,0,0,1,1.22-2.2734,5.457,5.457,0,0,1,1.9678-.5469Zm1.3613,1.0391a2.45,2.45,0,0,1-.4316.2149,3.6723,3.6723,0,0,1-.5982.1523l-.5068.0937a3.32,3.32,0,0,0-1.0234.3047,1.0174,1.0174,0,0,0-.5259.9453.9874.9874,0,0,0,.3213.8243,1.2223,1.2223,0,0,0,.7812.2539,2.3276,2.3276,0,0,0,1.3447-.4219,1.7864,1.7864,0,0,0,.6387-1.5391Z"/>
      <path class="c" d="M212.314,244.3159q.0425.0044.1914.0117v2.2813c-.1407-.0157-.2657-.0264-.375-.0313s-.1983-.0078-.2657-.0078a1.847,1.847,0,0,0-1.8047.875,3.4039,3.4039,0,0,0-.2578,1.5156v4.07H207.56v-8.5156h2.125V246a4.7039,4.7039,0,0,1,.8985-1.1641,2.4468,2.4468,0,0,1,1.625-.5234C212.25,244.312,212.2851,244.313,212.314,244.3159Z"/>
      <path class="c" d="M212.935,246.1792v-1.586h1.1875v-2.375h2.2032v2.375h1.3828v1.586h-1.3828v4.5a1.0117,1.0117,0,0,0,.1328.6523,1.4615,1.4615,0,0,0,.8125.1289c.0674,0,.1391-.001.2148-.0039s.1494-.0068.2227-.0117v1.6641l-1.0547.039a2.83,2.83,0,0,1-2.1563-.5469,1.6274,1.6274,0,0,1-.375-1.18v-5.2422Z"/>
    </g>
    <g>
      <path class="c" d="M501.9487,181.9936a3.5083,3.5083,0,0,0,.8887-.1953.6706.6706,0,0,0,.4805-.6328.7493.7493,0,0,0-.3682-.7227,2.3315,2.3315,0,0,0-1.0811-.1992,1.4191,1.4191,0,0,0-1.1328.3906,1.6124,1.6124,0,0,0-.3164.7813H498.271a3.252,3.252,0,0,1,.6279-1.8359,3.6585,3.6585,0,0,1,3.044-1.125,5.4251,5.4251,0,0,1,2.4951.5546,2.127,2.127,0,0,1,1.0908,2.0938v3.9062q0,.4059.0156.9844a1.2343,1.2343,0,0,0,.1328.5938.7851.7851,0,0,0,.3282.2578v.3281h-2.4219a2.3784,2.3784,0,0,1-.1406-.4844c-.0264-.1513-.0469-.3232-.0625-.5156a4.6226,4.6226,0,0,1-1.0694.8516,3.2231,3.2231,0,0,1-1.6338.414,2.8205,2.8205,0,0,1-1.9218-.66,2.35,2.35,0,0,1-.7579-1.8711,2.4241,2.4241,0,0,1,1.22-2.2735,5.4535,5.4535,0,0,1,1.9677-.5468Zm1.3613,1.0391a2.4636,2.4636,0,0,1-.4316.2148,3.6561,3.6561,0,0,1-.5986.1524l-.5069.0937a3.326,3.326,0,0,0-1.0234.3047,1.0169,1.0169,0,0,0-.5254.9453.9858.9858,0,0,0,.3213.8242,1.2219,1.2219,0,0,0,.7812.2539,2.329,2.329,0,0,0,1.3448-.4218,1.788,1.788,0,0,0,.6386-1.5391Z"/>
      <path class="c" d="M509.6929,178.6577v5.1328a2.6948,2.6948,0,0,0,.1709,1.0937,1.1821,1.1821,0,0,0,1.1894.6485,1.5545,1.5545,0,0,0,1.5547-.9219,3.3616,3.3616,0,0,0,.2178-1.32v-4.6328h2.2578v8.5156h-2.1641V185.97c-.02.0264-.0732.1045-.1562.2344a1.5664,1.5664,0,0,1-.2959.3437,3.0851,3.0851,0,0,1-1.0088.6406,3.4358,3.4358,0,0,1-1.1416.1719,2.5412,2.5412,0,0,1-2.5391-1.3594,5.2154,5.2154,0,0,1-.3662-2.2109v-5.1328Z"/>
      <path class="c" d="M516.3725,180.3217v-1.5859H517.56v-2.375h2.2032v2.375h1.3828v1.5859h-1.3828v4.5a1.0118,1.0118,0,0,0,.1328.6524,1.4613,1.4613,0,0,0,.8125.1289c.0674,0,.1387-.001.2148-.0039s.1494-.0068.2227-.0117v1.664l-1.0547.0391a2.8288,2.8288,0,0,1-2.1563-.5469,1.6277,1.6277,0,0,1-.375-1.18v-5.2422Z"/>
      <path class="c" d="M529.6772,186.1313a4.69,4.69,0,0,1-6.5468,0,5.2826,5.2826,0,0,1,0-6.3965,4.6421,4.6421,0,0,1,6.5468,0,5.2826,5.2826,0,0,1,0,6.3965Zm-1.7812-1.2305a3.9753,3.9753,0,0,0,0-3.9433,1.9789,1.9789,0,0,0-3.0039,0,3.9491,3.9491,0,0,0,0,3.9433,1.9715,1.9715,0,0,0,3.0039,0Z"/>
    </g>
    <g>
      <path class="c" d="M498.5679,144.6543h1.3906v1.1875a4.6543,4.6543,0,0,1,.9062-.8985,2.7257,2.7257,0,0,1,1.5782-.4765,2.4842,2.4842,0,0,1,1.6093.4922,2.5851,2.5851,0,0,1,.625.8281,3.0329,3.0329,0,0,1,1.1016-.9961,3.0761,3.0761,0,0,1,1.4219-.3242,2.325,2.325,0,0,1,2.2968,1.2187,3.984,3.984,0,0,1,.3282,1.7656v5.57h-1.461V147.209a1.354,1.354,0,0,0-.4179-1.1485,1.6592,1.6592,0,0,0-1.02-.3125,2.0212,2.0212,0,0,0-1.4257.5547,2.4366,2.4366,0,0,0-.5977,1.8516v4.8672h-1.43v-5.461a2.85,2.85,0,0,0-.2031-1.2422,1.2394,1.2394,0,0,0-1.1953-.5859,2.0628,2.0628,0,0,0-1.4492.6172,3.0211,3.0211,0,0,0-.6524,2.2344v4.4375h-1.4062Z"/>
      <path class="c" d="M511.896,141.5449h1.43v1.5937h-1.43Zm0,3.1484h1.43v8.3282h-1.43Z"/>
      <path class="c" d="M520.0473,144.9121a3.7686,3.7686,0,0,1,.8487.82v-4.2266h1.3515v11.5157h-1.2656v-1.1641a3.0406,3.0406,0,0,1-1.16,1.1172,3.3044,3.3044,0,0,1-1.5332.3437,3.098,3.098,0,0,1-2.4121-1.1758,4.6091,4.6091,0,0,1-1.02-3.1289,5.4157,5.4157,0,0,1,.93-3.1679,3.0407,3.0407,0,0,1,2.6582-1.34A2.958,2.958,0,0,1,520.0473,144.9121Zm-3.1386,6.2734a1.9836,1.9836,0,0,0,1.8183.9063,1.9131,1.9131,0,0,0,1.5977-.84,3.9815,3.9815,0,0,0,.626-2.41,3.5734,3.5734,0,0,0-.6455-2.3477,2.0078,2.0078,0,0,0-1.5938-.7617,2.1,2.1,0,0,0-1.7139.8125,3.7385,3.7385,0,0,0-.6562,2.3906A4.16,4.16,0,0,0,516.9087,151.1855Z"/>
      <path class="c" d="M528.9458,144.9121a3.7706,3.7706,0,0,1,.8486.82v-4.2266h1.3516v11.5157H529.88v-1.1641a3.0415,3.0415,0,0,1-1.16,1.1172,3.3041,3.3041,0,0,1-1.5332.3437,3.0983,3.0983,0,0,1-2.4121-1.1758,4.6091,4.6091,0,0,1-1.0195-3.1289,5.4156,5.4156,0,0,1,.93-3.1679,3.0408,3.0408,0,0,1,2.6582-1.34A2.9586,2.9586,0,0,1,528.9458,144.9121Zm-3.1387,6.2734a1.9837,1.9837,0,0,0,1.8184.9063,1.9131,1.9131,0,0,0,1.5976-.84,3.9815,3.9815,0,0,0,.626-2.41,3.5728,3.5728,0,0,0-.6455-2.3477,2.0077,2.0077,0,0,0-1.5938-.7617,2.1,2.1,0,0,0-1.7138.8125,3.7385,3.7385,0,0,0-.6563,2.3906A4.16,4.16,0,0,0,525.8071,151.1855Z"/>
      <path class="c" d="M533.2866,141.5449h1.4063v11.4766h-1.4063Z"/>
      <path class="c" d="M541.97,144.8847a3.1723,3.1723,0,0,1,1.2656,1.0821,3.76,3.76,0,0,1,.56,1.4765,9.7972,9.7972,0,0,1,.124,1.8438h-6.0859a3.6127,3.6127,0,0,0,.5967,2.0488,1.989,1.989,0,0,0,1.7285.7715,2.2215,2.2215,0,0,0,1.7441-.73,2.4967,2.4967,0,0,0,.5166-.9814h1.3828a2.9393,2.9393,0,0,1-.3632,1.0273,3.7014,3.7014,0,0,1-.6885.9258,3.2421,3.2421,0,0,1-1.5742.8437,4.7637,4.7637,0,0,1-1.14.125,3.4917,3.4917,0,0,1-2.6318-1.1367,4.4388,4.4388,0,0,1-1.0791-3.1836,4.8287,4.8287,0,0,1,1.0869-3.2734,3.575,3.575,0,0,1,2.8418-1.2578A3.7784,3.7784,0,0,1,541.97,144.8847Zm.5039,3.2852a3.6541,3.6541,0,0,0-.3955-1.4609,2.02,2.02,0,0,0-1.9131-1.0157,2.1132,2.1132,0,0,0-1.6113.6992,2.6522,2.6522,0,0,0-.69,1.7774Z"/>
    </g>
    <g>
      <path class="c" d="M498.5679,110.5029h1.3906V111.69a4.6563,4.6563,0,0,1,.9062-.8984,2.7258,2.7258,0,0,1,1.5782-.4766,2.4848,2.4848,0,0,1,1.6093.4922,2.5863,2.5863,0,0,1,.625.8281,3.0338,3.0338,0,0,1,1.1016-.9961,3.0761,3.0761,0,0,1,1.4219-.3242,2.325,2.325,0,0,1,2.2968,1.2187,3.9842,3.9842,0,0,1,.3282,1.7657v5.57h-1.461v-5.8125a1.3542,1.3542,0,0,0-.4179-1.1485,1.6592,1.6592,0,0,0-1.02-.3125,2.0212,2.0212,0,0,0-1.4257.5547,2.4367,2.4367,0,0,0-.5977,1.8516V118.87h-1.43v-5.461a2.85,2.85,0,0,0-.2031-1.2421,1.2392,1.2392,0,0,0-1.1953-.586,2.0632,2.0632,0,0,0-1.4492.6172,3.0213,3.0213,0,0,0-.6524,2.2344V118.87h-1.4062Z"/>
      <path class="c" d="M516.38,113.8066a.7646.7646,0,0,0,.6484-.4053,1.25,1.25,0,0,0,.0937-.542,1.1511,1.1511,0,0,0-.5107-1.0468,2.73,2.73,0,0,0-1.4619-.3252,1.8519,1.8519,0,0,0-1.56.5967,1.9645,1.9645,0,0,0-.3349.9814h-1.3125a2.4232,2.4232,0,0,1,1.0029-2.1582,4.0979,4.0979,0,0,1,2.2353-.6074,4.5445,4.5445,0,0,1,2.3955.5625,1.9091,1.9091,0,0,1,.9131,1.75v4.82a.6084.6084,0,0,0,.09.3515.431.431,0,0,0,.3789.1329q.0938,0,.2109-.0118c.0781-.0078.1612-.0195.25-.0351v1.039a3.9218,3.9218,0,0,1-.5.1172,3.6516,3.6516,0,0,1-.4687.0235,1.1565,1.1565,0,0,1-1.0547-.5157,1.9705,1.9705,0,0,1-.2422-.7734,3.579,3.579,0,0,1-1.2344.9766,3.8177,3.8177,0,0,1-1.7734.414,2.6388,2.6388,0,0,1-1.9024-.706,2.344,2.344,0,0,1-.7382-1.7676,2.2733,2.2733,0,0,1,.7265-1.8018,3.4625,3.4625,0,0,1,1.9063-.789Zm-2.961,3.7988a1.6561,1.6561,0,0,0,1.0547.3506,3.2176,3.2176,0,0,0,1.4375-.3427,1.9316,1.9316,0,0,0,1.1719-1.8643v-1.1309a2.3837,2.3837,0,0,1-.6631.2735,5.6162,5.6162,0,0,1-.7949.1572l-.85.1084a3.3,3.3,0,0,0-1.1494.32,1.2413,1.2413,0,0,0-.6524,1.169A1.1554,1.1554,0,0,0,513.4194,117.6054Z"/>
      <path class="c" d="M521.0757,108.167h1.4218v2.3359h1.336v1.1484h-1.336v5.461a.59.59,0,0,0,.2969.5859,1.2554,1.2554,0,0,0,.5469.0859c.0674,0,.1406-.0019.2187-.0048s.169-.0127.2735-.0264V118.87a3.1292,3.1292,0,0,1-.5039.1015,4.8448,4.8448,0,0,1-.5664.0313,1.5267,1.5267,0,0,1-1.336-.5039,2.2406,2.2406,0,0,1-.3515-1.3086v-5.5391h-1.1328v-1.1484h1.1328Z"/>
      <path class="c" d="M525.24,107.3545h1.4063v4.2812a4.0533,4.0533,0,0,1,.8984-.8906A3.0292,3.0292,0,0,1,529.24,110.3a2.5088,2.5088,0,0,1,2.4688,1.2734,4.3425,4.3425,0,0,1,.3515,1.93V118.87h-1.4453v-5.2735a2.95,2.95,0,0,0-.2343-1.3515,1.4989,1.4989,0,0,0-1.4375-.6875,2.3918,2.3918,0,0,0-1.586.6015,2.8912,2.8912,0,0,0-.7109,2.2735V118.87H525.24Z"/>
      <path class="c" d="M539.3061,110.7334a3.1724,3.1724,0,0,1,1.2657,1.082,3.7591,3.7591,0,0,1,.5595,1.4766,9.7853,9.7853,0,0,1,.1241,1.8437h-6.086a3.6124,3.6124,0,0,0,.5967,2.0488,1.9891,1.9891,0,0,0,1.7285.7715,2.2214,2.2214,0,0,0,1.7442-.73,2.4986,2.4986,0,0,0,.5166-.9814h1.3828a2.9377,2.9377,0,0,1-.3633,1.0273,3.6977,3.6977,0,0,1-.6885.9258,3.2418,3.2418,0,0,1-1.5742.8438,4.7625,4.7625,0,0,1-1.14.125,3.4914,3.4914,0,0,1-2.6318-1.1368,4.4392,4.4392,0,0,1-1.0791-3.1836,4.8289,4.8289,0,0,1,1.0869-3.2734,3.575,3.575,0,0,1,2.8418-1.2578A3.777,3.777,0,0,1,539.3061,110.7334Zm.5039,3.2851a3.6524,3.6524,0,0,0-.3955-1.4609,2.02,2.02,0,0,0-1.913-1.0156,2.1132,2.1132,0,0,0-1.6114.6992,2.6519,2.6519,0,0,0-.6894,1.7773Z"/>
      <path class="c" d="M543.0366,110.5029h1.3906V111.69a4.6563,4.6563,0,0,1,.9063-.8984,2.7255,2.7255,0,0,1,1.5781-.4766,2.4853,2.4853,0,0,1,1.6094.4922,2.5863,2.5863,0,0,1,.625.8281,3.0343,3.0343,0,0,1,1.1015-.9961,3.0764,3.0764,0,0,1,1.4219-.3242,2.3252,2.3252,0,0,1,2.2969,1.2187,3.9857,3.9857,0,0,1,.3281,1.7657v5.57h-1.4609v-5.8125a1.3542,1.3542,0,0,0-.418-1.1485,1.6589,1.6589,0,0,0-1.0195-.3125,2.0213,2.0213,0,0,0-1.4258.5547,2.4371,2.4371,0,0,0-.5977,1.8516V118.87h-1.43v-5.461a2.848,2.848,0,0,0-.2032-1.2421,1.2391,1.2391,0,0,0-1.1953-.586,2.0635,2.0635,0,0,0-1.4492.6172,3.0218,3.0218,0,0,0-.6523,2.2344V118.87h-1.4063Z"/>
      <path class="c" d="M560.8491,113.8066a.7644.7644,0,0,0,.6484-.4053,1.25,1.25,0,0,0,.0938-.542,1.1511,1.1511,0,0,0-.5107-1.0468,2.731,2.731,0,0,0-1.462-.3252,1.8515,1.8515,0,0,0-1.56.5967,1.9654,1.9654,0,0,0-.335.9814h-1.3125a2.4236,2.4236,0,0,1,1.0029-2.1582A4.098,4.098,0,0,1,559.65,110.3a4.5448,4.5448,0,0,1,2.3955.5625,1.9091,1.9091,0,0,1,.9131,1.75v4.82a.6092.6092,0,0,0,.09.3515.4313.4313,0,0,0,.3789.1329q.0938,0,.211-.0118c.0781-.0078.1611-.0195.25-.0351v1.039a3.93,3.93,0,0,1-.5.1172,3.6534,3.6534,0,0,1-.4688.0235,1.1566,1.1566,0,0,1-1.0547-.5157,1.9722,1.9722,0,0,1-.2422-.7734,3.58,3.58,0,0,1-1.2343.9766,3.8181,3.8181,0,0,1-1.7735.414,2.6387,2.6387,0,0,1-1.9023-.706,2.3438,2.3438,0,0,1-.7383-1.7676,2.2734,2.2734,0,0,1,.7266-1.8018,3.4619,3.4619,0,0,1,1.9062-.789Zm-2.9609,3.7988a1.6557,1.6557,0,0,0,1.0547.3506,3.2176,3.2176,0,0,0,1.4375-.3427,1.9316,1.9316,0,0,0,1.1718-1.8643v-1.1309a2.3811,2.3811,0,0,1-.6631.2735,5.6134,5.6134,0,0,1-.7949.1572l-.85.1084a3.3,3.3,0,0,0-1.1494.32,1.2414,1.2414,0,0,0-.6523,1.169A1.1554,1.1554,0,0,0,557.8882,117.6054Z"/>
      <path class="c" d="M565.5444,108.167h1.4219v2.3359h1.3359v1.1484h-1.3359v5.461a.59.59,0,0,0,.2969.5859,1.2549,1.2549,0,0,0,.5468.0859c.0674,0,.1407-.0019.2188-.0048s.1689-.0127.2734-.0264V118.87a3.127,3.127,0,0,1-.5039.1015,4.8448,4.8448,0,0,1-.5664.0313,1.5267,1.5267,0,0,1-1.3359-.5039,2.24,2.24,0,0,1-.3516-1.3086v-5.5391h-1.1328v-1.1484h1.1328Z"/>
      <path class="c" d="M569.7085,107.3935h1.43v1.5938h-1.43Zm0,3.1485h1.43V118.87h-1.43Z"/>
      <path class="c" d="M578.7905,110.9482a3.2949,3.2949,0,0,1,1.0664,2.3672H578.49a2.5286,2.5286,0,0,0-.57-1.2852,1.8027,1.8027,0,0,0-1.43-.5117,1.975,1.975,0,0,0-1.9218,1.3106,5.2068,5.2068,0,0,0-.375,2.1,3.9431,3.9431,0,0,0,.5312,2.1142,2.0627,2.0627,0,0,0,3.0586.3252,2.9348,2.9348,0,0,0,.707-1.459h1.3672a3.3065,3.3065,0,0,1-3.57,3.2032,3.2,3.2,0,0,1-2.6172-1.1992,4.5886,4.5886,0,0,1-.9765-2.9961,5.0451,5.0451,0,0,1,1.07-3.43,3.458,3.458,0,0,1,2.7265-1.2266A3.652,3.652,0,0,1,578.7905,110.9482Z"/>
      <path class="c" d="M585.7475,113.8066a.7646.7646,0,0,0,.6485-.4053,1.25,1.25,0,0,0,.0937-.542,1.1511,1.1511,0,0,0-.5107-1.0468,2.73,2.73,0,0,0-1.4619-.3252,1.8517,1.8517,0,0,0-1.56.5967,1.9654,1.9654,0,0,0-.335.9814H581.31a2.4235,2.4235,0,0,1,1.003-2.1582,4.0979,4.0979,0,0,1,2.2353-.6074,4.5445,4.5445,0,0,1,2.3955.5625,1.9091,1.9091,0,0,1,.9131,1.75v4.82a.6084.6084,0,0,0,.09.3515.431.431,0,0,0,.3789.1329q.0938,0,.2109-.0118c.0781-.0078.1611-.0195.25-.0351v1.039a3.9218,3.9218,0,0,1-.5.1172,3.6516,3.6516,0,0,1-.4687.0235,1.1565,1.1565,0,0,1-1.0547-.5157,1.9705,1.9705,0,0,1-.2422-.7734,3.58,3.58,0,0,1-1.2344.9766,3.8177,3.8177,0,0,1-1.7734.414,2.6388,2.6388,0,0,1-1.9024-.706,2.3438,2.3438,0,0,1-.7383-1.7676,2.2734,2.2734,0,0,1,.7266-1.8018,3.4622,3.4622,0,0,1,1.9063-.789Zm-2.9609,3.7988a1.6559,1.6559,0,0,0,1.0547.3506,3.2176,3.2176,0,0,0,1.4375-.3427,1.9317,1.9317,0,0,0,1.1719-1.8643v-1.1309a2.3837,2.3837,0,0,1-.6631.2735,5.6162,5.6162,0,0,1-.7949.1572l-.85.1084a3.3011,3.3011,0,0,0-1.1495.32,1.2414,1.2414,0,0,0-.6523,1.169A1.1554,1.1554,0,0,0,582.7866,117.6054Z"/>
      <path class="c" d="M590.2007,107.3935h1.4062V118.87h-1.4062Z"/>
    </g>
    <g>
      <path class="c" d="M498.5679,208.8486h1.43v1.5938h-1.43Zm0,3.148h1.43v8.3281h-1.43Z"/>
      <path class="c" d="M506.7192,212.2153a3.7729,3.7729,0,0,1,.8487.82V208.81h1.3515v11.5152h-1.2656v-1.1641a3.0415,3.0415,0,0,1-1.16,1.1172,3.3042,3.3042,0,0,1-1.5332.3438,3.0983,3.0983,0,0,1-2.4121-1.1758,4.61,4.61,0,0,1-1.0195-3.1289,5.416,5.416,0,0,1,.93-3.168,3.04,3.04,0,0,1,2.6582-1.34A2.958,2.958,0,0,1,506.7192,212.2153Zm-3.1386,6.2734a1.9835,1.9835,0,0,0,1.8183.9063,1.9133,1.9133,0,0,0,1.5977-.84,3.9813,3.9813,0,0,0,.6259-2.41,3.573,3.573,0,0,0-.6455-2.3477,2.0076,2.0076,0,0,0-1.5937-.7617,2.1,2.1,0,0,0-1.7139.8125,3.7385,3.7385,0,0,0-.6562,2.3906A4.1592,4.1592,0,0,0,503.5806,218.4887Z"/>
      <path class="c" d="M516.189,212.188a3.172,3.172,0,0,1,1.2656,1.082,3.7591,3.7591,0,0,1,.5595,1.4766,9.7853,9.7853,0,0,1,.1241,1.8437h-6.086a3.6124,3.6124,0,0,0,.5967,2.0488,1.9893,1.9893,0,0,0,1.7285.7715,2.2214,2.2214,0,0,0,1.7442-.73,2.4986,2.4986,0,0,0,.5166-.9814h1.3828a2.9377,2.9377,0,0,1-.3633,1.0273,3.6971,3.6971,0,0,1-.6885.9258,3.2427,3.2427,0,0,1-1.5742.8438,4.7623,4.7623,0,0,1-1.14.125,3.4918,3.4918,0,0,1-2.6319-1.1368,4.4392,4.4392,0,0,1-1.0791-3.1836,4.8289,4.8289,0,0,1,1.0869-3.2734,3.575,3.575,0,0,1,2.8418-1.2578A3.7777,3.7777,0,0,1,516.189,212.188Zm.5039,3.2851a3.654,3.654,0,0,0-.3956-1.4609,2.02,2.02,0,0,0-1.913-1.0156,2.1132,2.1132,0,0,0-1.6114.6992,2.6519,2.6519,0,0,0-.6894,1.7773Z"/>
      <path class="c" d="M525.9819,212.7925a4.2218,4.2218,0,0,1,1.1094,3.1689,5.4623,5.4623,0,0,1-.9775,3.3408,3.5257,3.5257,0,0,1-3.0332,1.3194,3.4151,3.4151,0,0,1-2.7237-1.167,4.63,4.63,0,0,1-1.0078-3.1338,5.01,5.01,0,0,1,1.0625-3.3565,3.5565,3.5565,0,0,1,2.8545-1.249A3.7524,3.7524,0,0,1,525.9819,212.7925Zm-.873,5.5605a5.3193,5.3193,0,0,0,.5136-2.3525,4.2231,4.2231,0,0,0-.371-1.9034,2.0822,2.0822,0,0,0-2.0235-1.1552,1.9917,1.9917,0,0,0-1.8545.9834,4.5985,4.5985,0,0,0-.5791,2.372,3.9976,3.9976,0,0,0,.5791,2.2237,2.0351,2.0351,0,0,0,1.8389.89A1.9143,1.9143,0,0,0,525.1089,218.353Z"/>
      <path class="c" d="M533.4692,212.2934a3.8774,3.8774,0,0,1,.81.7969v-1.0547h1.2969v7.6094a5.6251,5.6251,0,0,1-.4678,2.5156,3.35,3.35,0,0,1-3.293,1.7031,4.0305,4.0305,0,0,1-2.2656-.6054,2.36,2.36,0,0,1-1.0283-1.8946h1.43a1.594,1.594,0,0,0,.4043.8672,2.5475,2.5475,0,0,0,3.5966-.6718,6.443,6.443,0,0,0,.2725-2.3985,2.7519,2.7519,0,0,1-1.0117.9531,3.6165,3.6165,0,0,1-3.9336-.6523,4.2517,4.2517,0,0,1-1.0156-3.1914,4.8429,4.8429,0,0,1,1.0234-3.2813,3.16,3.16,0,0,1,2.4707-1.18A3.0263,3.0263,0,0,1,533.4692,212.2934Zm.1719,1.5078a2.0365,2.0365,0,0,0-1.624-.75,2.0072,2.0072,0,0,0-2.0215,1.3907,5.4891,5.4891,0,0,0-.2871,1.9453,3.4665,3.4665,0,0,0,.5713,2.1523,1.8406,1.8406,0,0,0,1.5351.7383,2.1564,2.1564,0,0,0,2.1221-1.3672,4.4377,4.4377,0,0,0,.3418-1.8047A3.5023,3.5023,0,0,0,533.6411,213.8012Z"/>
      <path class="c" d="M537.7554,211.9575h1.3359v1.4453a3.18,3.18,0,0,1,.8047-1.0273,2.0862,2.0862,0,0,1,1.4765-.6055c.0254,0,.07.0029.1329.0078s.1689.0156.32.0313v1.4843a2.0542,2.0542,0,0,0-.2305-.0312c-.07-.0049-.1475-.0078-.2305-.0078a2.0043,2.0043,0,0,0-1.6328.6836,2.3834,2.3834,0,0,0-.57,1.5742v4.8125h-1.4062Z"/>
      <path class="c" d="M547.5288,215.2612a.7646.7646,0,0,0,.6484-.4053,1.25,1.25,0,0,0,.0938-.542,1.151,1.151,0,0,0-.5108-1.0468,2.73,2.73,0,0,0-1.4619-.3252,1.8518,1.8518,0,0,0-1.56.5966,1.9662,1.9662,0,0,0-.335.9815h-1.3125a2.4234,2.4234,0,0,1,1.0029-2.1582,4.098,4.098,0,0,1,2.2354-.6074,4.5448,4.5448,0,0,1,2.3955.5625,1.9091,1.9091,0,0,1,.9131,1.75v4.82a.6094.6094,0,0,0,.09.3515.4313.4313,0,0,0,.3789.1329q.0938,0,.211-.0118c.0781-.0078.1611-.0195.25-.0351v1.039a3.93,3.93,0,0,1-.5.1172,3.6534,3.6534,0,0,1-.4688.0235,1.1566,1.1566,0,0,1-1.0547-.5157,1.9722,1.9722,0,0,1-.2422-.7734,3.58,3.58,0,0,1-1.2343.9766,3.8184,3.8184,0,0,1-1.7735.414,2.6387,2.6387,0,0,1-1.9023-.706,2.3438,2.3438,0,0,1-.7383-1.7676,2.2734,2.2734,0,0,1,.7266-1.8018,3.4619,3.4619,0,0,1,1.9062-.789Zm-2.9609,3.7988a1.6556,1.6556,0,0,0,1.0546.3506,3.2157,3.2157,0,0,0,1.4375-.3428,1.9313,1.9313,0,0,0,1.1719-1.8642v-1.1309a2.3837,2.3837,0,0,1-.6631.2735,5.6134,5.6134,0,0,1-.7949.1572l-.85.1084a3.2976,3.2976,0,0,0-1.1494.32,1.2413,1.2413,0,0,0-.6524,1.1689A1.1555,1.1555,0,0,0,544.5679,219.06Z"/>
      <path class="c" d="M551.8257,211.9966h1.375v1.1093a3.4225,3.4225,0,0,1,.9238-.8828,2.9828,2.9828,0,0,1,1.6768-.4687,3.1545,3.1545,0,0,1,2.42,1.09,4.4589,4.4589,0,0,1,.9951,3.1133,4.7693,4.7693,0,0,1-1.4356,3.9062,3.248,3.248,0,0,1-2.1171.7422,2.8825,2.8825,0,0,1-1.5928-.414,3.6716,3.6716,0,0,1-.8389-.8047v4.2734h-1.4062Zm5.291,6.5585a3.9184,3.9184,0,0,0,.6543-2.4648,4.5855,4.5855,0,0,0-.29-1.7187,2.1277,2.1277,0,0,0-4.0136.0781,5.771,5.771,0,0,0-.29,1.9844,4.1941,4.1941,0,0,0,.29,1.6484,2.1349,2.1349,0,0,0,3.6494.4726Z"/>
      <path class="c" d="M560.8413,208.81h1.4062V213.09a4.0555,4.0555,0,0,1,.8985-.8906,3.0292,3.0292,0,0,1,1.6953-.4453,2.5086,2.5086,0,0,1,2.4687,1.2734,4.3421,4.3421,0,0,1,.3516,1.93v5.3672h-1.4453v-5.2735a2.9485,2.9485,0,0,0-.2344-1.3515,1.4988,1.4988,0,0,0-1.4375-.6875,2.3913,2.3913,0,0,0-1.5859.6015,2.8912,2.8912,0,0,0-.711,2.2735v4.4375h-1.4062Z"/>
      <path class="c" d="M569.74,208.8486h1.43v1.5938h-1.43Zm0,3.148h1.43v8.3281h-1.43Z"/>
      <path class="c" d="M578.8218,212.4028a3.2949,3.2949,0,0,1,1.0664,2.3672H578.521a2.5294,2.5294,0,0,0-.57-1.2852,1.8028,1.8028,0,0,0-1.43-.5117,1.9752,1.9752,0,0,0-1.9219,1.3106,5.2065,5.2065,0,0,0-.375,2.1,3.9431,3.9431,0,0,0,.5313,2.1142,2.0627,2.0627,0,0,0,3.0586.3252,2.9356,2.9356,0,0,0,.707-1.459h1.3672a3.3065,3.3065,0,0,1-3.57,3.2032,3.2,3.2,0,0,1-2.6172-1.1993,4.5879,4.5879,0,0,1-.9766-2.996,5.0454,5.0454,0,0,1,1.07-3.43,3.4582,3.4582,0,0,1,2.7266-1.2266A3.652,3.652,0,0,1,578.8218,212.4028Z"/>
    </g>
    <g>
      <path class="c" d="M498.5679,74.2026h1.4062v4.2813a4.0542,4.0542,0,0,1,.8984-.8907,3.03,3.03,0,0,1,1.6954-.4453,2.5086,2.5086,0,0,1,2.4687,1.2735,4.3416,4.3416,0,0,1,.3516,1.93v5.3672h-1.4453V80.4448a2.95,2.95,0,0,0-.2344-1.3516,1.4989,1.4989,0,0,0-1.4375-.6875,2.3914,2.3914,0,0,0-1.586.6016,2.8911,2.8911,0,0,0-.7109,2.2734v4.4375h-1.4062Z"/>
      <path class="c" d="M511.9507,80.6548a.7648.7648,0,0,0,.6484-.4053,1.2507,1.2507,0,0,0,.0938-.542,1.1512,1.1512,0,0,0-.5108-1.0469,2.73,2.73,0,0,0-1.4619-.3252,1.8519,1.8519,0,0,0-1.56.5967,1.9658,1.9658,0,0,0-.3349.9814h-1.3125a2.4235,2.4235,0,0,1,1.0029-2.1582,4.0988,4.0988,0,0,1,2.2354-.6074,4.545,4.545,0,0,1,2.3955.5625,1.9091,1.9091,0,0,1,.913,1.75v4.82a.609.609,0,0,0,.09.3516.4311.4311,0,0,0,.3789.1328q.0938,0,.2109-.0117c.0782-.0078.1612-.0195.25-.0352v1.0391a3.9218,3.9218,0,0,1-.5.1172,3.6732,3.6732,0,0,1-.4687.0234,1.1566,1.1566,0,0,1-1.0547-.5156,1.9727,1.9727,0,0,1-.2422-.7734,3.5788,3.5788,0,0,1-1.2344.9765A3.8165,3.8165,0,0,1,509.7163,86a2.6385,2.6385,0,0,1-1.9023-.7061,2.3436,2.3436,0,0,1-.7383-1.7676,2.2734,2.2734,0,0,1,.7265-1.8017,3.4619,3.4619,0,0,1,1.9063-.7891Zm-2.961,3.7988a1.6561,1.6561,0,0,0,1.0547.3506,3.2171,3.2171,0,0,0,1.4375-.3428,1.9316,1.9316,0,0,0,1.1719-1.8643V81.4663a2.3808,2.3808,0,0,1-.6631.2734,5.5854,5.5854,0,0,1-.7949.1572l-.85.1084a3.2974,3.2974,0,0,0-1.1494.32,1.2412,1.2412,0,0,0-.6524,1.1689A1.1558,1.1558,0,0,0,508.99,84.4536Z"/>
      <path class="c" d="M516.3647,77.351h1.336v1.1875a3.7444,3.7444,0,0,1,1.2578-1.0546,3.3473,3.3473,0,0,1,1.4765-.32,2.435,2.435,0,0,1,2.4063,1.2422,4.4209,4.4209,0,0,1,.3437,1.9453v5.3672h-1.43V80.4448a2.8643,2.8643,0,0,0-.2266-1.2344,1.374,1.374,0,0,0-1.3594-.7812,2.7723,2.7723,0,0,0-.82.1015,2.1065,2.1065,0,0,0-1.0156.6875,2.0738,2.0738,0,0,0-.457.8555,5.75,5.75,0,0,0-.1055,1.2617v4.3828h-1.4063Z"/>
      <path class="c" d="M529.9145,77.687a3.875,3.875,0,0,1,.81.7969V77.4292h1.2969v7.6093a5.6258,5.6258,0,0,1-.4678,2.5157,3.35,3.35,0,0,1-3.293,1.7031,4.0306,4.0306,0,0,1-2.2656-.6055,2.36,2.36,0,0,1-1.0283-1.8945h1.43a1.594,1.594,0,0,0,.4043.8672,2.5478,2.5478,0,0,0,3.5967-.6719,6.4451,6.4451,0,0,0,.2724-2.3984,2.7527,2.7527,0,0,1-1.0117.9531,3.6165,3.6165,0,0,1-3.9336-.6523,4.2519,4.2519,0,0,1-1.0156-3.1915,4.8426,4.8426,0,0,1,1.0234-3.2812,3.16,3.16,0,0,1,2.4707-1.18A3.0256,3.0256,0,0,1,529.9145,77.687Zm.1719,1.5078a2.0365,2.0365,0,0,0-1.624-.75,2.0073,2.0073,0,0,0-2.0215,1.3906,5.49,5.49,0,0,0-.2871,1.9453,3.4668,3.4668,0,0,0,.5713,2.1524,1.8408,1.8408,0,0,0,1.5351.7383,2.1563,2.1563,0,0,0,2.1221-1.3672,4.438,4.438,0,0,0,.3418-1.8047A3.5021,3.5021,0,0,0,530.0864,79.1948Z"/>
      <path class="c" d="M534.1616,74.2417h1.43v1.5937h-1.43Zm0,3.1484h1.43v8.3281h-1.43Z"/>
      <path class="c" d="M537.7163,77.351h1.3359v1.1875a3.7454,3.7454,0,0,1,1.2578-1.0546,3.3475,3.3475,0,0,1,1.4766-.32,2.435,2.435,0,0,1,2.4063,1.2422,4.4209,4.4209,0,0,1,.3437,1.9453v5.3672h-1.43V80.4448A2.8659,2.8659,0,0,0,542.88,79.21a1.3741,1.3741,0,0,0-1.3594-.7812,2.7723,2.7723,0,0,0-.82.1015,2.1068,2.1068,0,0,0-1.0157.6875,2.075,2.075,0,0,0-.457.8555,5.7561,5.7561,0,0,0-.1055,1.2617v4.3828h-1.4062Z"/>
      <path class="c" d="M551.2661,77.687a3.8774,3.8774,0,0,1,.81.7969V77.4292h1.2968v7.6093a5.626,5.626,0,0,1-.4677,2.5157,3.35,3.35,0,0,1-3.293,1.7031,4.0306,4.0306,0,0,1-2.2656-.6055,2.36,2.36,0,0,1-1.0283-1.8945h1.43a1.5947,1.5947,0,0,0,.4043.8672,2.5478,2.5478,0,0,0,3.5967-.6719,6.4424,6.4424,0,0,0,.2725-2.3984,2.7527,2.7527,0,0,1-1.0117.9531,3.6165,3.6165,0,0,1-3.9336-.6523,4.2515,4.2515,0,0,1-1.0157-3.1915,4.8426,4.8426,0,0,1,1.0235-3.2812,3.16,3.16,0,0,1,2.4707-1.18A3.0256,3.0256,0,0,1,551.2661,77.687Zm.1719,1.5078a2.0365,2.0365,0,0,0-1.624-.75,2.0072,2.0072,0,0,0-2.0215,1.3906,5.49,5.49,0,0,0-.2871,1.9453,3.4674,3.4674,0,0,0,.5712,2.1524,1.8409,1.8409,0,0,0,1.5352.7383,2.1564,2.1564,0,0,0,2.1221-1.3672,4.438,4.438,0,0,0,.3418-1.8047A3.5021,3.5021,0,0,0,551.438,79.1948Z"/>
    </g>
    <g>
      <path class="c" d="M277.57,244.6635H278.96v1.1875a4.67,4.67,0,0,1,.9063-.8984,2.7266,2.7266,0,0,1,1.5781-.4766,2.4843,2.4843,0,0,1,1.6094.4922,2.5785,2.5785,0,0,1,.625.8282,3.0334,3.0334,0,0,1,1.1015-.9961,3.0752,3.0752,0,0,1,1.4219-.3243,2.3253,2.3253,0,0,1,2.2969,1.2188,3.9855,3.9855,0,0,1,.3281,1.7656v5.57h-1.4609v-5.8125a1.3539,1.3539,0,0,0-.418-1.1484,1.6569,1.6569,0,0,0-1.0195-.3125,2.0221,2.0221,0,0,0-1.4258.5547,2.4369,2.4369,0,0,0-.5977,1.8515v4.8672h-1.43V247.57a2.8408,2.8408,0,0,0-.2032-1.2422,1.2393,1.2393,0,0,0-1.1953-.5859,2.0631,2.0631,0,0,0-1.4492.6172,3.0232,3.0232,0,0,0-.6523,2.2343v4.4375H277.57Z"/>
      <path class="c" d="M290.8979,241.5542h1.43v1.5937h-1.43Zm0,3.1484h1.43v8.3281h-1.43Z"/>
      <path class="c" d="M299.05,244.9214a3.7679,3.7679,0,0,1,.8481.82v-4.2266H301.25v11.5156h-1.2656v-1.164a3.04,3.04,0,0,1-1.16,1.1172,3.3068,3.3068,0,0,1-1.5332.3437,3.0993,3.0993,0,0,1-2.4126-1.1758,4.6093,4.6093,0,0,1-1.0195-3.1289,5.4186,5.4186,0,0,1,.93-3.1679,3.0406,3.0406,0,0,1,2.6582-1.34A2.9592,2.9592,0,0,1,299.05,244.9214Zm-3.1392,6.2734a1.9845,1.9845,0,0,0,1.8189.9062,1.9126,1.9126,0,0,0,1.5971-.84,3.9784,3.9784,0,0,0,.626-2.41,3.5756,3.5756,0,0,0-.645-2.3476,2.009,2.009,0,0,0-1.5937-.7617,2.0988,2.0988,0,0,0-1.7139.8125,3.7353,3.7353,0,0,0-.6568,2.3906A4.1645,4.1645,0,0,0,295.9106,251.1948Z"/>
      <path class="c" d="M307.9482,244.9214a3.7659,3.7659,0,0,1,.8482.82v-4.2266h1.3515v11.5156h-1.2656v-1.164a3.04,3.04,0,0,1-1.16,1.1172,3.3065,3.3065,0,0,1-1.5332.3437,3.0993,3.0993,0,0,1-2.4126-1.1758,4.61,4.61,0,0,1-1.0195-3.1289,5.4193,5.4193,0,0,1,.93-3.1679,3.0407,3.0407,0,0,1,2.6582-1.34A2.9589,2.9589,0,0,1,307.9482,244.9214Zm-3.1391,6.2734a1.9843,1.9843,0,0,0,1.8188.9062,1.9128,1.9128,0,0,0,1.5972-.84,3.9784,3.9784,0,0,0,.626-2.41,3.5756,3.5756,0,0,0-.6451-2.3476,2.0089,2.0089,0,0,0-1.5937-.7617,2.0988,2.0988,0,0,0-1.7139.8125,3.7353,3.7353,0,0,0-.6567,2.3906A4.1645,4.1645,0,0,0,304.8091,251.1948Z"/>
      <path class="c" d="M312.2886,241.5542h1.4062v11.4765h-1.4062Z"/>
      <path class="c" d="M320.9722,244.894a3.166,3.166,0,0,1,1.2656,1.082,3.7514,3.7514,0,0,1,.56,1.4766,9.7429,9.7429,0,0,1,.1241,1.8438h-6.086a3.6168,3.6168,0,0,0,.5967,2.0488,1.99,1.99,0,0,0,1.7285.7715,2.221,2.221,0,0,0,1.7442-.73,2.499,2.499,0,0,0,.5166-.9815h1.3828a2.9186,2.9186,0,0,1-.3633,1.0274,3.699,3.699,0,0,1-.6885.9258,3.24,3.24,0,0,1-1.5742.8437,4.7623,4.7623,0,0,1-1.14.125,3.4919,3.4919,0,0,1-2.6319-1.1367,4.4392,4.4392,0,0,1-1.0791-3.1836,4.8286,4.8286,0,0,1,1.0869-3.2734,3.5751,3.5751,0,0,1,2.8418-1.2579A3.7774,3.7774,0,0,1,320.9722,244.894Zm.5039,3.2852a3.6636,3.6636,0,0,0-.3951-1.461,2.0217,2.0217,0,0,0-1.9135-1.0156,2.1132,2.1132,0,0,0-1.6114.6992,2.6544,2.6544,0,0,0-.6894,1.7774Z"/>
    </g>
    <g>
      <path class="c" d="M394.7505,244.894a3.166,3.166,0,0,1,1.2656,1.082,3.7531,3.7531,0,0,1,.56,1.4766,9.7535,9.7535,0,0,1,.124,1.8438h-6.0859a3.6168,3.6168,0,0,0,.5966,2.0488,1.99,1.99,0,0,0,1.7286.7715,2.2208,2.2208,0,0,0,1.7441-.73,2.4977,2.4977,0,0,0,.5166-.9815h1.3828a2.9186,2.9186,0,0,1-.3633,1.0274,3.6965,3.6965,0,0,1-.6885.9258,3.24,3.24,0,0,1-1.5742.8437,4.7623,4.7623,0,0,1-1.14.125,3.4919,3.4919,0,0,1-2.6319-1.1367,4.4392,4.4392,0,0,1-1.0791-3.1836,4.8281,4.8281,0,0,1,1.087-3.2734,3.575,3.575,0,0,1,2.8418-1.2579A3.777,3.777,0,0,1,394.7505,244.894Zm.5039,3.2852a3.6654,3.6654,0,0,0-.395-1.461,2.0219,2.0219,0,0,0-1.9136-1.0156,2.1132,2.1132,0,0,0-1.6113.6992,2.6545,2.6545,0,0,0-.69,1.7774Z"/>
      <path class="c" d="M398.4809,244.6635h1.336v1.1875a3.7444,3.7444,0,0,1,1.2578-1.0546,3.3475,3.3475,0,0,1,1.4766-.32,2.4349,2.4349,0,0,1,2.4062,1.2422,4.4207,4.4207,0,0,1,.3438,1.9453v5.3672h-1.43v-5.2734a2.8643,2.8643,0,0,0-.2266-1.2344,1.374,1.374,0,0,0-1.3594-.7812,2.7723,2.7723,0,0,0-.82.1015,2.1065,2.1065,0,0,0-1.0156.6875,2.0738,2.0738,0,0,0-.457.8555,5.75,5.75,0,0,0-.1055,1.2617v4.3828h-1.4063Z"/>
      <path class="c" d="M411.9761,244.9214a3.7684,3.7684,0,0,1,.8486.82v-4.2266h1.3516v11.5156h-1.2657v-1.164a3.0406,3.0406,0,0,1-1.16,1.1172,3.3056,3.3056,0,0,1-1.5332.3437,3.0982,3.0982,0,0,1-2.4121-1.1758,4.6093,4.6093,0,0,1-1.02-3.1289,5.4157,5.4157,0,0,1,.93-3.1679,3.0407,3.0407,0,0,1,2.6582-1.34A2.9578,2.9578,0,0,1,411.9761,244.9214Zm-3.1387,6.2734a1.9836,1.9836,0,0,0,1.8183.9062,1.913,1.913,0,0,0,1.5977-.84,3.9819,3.9819,0,0,0,.626-2.41,3.5733,3.5733,0,0,0-.6455-2.3476,2.0078,2.0078,0,0,0-1.5938-.7617,2.1,2.1,0,0,0-1.7138.8125,3.7383,3.7383,0,0,0-.6563,2.3906A4.16,4.16,0,0,0,408.8374,251.1948Z"/>
    </g>
    <g>
      <path class="d" d="M270.8281,47.958a.7639.7639,0,0,0,.6484-.4058,1.244,1.244,0,0,0,.0938-.541,1.15,1.15,0,0,0-.5107-1.0474,2.7286,2.7286,0,0,0-1.462-.3252,1.8524,1.8524,0,0,0-1.56.5967,1.9707,1.9707,0,0,0-.335.9815h-1.3125a2.4248,2.4248,0,0,1,1.0029-2.1582,4.0992,4.0992,0,0,1,2.2354-.6075,4.5436,4.5436,0,0,1,2.3955.5625,1.9087,1.9087,0,0,1,.9131,1.75v4.8208a.613.613,0,0,0,.09.3511.4319.4319,0,0,0,.3789.1328q.0938,0,.211-.0117c.0781-.0078.1611-.02.25-.0351v1.039a3.93,3.93,0,0,1-.5.1172,3.6642,3.6642,0,0,1-.4688.0234,1.1565,1.1565,0,0,1-1.0547-.5156,1.9861,1.9861,0,0,1-.2422-.7734,3.5793,3.5793,0,0,1-1.2343.9765,3.8216,3.8216,0,0,1-1.7735.4141,2.6384,2.6384,0,0,1-1.9023-.7061,2.3443,2.3443,0,0,1-.7383-1.7675,2.2745,2.2745,0,0,1,.7266-1.8023,3.46,3.46,0,0,1,1.9062-.7881Zm-2.9609,3.7988a1.6528,1.6528,0,0,0,1.0547.3506,3.21,3.21,0,0,0,1.4375-.3433A1.931,1.931,0,0,0,271.5312,49.9V48.769a2.3953,2.3953,0,0,1-.6626.2744,5.5314,5.5314,0,0,1-.7954.1563l-.85.1094a3.2887,3.2887,0,0,0-1.1494.32,1.242,1.242,0,0,0-.6523,1.1689A1.1549,1.1549,0,0,0,267.8672,51.7568Z"/>
      <path class="d" d="M275.2812,41.5449h1.4063V53.0215h-1.4063Z"/>
      <path class="d" d="M278.7969,41.5449h1.43v1.5937h-1.43Zm0,3.1484h1.43v8.3282h-1.43Z"/>
      <path class="d" d="M287.0029,44.99a3.863,3.863,0,0,1,.81.7969V44.7324h1.2969v7.6094a5.6275,5.6275,0,0,1-.4673,2.5156,3.3521,3.3521,0,0,1-3.2935,1.7031,4.0309,4.0309,0,0,1-2.2656-.6055,2.363,2.363,0,0,1-1.0283-1.8945h1.43a1.5933,1.5933,0,0,0,.4043.8672,2.548,2.548,0,0,0,3.5971-.6719,6.4555,6.4555,0,0,0,.272-2.3984,2.7486,2.7486,0,0,1-1.0117.9531,3.6166,3.6166,0,0,1-3.9336-.6523,4.2527,4.2527,0,0,1-1.0156-3.1914,4.8445,4.8445,0,0,1,1.0234-3.2813,3.1606,3.1606,0,0,1,2.4707-1.18A3.0291,3.0291,0,0,1,287.0029,44.99Zm.1724,1.5078a2.0382,2.0382,0,0,0-1.6245-.75,2.0067,2.0067,0,0,0-2.021,1.3906,5.4775,5.4775,0,0,0-.2876,1.9454,3.4657,3.4657,0,0,0,.5713,2.1523,1.8406,1.8406,0,0,0,1.5351.7383,2.1553,2.1553,0,0,0,2.1221-1.3672,4.4377,4.4377,0,0,0,.3418-1.8047A3.5024,3.5024,0,0,0,287.1753,46.498Z"/>
      <path class="d" d="M291.25,44.6543h1.3359v1.1875a3.7494,3.7494,0,0,1,1.2578-1.0547,3.3544,3.3544,0,0,1,1.4766-.32,2.4346,2.4346,0,0,1,2.4062,1.2422,4.4115,4.4115,0,0,1,.3438,1.9453v5.3672h-1.43V47.748a2.8584,2.8584,0,0,0-.2266-1.2344,1.3739,1.3739,0,0,0-1.3593-.7812,2.7761,2.7761,0,0,0-.82.1016,2.1107,2.1107,0,0,0-1.0157.6875,2.074,2.074,0,0,0-.457.8554,5.76,5.76,0,0,0-.1055,1.2617v4.3829H291.25Z"/>
      <path class="d" d="M300.1484,44.6543h1.3906v1.1875a4.6711,4.6711,0,0,1,.9063-.8985,2.7267,2.7267,0,0,1,1.5781-.4765,2.4837,2.4837,0,0,1,1.6094.4922,2.578,2.578,0,0,1,.625.8281,3.0418,3.0418,0,0,1,1.1016-.9961,3.0757,3.0757,0,0,1,1.4218-.3242,2.3251,2.3251,0,0,1,2.2969,1.2187,3.9841,3.9841,0,0,1,.3281,1.7656v5.57h-1.4609V47.209a1.355,1.355,0,0,0-.418-1.1485,1.6569,1.6569,0,0,0-1.02-.3125,2.0246,2.0246,0,0,0-1.4258.5547,2.437,2.437,0,0,0-.5976,1.8516v4.8672h-1.43v-5.461a2.8411,2.8411,0,0,0-.2032-1.2422,1.2393,1.2393,0,0,0-1.1953-.5859,2.0631,2.0631,0,0,0-1.4492.6172,3.0246,3.0246,0,0,0-.6523,2.2344v4.4375h-1.4063Z"/>
      <path class="d" d="M318.6445,44.8847a3.1686,3.1686,0,0,1,1.2656,1.0821,3.75,3.75,0,0,1,.56,1.4765,9.7542,9.7542,0,0,1,.124,1.8438h-6.0859a3.6165,3.6165,0,0,0,.5967,2.0488,1.99,1.99,0,0,0,1.7285.7715,2.22,2.22,0,0,0,1.7441-.73,2.4845,2.4845,0,0,0,.5166-.9809h1.3828a2.9158,2.9158,0,0,1-.3632,1.0273,3.7014,3.7014,0,0,1-.6885.9258,3.2436,3.2436,0,0,1-1.5742.8437,4.7631,4.7631,0,0,1-1.14.125,3.4917,3.4917,0,0,1-2.6318-1.1367A4.4384,4.4384,0,0,1,313,48.998a4.8287,4.8287,0,0,1,1.0869-3.2734,3.5766,3.5766,0,0,1,2.8418-1.2578A3.7769,3.7769,0,0,1,318.6445,44.8847Zm.5039,3.2852a3.6651,3.6651,0,0,0-.395-1.4609,2.0216,2.0216,0,0,0-1.9136-1.0157,2.1132,2.1132,0,0,0-1.6113.6992,2.6556,2.6556,0,0,0-.69,1.7774Z"/>
      <path class="d" d="M322.375,44.6543h1.3359v1.1875a3.7494,3.7494,0,0,1,1.2578-1.0547,3.3544,3.3544,0,0,1,1.4766-.32,2.4346,2.4346,0,0,1,2.4062,1.2422,4.4115,4.4115,0,0,1,.3438,1.9453v5.3672h-1.43V47.748a2.8584,2.8584,0,0,0-.2266-1.2344,1.3739,1.3739,0,0,0-1.3593-.7812,2.7761,2.7761,0,0,0-.82.1016,2.1107,2.1107,0,0,0-1.0157.6875,2.074,2.074,0,0,0-.457.8554,5.76,5.76,0,0,0-.1055,1.2617v4.3829H322.375Z"/>
      <path class="d" d="M331.5547,42.3183h1.4218v2.336h1.336v1.1484h-1.336v5.4609a.59.59,0,0,0,.2969.586,1.2569,1.2569,0,0,0,.5469.0859c.0674,0,.1406-.0019.2187-.0049s.169-.0127.2735-.0263v1.1172a3.1729,3.1729,0,0,1-.5039.1015,4.8668,4.8668,0,0,1-.5664.0313,1.5267,1.5267,0,0,1-1.336-.5039,2.24,2.24,0,0,1-.3515-1.3086V45.8027h-1.1328V44.6543h1.1328Z"/>
    </g>
    <g>
      <path class="e" d="M46.1133,141.5058h1.3672V145.67a3.08,3.08,0,0,1,2.5019-1.2344,3.279,3.279,0,0,1,2.5449,1.0742,4.5657,4.5657,0,0,1,.9766,3.168,5.4178,5.4178,0,0,1-.9649,3.2969,3.1325,3.1325,0,0,1-2.6743,1.3125,2.75,2.75,0,0,1-1.6157-.461,3.8833,3.8833,0,0,1-.8389-.875v1.07H46.1133Zm5.3769,9.6328a4.4491,4.4491,0,0,0,.5684-2.3906,3.9142,3.9142,0,0,0-.5684-2.1875,1.8732,1.8732,0,0,0-1.6738-.8672,2.3392,2.3392,0,0,0-1.689.711,3.1859,3.1859,0,0,0-.7251,2.3437,5.16,5.16,0,0,0,.2979,1.9141,2.058,2.058,0,0,0,2.0771,1.3828A1.8863,1.8863,0,0,0,51.49,151.1386Z"/>
      <path class="e" d="M59.6133,147.958a.7642.7642,0,0,0,.6484-.4058,1.244,1.244,0,0,0,.0938-.541,1.15,1.15,0,0,0-.5108-1.0474,2.728,2.728,0,0,0-1.4619-.3252,1.8528,1.8528,0,0,0-1.56.5967,1.97,1.97,0,0,0-.3349.9815H55.1758a2.4243,2.4243,0,0,1,1.0029-2.1582,4.0991,4.0991,0,0,1,2.2353-.6075,4.5439,4.5439,0,0,1,2.3956.5625,1.9088,1.9088,0,0,1,.913,1.75v4.8208a.6122.6122,0,0,0,.09.3511.4317.4317,0,0,0,.3789.1328q.0938,0,.2109-.0117c.0782-.0078.1612-.0195.25-.0351v1.039a3.9218,3.9218,0,0,1-.5.1172,3.6624,3.6624,0,0,1-.4687.0234,1.1564,1.1564,0,0,1-1.0547-.5156,1.9845,1.9845,0,0,1-.2422-.7734,3.5788,3.5788,0,0,1-1.2344.9765,3.8212,3.8212,0,0,1-1.7734.4141,2.6384,2.6384,0,0,1-1.9024-.7061,2.3446,2.3446,0,0,1-.7382-1.7675,2.2747,2.2747,0,0,1,.7265-1.8023,3.4605,3.4605,0,0,1,1.9063-.7881Zm-2.961,3.7988a1.6532,1.6532,0,0,0,1.0547.3506,3.21,3.21,0,0,0,1.4375-.3433A1.931,1.931,0,0,0,60.3164,149.9V148.769a2.3979,2.3979,0,0,1-.6626.2744,5.5314,5.5314,0,0,1-.7954.1563l-.85.1094a3.288,3.288,0,0,0-1.1494.32,1.2421,1.2421,0,0,0-.6524,1.1689A1.1552,1.1552,0,0,0,56.6523,151.7568Z"/>
      <path class="e" d="M64.8633,150.3965a2.0158,2.0158,0,0,0,.3589,1.0781,2.2794,2.2794,0,0,0,1.8818.68,2.8219,2.8219,0,0,0,1.4033-.34,1.1245,1.1245,0,0,0,.606-1.0508.8967.8967,0,0,0-.4844-.82,5.8787,5.8787,0,0,0-1.2227-.3984l-1.1352-.2813a5.5875,5.5875,0,0,1-1.604-.5937,1.7693,1.7693,0,0,1-.9209-1.5781,2.3975,2.3975,0,0,1,.8672-1.9219,3.4892,3.4892,0,0,1,2.3315-.7344,3.2582,3.2582,0,0,1,2.7632,1.1094,2.3891,2.3891,0,0,1,.5146,1.5156H68.8945a1.5955,1.5955,0,0,0-.3437-.8623,2.233,2.233,0,0,0-1.72-.5517,2.0944,2.0944,0,0,0-1.2353.3037.9425.9425,0,0,0-.42.8017.9841.9841,0,0,0,.5517.8721,3.3544,3.3544,0,0,0,.9395.3428l.9472.2265a7.4337,7.4337,0,0,1,2.0694.711,1.8826,1.8826,0,0,1,.82,1.6953,2.5679,2.5679,0,0,1-.8584,1.93,3.6838,3.6838,0,0,1-2.6143.8125,3.5356,3.5356,0,0,1-2.6772-.8477,3.1858,3.1858,0,0,1-.8423-2.0976Z"/>
      <path class="e" d="M77.1953,144.8847a3.1686,3.1686,0,0,1,1.2656,1.0821,3.752,3.752,0,0,1,.56,1.4765,9.7542,9.7542,0,0,1,.124,1.8438H73.0586a3.6165,3.6165,0,0,0,.5967,2.0488,1.99,1.99,0,0,0,1.7285.7715,2.22,2.22,0,0,0,1.7441-.73,2.4845,2.4845,0,0,0,.5166-.9809h1.3828a2.9142,2.9142,0,0,1-.3633,1.0273,3.6988,3.6988,0,0,1-.6884.9258,3.2445,3.2445,0,0,1-1.5742.8437,4.7637,4.7637,0,0,1-1.14.125,3.4915,3.4915,0,0,1-2.6318-1.1367,4.438,4.438,0,0,1-1.0791-3.1836,4.8287,4.8287,0,0,1,1.0869-3.2734,3.5766,3.5766,0,0,1,2.8418-1.2578A3.7769,3.7769,0,0,1,77.1953,144.8847Zm.5039,3.2852a3.6651,3.6651,0,0,0-.395-1.4609,2.0216,2.0216,0,0,0-1.9136-1.0157,2.1132,2.1132,0,0,0-1.6113.6992,2.6556,2.6556,0,0,0-.69,1.7774Z"/>
      <path class="e" d="M80.9648,141.5449h1.4063v11.4766H80.9648Z"/>
      <path class="e" d="M84.4805,141.5449h1.43v1.5937h-1.43Zm0,3.1484h1.43v8.3282h-1.43Z"/>
      <path class="e" d="M88.0351,144.6543h1.336v1.1875a3.7484,3.7484,0,0,1,1.2578-1.0547,3.3544,3.3544,0,0,1,1.4766-.32,2.4347,2.4347,0,0,1,2.4062,1.2422,4.4129,4.4129,0,0,1,.3438,1.9453v5.3672h-1.43V147.748a2.8584,2.8584,0,0,0-.2266-1.2344,1.374,1.374,0,0,0-1.3594-.7812,2.7765,2.7765,0,0,0-.82.1016,2.1109,2.1109,0,0,0-1.0156.6875,2.0729,2.0729,0,0,0-.457.8554,5.7542,5.7542,0,0,0-.1055,1.2617v4.3829H88.0351Z"/>
      <path class="e" d="M102.1015,144.8847a3.17,3.17,0,0,1,1.2657,1.0821,3.75,3.75,0,0,1,.5595,1.4765,9.7436,9.7436,0,0,1,.1241,1.8438h-6.086a3.6165,3.6165,0,0,0,.5967,2.0488,1.9905,1.9905,0,0,0,1.7285.7715,2.22,2.22,0,0,0,1.7442-.73,2.487,2.487,0,0,0,.5166-.9809h1.3828a2.9142,2.9142,0,0,1-.3633,1.0273,3.699,3.699,0,0,1-.6885.9258,3.2436,3.2436,0,0,1-1.5742.8437,4.7623,4.7623,0,0,1-1.14.125,3.4917,3.4917,0,0,1-2.6319-1.1367,4.4384,4.4384,0,0,1-1.0791-3.1836,4.8287,4.8287,0,0,1,1.0869-3.2734,3.5766,3.5766,0,0,1,2.8418-1.2578A3.7766,3.7766,0,0,1,102.1015,144.8847Zm.504,3.2852a3.665,3.665,0,0,0-.3951-1.4609,2.0216,2.0216,0,0,0-1.9135-1.0157,2.1132,2.1132,0,0,0-1.6114.6992,2.6556,2.6556,0,0,0-.6894,1.7774Z"/>
    </g>
    <rect class="f" x="150" y="75" width="300" height="150"/>
    <g class="g">
      <path class="c" d="M211.5112,163.3364V131.769h-11.792v-4.2236h28.3692v4.2236H216.2475v31.5674Z"/>
      <path class="c" d="M229.4311,173.3217l-.4882-4.1259a9.8205,9.8205,0,0,0,2.5146.3906,4.8292,4.8292,0,0,0,2.3438-.4883,3.9988,3.9988,0,0,0,1.44-1.3672,21.6209,21.6209,0,0,0,1.3428-3.2715q.1215-.3661.3906-1.0742l-9.8389-25.9765h4.7363l5.3956,15.0146q1.05,2.8564,1.88,6.0059a59.0767,59.0767,0,0,1,1.8067-5.9082l5.542-15.1123h4.3945l-9.8633,26.3671a51.842,51.842,0,0,1-2.4658,5.8838,8.6905,8.6905,0,0,1-2.6855,3.1866,6.3494,6.3494,0,0,1-3.6133,1.0127A8.8148,8.8148,0,0,1,229.4311,173.3217Z"/>
      <path class="c" d="M254.6265,173.2729V137.4087H258.63v3.3691a9.8762,9.8762,0,0,1,3.1982-2.9668,8.7976,8.7976,0,0,1,4.3213-.9883,10.2508,10.2508,0,0,1,5.8594,1.709,10.49,10.49,0,0,1,3.833,4.8223,17.6062,17.6062,0,0,1,1.2939,6.8232,17.3266,17.3266,0,0,1-1.4282,7.1651,10.7617,10.7617,0,0,1-4.15,4.8828,10.6519,10.6519,0,0,1-5.7251,1.6972,8.2731,8.2731,0,0,1-3.9429-.9277,8.9651,8.9651,0,0,1-2.8686-2.3438v12.6221Zm3.9794-22.7539q0,5.0053,2.0264,7.3975a6.2112,6.2112,0,0,0,4.9072,2.3926,6.3522,6.3522,0,0,0,5.0171-2.4786q2.0874-2.4769,2.0874-7.6777,0-4.9556-2.0385-7.4219a6.14,6.14,0,0,0-4.8707-2.4658,6.3291,6.3291,0,0,0-4.9682,2.624Q258.606,145.5141,258.6059,150.519Z"/>
      <path class="c" d="M300.1831,154.9868l4.541.5615a11.0812,11.0812,0,0,1-3.98,6.1768,13.481,13.481,0,0,1-16.4429-1.3067q-3.3324-3.5024-3.3325-9.8261,0-6.5421,3.3692-10.1563a11.4061,11.4061,0,0,1,8.74-3.6133,11.0869,11.0869,0,0,1,8.4961,3.54q3.2959,3.54,3.2959,9.9609,0,.391-.0244,1.1719H285.51a9.961,9.961,0,0,0,2.417,6.5429,7.1929,7.1929,0,0,0,5.42,2.2706,6.7226,6.7226,0,0,0,4.1259-1.27A8.4259,8.4259,0,0,0,300.1831,154.9868Zm-14.4287-7.1045h14.4775a8.7877,8.7877,0,0,0-1.66-4.9072,6.7368,6.7368,0,0,0-5.4444-2.5391,6.9814,6.9814,0,0,0-5.09,2.0264A8.0218,8.0218,0,0,0,285.7544,147.8823Z"/>
      <path class="c" d="M311.2915,163.3364v-22.51H307.41v-3.4179h3.8818V134.65a12.0726,12.0726,0,0,1,.4639-3.8819,5.6231,5.6231,0,0,1,2.2338-2.7714,8.0576,8.0576,0,0,1,4.48-1.0616,21.5119,21.5119,0,0,1,4.1016.4395l-.6592,3.833a14.8143,14.8143,0,0,0-2.5879-.2442,3.8518,3.8518,0,0,0-2.832.8545,4.6316,4.6316,0,0,0-.83,3.1983v2.3926h5.0537v3.4179h-5.0537v22.51Z"/>
      <path class="c" d="M341.0522,160.1382a16.3558,16.3558,0,0,1-4.7,2.93,13.5876,13.5876,0,0,1-4.8462.8545q-4.2729,0-6.5673-2.0879a6.8856,6.8856,0,0,1-2.295-5.3339,7.0872,7.0872,0,0,1,.8667-3.4786,7.1667,7.1667,0,0,1,2.2705-2.5273,10.6871,10.6871,0,0,1,3.1617-1.44,31.4925,31.4925,0,0,1,3.9062-.6592,40.1492,40.1492,0,0,0,7.8369-1.5137q.0242-.9023.0244-1.1474,0-2.6851-1.2451-3.7842A7.3581,7.3581,0,0,0,334.46,140.46a7.757,7.757,0,0,0-4.5776,1.0869,6.6334,6.6334,0,0,0-2.1851,3.8448l-4.2968-.586a10.65,10.65,0,0,1,1.9287-4.456,8.4455,8.4455,0,0,1,3.8818-2.6114,17.2887,17.2887,0,0,1,5.8838-.916,15.5828,15.5828,0,0,1,5.3955.7813,7.1218,7.1218,0,0,1,3.0518,1.9648A6.9269,6.9269,0,0,1,344.91,142.56a24.7578,24.7578,0,0,1,.22,4.0528v5.8593a62.107,62.107,0,0,0,.2807,7.751,9.7619,9.7619,0,0,0,1.1109,3.1133h-4.59A9.3022,9.3022,0,0,1,341.0522,160.1382Zm-.3662-9.8145a32.19,32.19,0,0,1-7.1777,1.66,16.6312,16.6312,0,0,0-3.833.8789,3.8207,3.8207,0,0,0-1.7334,1.4287,3.8836,3.8836,0,0,0,.72,5.0166,5.7245,5.7245,0,0,0,3.894,1.1719,9.0669,9.0669,0,0,0,4.5166-1.11,6.8435,6.8435,0,0,0,2.9053-3.04,10.6171,10.6171,0,0,0,.708-4.3946Z"/>
      <path class="c" d="M368.86,153.8393l4.3213.5615a11.2048,11.2048,0,0,1-3.6254,6.9942,10.5584,10.5584,0,0,1-7.1656,2.5273,11.1343,11.1343,0,0,1-8.5571-3.4785q-3.2351-3.48-3.2349-9.9736a18.05,18.05,0,0,1,1.3916-7.3486,9.7066,9.7066,0,0,1,4.2359-4.7247,12.5772,12.5772,0,0,1,6.1889-1.5742,10.756,10.756,0,0,1,6.9092,2.1367,9.7974,9.7974,0,0,1,3.4424,6.0664l-4.2725.6592a7.0993,7.0993,0,0,0-2.1606-3.9306,5.5913,5.5913,0,0,0-3.7476-1.3184,6.8178,6.8178,0,0,0-5.3955,2.3809q-2.0757,2.3789-2.0752,7.5312,0,5.2251,2.002,7.5928a6.5138,6.5138,0,0,0,5.2246,2.3682,6.1553,6.1553,0,0,0,4.3213-1.587A7.8772,7.8772,0,0,0,368.86,153.8393Z"/>
      <path class="c" d="M394.69,154.9868l4.541.5615a11.0811,11.0811,0,0,1-3.9794,6.1768,13.481,13.481,0,0,1-16.4429-1.3067q-3.3326-3.5024-3.3325-9.8261,0-6.5421,3.3691-10.1563a11.4062,11.4062,0,0,1,8.74-3.6133,11.0867,11.0867,0,0,1,8.4961,3.54q3.2959,3.54,3.2959,9.9609,0,.391-.0244,1.1719H380.0171a9.96,9.96,0,0,0,2.417,6.5429,7.1927,7.1927,0,0,0,5.42,2.2706,6.7231,6.7231,0,0,0,4.126-1.27A8.4265,8.4265,0,0,0,394.69,154.9868Zm-14.4287-7.1045h14.4776a8.7885,8.7885,0,0,0-1.66-4.9072,6.7366,6.7366,0,0,0-5.4443-2.5391,6.9814,6.9814,0,0,0-5.09,2.0264A8.0218,8.0218,0,0,0,380.2612,147.8823Z"/>
    </g>
  </g>
  <g>
    <polyline class="h" points="149.959 163.336 457.959 163.336 489.536 183.151"/>
    <polyline class="h" points="149.959 179.572 457.959 179.572 489.536 216.303"/>
    <polyline class="h" points="149.959 120.428 457.959 120.428 489.537 83.696"/>
    <polyline class="h" points="149.959 137.428 457.959 137.428 489.536 116.848"/>
    <polyline class="h" points="150.041 150 458.041 150 489.536 150"/>
    <line class="i" x1="198.5473" y1="75" x2="198.5473" y2="233"/>
    <line class="i" x1="300" y1="75" x2="300" y2="233"/>
    <line class="i" x1="401.5108" y1="75" x2="401.5108" y2="233"/>
  </g>
  <g>
    <circle class="c" cx="198.5473" cy="163.3363" r="2.5"/>
    <g>
      <path class="j" d="M191.78,173.2791c-30.0187,44.7575-59.905,39.0572-59.905,39.0572"/>
      <path class="c" d="M195.0473,168.2046a30.2225,30.2225,0,0,1-8.691,4.4879l4.9133,1.1987,3.0087,4.064A30.1937,30.1937,0,0,1,195.0473,168.2046Z"/>
    </g>
    <g>
      <path class="c" d="M13.5547,207.65a2.7061,2.7061,0,0,1,.9765.9414v-4.0625H16.789v11.5H14.625v-1.18a3.1475,3.1475,0,0,1-1.086,1.1016,3.0561,3.0561,0,0,1-1.5156.3437,3.164,3.164,0,0,1-2.5117-1.207A4.6345,4.6345,0,0,1,8.4922,211.99a5.33,5.33,0,0,1,1.0039-3.43,3.2661,3.2661,0,0,1,2.6836-1.25A2.7472,2.7472,0,0,1,13.5547,207.65Zm.5468,6.0664a3.1052,3.1052,0,0,0,.4922-1.82,2.7929,2.7929,0,0,0-.789-2.2344,1.7014,1.7014,0,0,0-1.125-.4063,1.5635,1.5635,0,0,0-1.4336.7383,3.98,3.98,0,0,0,.0078,3.7188,1.5713,1.5713,0,0,0,1.41.707A1.6443,1.6443,0,0,0,14.1015,213.7163Z"/>
      <path class="c" d="M24.3613,207.6855a3.4614,3.4614,0,0,1,1.4717,1.26,4.1894,4.1894,0,0,1,.6787,1.7607,10.9518,10.9518,0,0,1,.0732,1.69H20.3828a2.0429,2.0429,0,0,0,.8906,1.7968,2.2578,2.2578,0,0,0,1.2276.32,1.7286,1.7286,0,0,0,1.6943-.9766h2.2734a2.7813,2.7813,0,0,1-.8252,1.5391,4.1393,4.1393,0,0,1-3.2041,1.2421A4.6442,4.6442,0,0,1,19.44,215.27a4.128,4.128,0,0,1-1.2993-3.4092,4.612,4.612,0,0,1,1.1729-3.3935,4.1058,4.1058,0,0,1,3.0454-1.1807A4.844,4.844,0,0,1,24.3613,207.6855Zm-3.3306,1.9234a2.3142,2.3142,0,0,0-.5932,1.3183h3.8359a1.859,1.859,0,0,0-.5932-1.3457,1.9525,1.9525,0,0,0-1.32-.459A1.7655,1.7655,0,0,0,21.0307,209.6089Z"/>
      <path class="c" d="M31.2344,204.4077q.1713.0117.4687.0351v1.8125q-.1875-.0234-.6289-.0351a.7245.7245,0,0,0-.6094.1953.7074.7074,0,0,0-.1679.457v.7188h1.4609v1.57H30.2969v6.8672h-2.211v-6.8672h-1.25v-1.57h1.2188v-.5469a2.876,2.876,0,0,1,.4609-1.8828q.4842-.7655,2.3359-.7656C30.9922,204.396,31.12,204.4,31.2344,204.4077Z"/>
      <path class="c" d="M36.4121,210.8491a3.5189,3.5189,0,0,0,.8892-.1953.67.67,0,0,0,.48-.6328.7491.7491,0,0,0-.3681-.7227,2.3287,2.3287,0,0,0-1.0811-.1992A1.42,1.42,0,0,0,35.2,209.49a1.6085,1.6085,0,0,0-.3169.7813H32.7344a3.2564,3.2564,0,0,1,.6279-1.836,3.6584,3.6584,0,0,1,3.0439-1.125,5.43,5.43,0,0,1,2.4952.5547,2.1273,2.1273,0,0,1,1.0908,2.0938v3.9062q0,.4057.0156.9844a1.2339,1.2339,0,0,0,.1328.5937.7913.7913,0,0,0,.3281.2579v.3281H38.0469a2.4514,2.4514,0,0,1-.1407-.4844c-.0263-.1514-.0468-.3232-.0625-.5156a4.6037,4.6037,0,0,1-1.0688.8515,3.2358,3.2358,0,0,1-1.6343.4141,2.8232,2.8232,0,0,1-1.9214-.66,2.3483,2.3483,0,0,1-.7583-1.871,2.425,2.425,0,0,1,1.22-2.2735,5.4557,5.4557,0,0,1,1.9677-.5469Zm1.3613,1.0391a2.4568,2.4568,0,0,1-.4316.2148,3.6517,3.6517,0,0,1-.5982.1523l-.5068.0938a3.3169,3.3169,0,0,0-1.0234.3047,1.0172,1.0172,0,0,0-.5259.9453.987.987,0,0,0,.3213.8242,1.2218,1.2218,0,0,0,.7812.2539,2.3274,2.3274,0,0,0,1.3448-.4219,1.7863,1.7863,0,0,0,.6386-1.539Z"/>
      <path class="c" d="M44.1562,207.5132v5.1328a2.7056,2.7056,0,0,0,.1709,1.0937,1.1825,1.1825,0,0,0,1.1895.6485,1.5542,1.5542,0,0,0,1.5547-.9219,3.353,3.353,0,0,0,.2177-1.32v-4.6328h2.2579v8.5156H47.3828v-1.2031c-.0205.0263-.0728.1044-.1558.2343a1.5643,1.5643,0,0,1-.2959.3438,3.087,3.087,0,0,1-1.0092.6406,3.4354,3.4354,0,0,1-1.1412.1719,2.5422,2.5422,0,0,1-2.54-1.3594,5.2154,5.2154,0,0,1-.3662-2.2109v-5.1328Z"/>
      <path class="c" d="M53.9844,216.0288H51.7578V204.5132h2.2266Z"/>
      <path class="c" d="M55.2812,209.1772v-1.5859h1.1875v-2.375h2.2032v2.375h1.3828v1.5859H58.6719v4.5a1.0122,1.0122,0,0,0,.1328.6524,1.4623,1.4623,0,0,0,.8125.1289c.0674,0,.1391-.001.2148-.0039s.1494-.0069.2227-.0118v1.6641L59,216.146a2.83,2.83,0,0,1-2.1563-.5469,1.6277,1.6277,0,0,1-.375-1.18v-5.2422Z"/>
      <path class="c" d="M73.0908,208.4272a4.538,4.538,0,0,1,1.042,3.2344,5.105,5.105,0,0,1-1.0186,3.43,3.3057,3.3057,0,0,1-2.622,1.18,2.7528,2.7528,0,0,1-1.6983-.5078,3.275,3.275,0,0,1-.7236-.82V219.38H65.8672V207.5132H68v1.2578a3.5914,3.5914,0,0,1,.77-.875,2.845,2.845,0,0,1,1.7768-.57A3.3664,3.3664,0,0,1,73.0908,208.4272Zm-1.709,1.6016a1.5839,1.5839,0,0,0-1.4717-.7578,1.6743,1.6743,0,0,0-1.6811,1.1484,4.319,4.319,0,0,0-.2368,1.5469,2.4568,2.4568,0,0,0,.7964,2.0859,1.8287,1.8287,0,0,0,1.1211.3516,1.63,1.63,0,0,0,1.4331-.7188,3.7644,3.7644,0,0,0,.039-3.6562Z"/>
      <path class="c" d="M82.8047,214.9868a4.6908,4.6908,0,0,1-6.5469,0,5.2829,5.2829,0,0,1,0-6.3965,4.6422,4.6422,0,0,1,6.5469,0,5.2829,5.2829,0,0,1,0,6.3965Zm-1.7813-1.23a3.9746,3.9746,0,0,0,0-3.9433,1.9787,1.9787,0,0,0-3.0039,0,3.95,3.95,0,0,0,0,3.9433,1.9715,1.9715,0,0,0,3.0039,0Z"/>
      <path class="c" d="M87.2031,213.31a1.4848,1.4848,0,0,0,.3062.8438,2.0755,2.0755,0,0,0,1.5385.4453,2.3585,2.3585,0,0,0,1.0479-.1953.6249.6249,0,0,0,.3887-.586.6315.6315,0,0,0-.313-.57,12.7675,12.7675,0,0,0-2.33-.6718,4.834,4.834,0,0,1-2.0449-.8985,1.9465,1.9465,0,0,1-.5938-1.5312,2.6542,2.6542,0,0,1,.9277-2.0274,3.7329,3.7329,0,0,1,2.6114-.8476,4.8,4.8,0,0,1,2.603.6367A2.7272,2.7272,0,0,1,92.5,210.1069H90.2734a1.3175,1.3175,0,0,0-.2427-.68,1.5319,1.5319,0,0,0-1.2534-.4531,1.8058,1.8058,0,0,0-1.0381.2266.6516.6516,0,0,0-.3095.5312.58.58,0,0,0,.3291.5547,14.2,14.2,0,0,0,2.3247.6172,4.2653,4.2653,0,0,1,1.9946.9453,2.1456,2.1456,0,0,1,.6563,1.6016,2.5862,2.5862,0,0,1-.9434,2.0664,5.6692,5.6692,0,0,1-5.8867-.0469,2.7546,2.7546,0,0,1-.959-2.16Z"/>
      <path class="c" d="M96.664,206.4975H94.4062v-2.0547H96.664Zm-2.2578,1.0157H96.664v8.5156H94.4062Z"/>
      <path class="c" d="M97.9453,209.1772v-1.5859h1.1875v-2.375h2.2031v2.375h1.3828v1.5859h-1.3828v4.5a1.0129,1.0129,0,0,0,.1328.6524,1.4625,1.4625,0,0,0,.8125.1289c.0674,0,.1392-.001.2149-.0039s.1494-.0069.2226-.0118v1.6641l-1.0547.0391a2.83,2.83,0,0,1-2.1562-.5469,1.6277,1.6277,0,0,1-.375-1.18v-5.2422Z"/>
      <path class="c" d="M106.4375,206.4975H104.18v-2.0547h2.2578Zm-2.2578,1.0157h2.2578v8.5156H104.18Z"/>
      <path class="c" d="M115.6953,214.9868a4.6908,4.6908,0,0,1-6.5469,0,5.2829,5.2829,0,0,1,0-6.3965,4.6422,4.6422,0,0,1,6.5469,0,5.2829,5.2829,0,0,1,0,6.3965Zm-1.7813-1.23a3.9746,3.9746,0,0,0,0-3.9433,1.9787,1.9787,0,0,0-3.0039,0,3.95,3.95,0,0,0,0,3.9433,1.9715,1.9715,0,0,0,3.0039,0Z"/>
      <path class="c" d="M125.2339,208.0014a2.8182,2.8182,0,0,1,.8364,2.293v5.7344H123.789v-5.18a2.3836,2.3836,0,0,0-.1782-1.0313,1.2528,1.2528,0,0,0-1.2407-.6562,1.5378,1.5378,0,0,0-1.5435.9609,3.32,3.32,0,0,0-.2172,1.2969v4.6094h-2.2266v-8.5h2.1562v1.2422a3.77,3.77,0,0,1,.8091-.9453,2.8036,2.8036,0,0,1,1.7349-.5157A3.264,3.264,0,0,1,125.2339,208.0014Z"/>
    </g>
  </g>
</svg>
