<?xml version="1.0" encoding="UTF-8"?>
<svg xmlns="http://www.w3.org/2000/svg" width="600" height="300" viewBox="0 0 600 300" style="display: block; margin:auto; max-width:100%">
    <defs>
        <style>
            .uuid-d80fe32d-89d5-4719-b7b2-2f8b135cd303{opacity:.5;}.uuid-d80fe32d-89d5-4719-b7b2-2f8b135cd303,.uuid-8a5e4648-cffa-44fc-aec5-607bef203879{stroke:var(--font-color);}.uuid-d80fe32d-89d5-4719-b7b2-2f8b135cd303,.uuid-8a5e4648-cffa-44fc-aec5-607bef203879,.uuid-12844e9d-beef-4cf8-b6e5-fc5967791749,.uuid-e0396fc5-3070-4b3d-aa49-b4adf61239f7{fill:none;stroke-miterlimit:10;}.uuid-a0953083-b2d5-45f9-812c-5f8aafd61b7a{fill:var(--background-lighter);}.uuid-362eaf71-9752-4f90-852c-b925cc90667c{fill:var(--font-color);}.uuid-f07e733c-5589-45f7-bbba-6e33c070e677{fill:#485bfc;}.uuid-0303eedf-aaa2-4c8b-acd7-3e052343faf1{fill:#4bb77e;}.uuid-12844e9d-beef-4cf8-b6e5-fc5967791749{stroke:#4bb77e;}.uuid-12844e9d-beef-4cf8-b6e5-fc5967791749,.uuid-e0396fc5-3070-4b3d-aa49-b4adf61239f7{opacity:.8;}.uuid-e0396fc5-3070-4b3d-aa49-b4adf61239f7{stroke:#485bfc;}.uuid-caa387fc-7f30-4ac8-a043-46ee0b2235f1,.uuid-2fbee630-b89b-45a2-865c-5f9153bdf032{isolation:isolate;}.uuid-2fbee630-b89b-45a2-865c-5f9153bdf032{opacity:.333;}</style>
    </defs>
    <g id="uuid-4de9d203-b945-4f83-9e1c-edad67d76437">
        <g class="uuid-caa387fc-7f30-4ac8-a043-46ee0b2235f1">
            <path class="uuid-a0953083-b2d5-45f9-812c-5f8aafd61b7a"
                d="m211.511,163.336v-31.567h-11.792v-4.224h28.369v4.224h-11.841v31.567h-4.736Z" />
            <path class="uuid-a0953083-b2d5-45f9-812c-5f8aafd61b7a"
                d="m229.431,173.322l-.488-4.126c.96.26,1.798.391,2.515.391.977,0,1.758-.163,2.344-.488.586-.326,1.066-.781,1.44-1.367.276-.439.724-1.53,1.343-3.271.081-.244.211-.603.391-1.074l-9.839-25.977h4.736l5.396,15.015c.7,1.904,1.326,3.906,1.88,6.006.504-2.018,1.106-3.987,1.807-5.908l5.542-15.112h4.395l-9.863,26.367c-1.058,2.848-1.88,4.81-2.466,5.884-.781,1.448-1.677,2.511-2.686,3.187-1.009.675-2.214,1.013-3.613,1.013-.847,0-1.791-.18-2.832-.537Z" />
            <path class="uuid-a0953083-b2d5-45f9-812c-5f8aafd61b7a"
                d="m254.626,173.273v-35.864h4.004v3.369c.944-1.318,2.01-2.307,3.198-2.967,1.188-.658,2.628-.988,4.321-.988,2.213,0,4.167.57,5.859,1.709,1.692,1.14,2.97,2.746,3.833,4.822.862,2.074,1.294,4.35,1.294,6.823,0,2.653-.476,5.042-1.428,7.165-.952,2.125-2.336,3.752-4.15,4.883-1.815,1.132-3.723,1.697-5.725,1.697-1.465,0-2.779-.31-3.943-.928-1.164-.618-2.12-1.399-2.869-2.344v12.622h-4.395Zm3.979-22.754c0,3.337.675,5.803,2.026,7.397,1.351,1.596,2.986,2.393,4.907,2.393,1.953,0,3.625-.826,5.017-2.479,1.392-1.651,2.087-4.211,2.087-7.678,0-3.304-.68-5.777-2.039-7.422-1.359-1.644-2.983-2.466-4.871-2.466-1.872,0-3.528.875-4.968,2.624-1.44,1.75-2.161,4.294-2.161,7.63Z" />
            <path class="uuid-a0953083-b2d5-45f9-812c-5f8aafd61b7a"
                d="m300.183,154.987l4.541.562c-.716,2.653-2.043,4.712-3.979,6.177-1.937,1.465-4.411,2.197-7.422,2.197-3.792,0-6.799-1.168-9.021-3.504-2.222-2.335-3.333-5.61-3.333-9.826,0-4.361,1.123-7.747,3.369-10.156,2.246-2.408,5.159-3.613,8.74-3.613,3.467,0,6.299,1.181,8.496,3.54,2.197,2.36,3.296,5.681,3.296,9.961,0,.261-.008.651-.024,1.172h-19.336c.163,2.849.968,5.029,2.417,6.543,1.448,1.514,3.255,2.271,5.42,2.271,1.611,0,2.986-.423,4.126-1.27,1.139-.846,2.042-2.197,2.71-4.053Zm-14.429-7.104h14.478c-.195-2.181-.749-3.816-1.66-4.907-1.4-1.692-3.215-2.539-5.444-2.539-2.019,0-3.715.676-5.09,2.026-1.375,1.352-2.136,3.158-2.283,5.42Z" />
            <path class="uuid-a0953083-b2d5-45f9-812c-5f8aafd61b7a"
                d="m311.291,163.336v-22.51h-3.882v-3.418h3.882v-2.759c0-1.741.154-3.035.464-3.882.423-1.139,1.167-2.062,2.234-2.771,1.066-.707,2.559-1.062,4.48-1.062,1.237,0,2.604.146,4.102.439l-.659,3.833c-.912-.162-1.774-.244-2.588-.244-1.335,0-2.279.285-2.832.854-.554.57-.83,1.636-.83,3.198v2.393h5.054v3.418h-5.054v22.51h-4.37Z" />
            <path class="uuid-a0953083-b2d5-45f9-812c-5f8aafd61b7a"
                d="m341.052,160.138c-1.628,1.384-3.194,2.36-4.7,2.93-1.506.569-3.121.854-4.846.854-2.849,0-5.038-.695-6.567-2.088-1.53-1.391-2.295-3.169-2.295-5.334,0-1.27.289-2.43.867-3.479.578-1.051,1.334-1.893,2.271-2.527.936-.635,1.99-1.114,3.162-1.44.862-.228,2.165-.447,3.906-.659,3.548-.423,6.16-.928,7.837-1.514.016-.602.024-.984.024-1.147,0-1.79-.415-3.052-1.245-3.784-1.123-.992-2.792-1.489-5.005-1.489-2.067,0-3.593.362-4.578,1.087-.985.724-1.713,2.006-2.185,3.845l-4.297-.586c.391-1.839,1.033-3.324,1.929-4.456.895-1.131,2.189-2.002,3.882-2.611,1.692-.611,3.654-.916,5.884-.916,2.213,0,4.012.261,5.396.781,1.383.521,2.4,1.176,3.052,1.965.651.79,1.106,1.787,1.367,2.991.146.749.22,2.1.22,4.053v5.859c0,4.086.093,6.669.281,7.751.187,1.083.557,2.121,1.111,3.113h-4.59c-.456-.911-.749-1.978-.879-3.198Zm-.366-9.814c-1.595.651-3.988,1.205-7.178,1.66-1.807.261-3.084.554-3.833.879-.749.326-1.327.802-1.733,1.429-.407.626-.61,1.322-.61,2.087,0,1.172.443,2.148,1.331,2.93.887.781,2.185,1.172,3.894,1.172,1.692,0,3.198-.37,4.517-1.11,1.318-.741,2.287-1.754,2.905-3.04.472-.992.708-2.457.708-4.395v-1.611Z" />
            <path class="uuid-a0953083-b2d5-45f9-812c-5f8aafd61b7a"
                d="m368.86,153.839l4.321.562c-.472,2.979-1.681,5.311-3.625,6.994-1.945,1.686-4.333,2.527-7.166,2.527-3.548,0-6.401-1.16-8.557-3.479-2.157-2.32-3.235-5.644-3.235-9.974,0-2.799.464-5.249,1.392-7.349s2.339-3.674,4.236-4.725c1.896-1.049,3.959-1.574,6.189-1.574,2.815,0,5.119.712,6.909,2.137,1.79,1.424,2.938,3.446,3.442,6.066l-4.272.659c-.407-1.741-1.127-3.052-2.161-3.931-1.034-.879-2.283-1.318-3.748-1.318-2.214,0-4.012.793-5.396,2.381-1.384,1.586-2.075,4.098-2.075,7.531,0,3.483.667,6.015,2.002,7.593,1.334,1.579,3.076,2.368,5.225,2.368,1.725,0,3.166-.528,4.321-1.587,1.155-1.058,1.888-2.686,2.197-4.883Z" />
            <path class="uuid-a0953083-b2d5-45f9-812c-5f8aafd61b7a"
                d="m394.69,154.987l4.541.562c-.716,2.653-2.043,4.712-3.979,6.177-1.937,1.465-4.411,2.197-7.422,2.197-3.792,0-6.799-1.168-9.021-3.504-2.222-2.335-3.333-5.61-3.333-9.826,0-4.361,1.123-7.747,3.369-10.156,2.246-2.408,5.159-3.613,8.74-3.613,3.467,0,6.299,1.181,8.496,3.54,2.197,2.36,3.296,5.681,3.296,9.961,0,.261-.008.651-.024,1.172h-19.336c.163,2.849.968,5.029,2.417,6.543,1.448,1.514,3.255,2.271,5.42,2.271,1.611,0,2.986-.423,4.126-1.27,1.139-.846,2.042-2.197,2.71-4.053Zm-14.429-7.104h14.478c-.195-2.181-.749-3.816-1.66-4.907-1.4-1.692-3.215-2.539-5.444-2.539-2.019,0-3.715.676-5.09,2.026-1.375,1.352-2.136,3.158-2.283,5.42Z" />
        </g>
        <g>
            <path class="uuid-362eaf71-9752-4f90-852c-b925cc90667c"
                d="m190.326,244.906c.667.427,1.049,1.161,1.148,2.203h-2.227c-.031-.286-.112-.513-.242-.68-.245-.302-.662-.453-1.25-.453-.484,0-.83.075-1.035.227-.206.151-.309.328-.309.531,0,.255.109.44.328.555.219.12.992.325,2.32.617.885.208,1.549.523,1.992.945.438.427.656.961.656,1.602,0,.844-.314,1.532-.941,2.066-.628.534-1.598.801-2.91.801-1.339,0-2.327-.282-2.965-.848-.638-.565-.957-1.285-.957-2.16h2.258c.047.396.148.677.305.844.276.297.786.445,1.531.445.438,0,.785-.065,1.043-.195s.387-.325.387-.586c0-.25-.104-.44-.312-.57-.208-.13-.982-.354-2.32-.672-.964-.239-1.644-.539-2.039-.898-.396-.354-.594-.864-.594-1.531,0-.786.309-1.462.926-2.027s1.485-.848,2.605-.848c1.062,0,1.93.211,2.602.633Z" />
            <path class="uuid-362eaf71-9752-4f90-852c-b925cc90667c"
                d="m197.255,251.445v1.664l-1.055.039c-1.052.036-1.771-.146-2.156-.547-.25-.255-.375-.648-.375-1.18v-5.242h-1.188v-1.586h1.188v-2.375h2.203v2.375h1.383v1.586h-1.383v4.5c0,.349.044.566.133.652.088.086.359.129.812.129.067,0,.139,0,.215-.004.075-.003.149-.007.223-.012Z" />
            <path class="uuid-362eaf71-9752-4f90-852c-b925cc90667c"
                d="m199.005,245.437c.588-.75,1.599-1.125,3.031-1.125.932,0,1.76.185,2.484.555.724.37,1.086,1.067,1.086,2.094v3.906c0,.271.005.599.016.984.016.292.06.489.133.594.073.104.182.19.328.258v.328h-2.422c-.068-.172-.115-.333-.141-.484-.026-.151-.047-.323-.062-.516-.308.333-.662.617-1.062.852-.479.276-1.021.414-1.625.414-.771,0-1.408-.22-1.91-.66-.503-.44-.754-1.063-.754-1.871,0-1.047.403-1.805,1.211-2.273.442-.255,1.094-.438,1.953-.547l.758-.094c.411-.052.706-.117.883-.195.317-.136.477-.347.477-.633,0-.349-.121-.59-.363-.723s-.598-.199-1.066-.199c-.526,0-.898.13-1.117.391-.156.192-.261.453-.312.781h-2.148c.047-.745.255-1.356.625-1.836Zm1.656,5.984c.208.172.463.258.766.258.479,0,.92-.141,1.324-.422.403-.281.613-.794.629-1.539v-.828c-.141.089-.283.16-.426.215-.144.055-.34.105-.59.152l-.5.094c-.469.083-.805.185-1.008.305-.344.203-.516.519-.516.945,0,.38.106.653.32.82Z" />
            <path class="uuid-362eaf71-9752-4f90-852c-b925cc90667c"
                d="m211.865,246.57c-.896,0-1.498.292-1.805.875-.172.328-.258.833-.258,1.516v4.07h-2.242v-8.516h2.125v1.484c.344-.567.643-.956.898-1.164.417-.349.958-.523,1.625-.523.042,0,.077,0,.105.004.028.003.092.007.191.012v2.281c-.141-.016-.266-.026-.375-.031s-.198-.008-.266-.008Z" />
            <path class="uuid-362eaf71-9752-4f90-852c-b925cc90667c"
                d="m217.708,251.445v1.664l-1.055.039c-1.052.036-1.771-.146-2.156-.547-.25-.255-.375-.648-.375-1.18v-5.242h-1.188v-1.586h1.188v-2.375h2.203v2.375h1.383v1.586h-1.383v4.5c0,.349.044.566.133.652.088.086.359.129.812.129.067,0,.139,0,.215-.004.075-.003.149-.007.223-.012Z" />
        </g>
        <g>
            <path class="uuid-362eaf71-9752-4f90-852c-b925cc90667c"
                d="m498.896,179.58c.588-.75,1.599-1.125,3.031-1.125.932,0,1.76.185,2.484.555.724.37,1.086,1.067,1.086,2.094v3.906c0,.271.005.599.016.984.016.292.06.489.133.594.072.104.182.19.328.258v.328h-2.422c-.068-.172-.115-.333-.141-.484-.026-.151-.047-.323-.062-.516-.308.333-.662.617-1.062.852-.479.276-1.021.414-1.625.414-.771,0-1.408-.22-1.91-.66-.503-.44-.754-1.063-.754-1.871,0-1.047.403-1.805,1.211-2.273.442-.255,1.094-.438,1.953-.547l.758-.094c.411-.052.705-.117.883-.195.317-.136.477-.347.477-.633,0-.349-.121-.59-.363-.723s-.598-.199-1.066-.199c-.526,0-.898.13-1.117.391-.156.192-.261.453-.312.781h-2.148c.047-.745.255-1.356.625-1.836Zm1.656,5.984c.208.172.463.258.766.258.479,0,.92-.141,1.324-.422.403-.281.613-.794.629-1.539v-.828c-.141.089-.283.16-.426.215-.144.055-.34.105-.59.152l-.5.094c-.469.083-.805.185-1.008.305-.344.203-.516.519-.516.945,0,.38.106.653.32.82Z" />
            <path class="uuid-362eaf71-9752-4f90-852c-b925cc90667c"
                d="m512.935,185.97c-.021.026-.073.104-.156.234-.084.13-.183.245-.297.344-.35.312-.687.526-1.012.641-.326.114-.707.172-1.145.172-1.261,0-2.109-.453-2.547-1.359-.245-.5-.367-1.237-.367-2.211v-5.133h2.281v5.133c0,.484.057.849.172,1.094.203.433.602.648,1.195.648.76,0,1.281-.308,1.562-.922.146-.333.219-.773.219-1.32v-4.633h2.258v8.516h-2.164v-1.203Z" />
            <path class="uuid-362eaf71-9752-4f90-852c-b925cc90667c"
                d="m521.146,185.587v1.664l-1.055.039c-1.053.036-1.771-.146-2.156-.547-.25-.255-.375-.648-.375-1.18v-5.242h-1.188v-1.586h1.188v-2.375h2.203v2.375h1.383v1.586h-1.383v4.5c0,.349.044.566.133.652.088.086.359.129.812.129.067,0,.139,0,.215-.004.075-.003.149-.007.223-.012Z" />
            <path class="uuid-362eaf71-9752-4f90-852c-b925cc90667c"
                d="m529.677,179.736c.719.901,1.078,1.966,1.078,3.195,0,1.25-.359,2.319-1.078,3.207s-1.811,1.332-3.273,1.332-2.555-.444-3.273-1.332-1.078-1.957-1.078-3.207c0-1.229.359-2.294,1.078-3.195s1.81-1.352,3.273-1.352,2.555.45,3.273,1.352Zm-3.281.531c-.651,0-1.152.23-1.504.691s-.527,1.118-.527,1.973.176,1.513.527,1.977.853.695,1.504.695,1.15-.231,1.5-.695c.349-.464.523-1.122.523-1.977s-.175-1.512-.523-1.973c-.35-.461-.85-.691-1.5-.691Z" />
        </g>
        <g>
            <path class="uuid-362eaf71-9752-4f90-852c-b925cc90667c"
                d="m498.568,144.654h1.391v1.188c.333-.411.635-.711.906-.898.463-.317.989-.477,1.578-.477.666,0,1.203.164,1.609.492.229.188.438.464.625.828.312-.448.68-.78,1.102-.996s.896-.324,1.422-.324c1.125,0,1.891.406,2.297,1.219.219.438.328,1.026.328,1.766v5.57h-1.461v-5.812c0-.558-.14-.94-.418-1.148-.279-.208-.619-.312-1.02-.312-.553,0-1.027.185-1.426.555s-.598.987-.598,1.852v4.867h-1.43v-5.461c0-.567-.068-.981-.203-1.242-.214-.391-.612-.586-1.195-.586-.531,0-1.015.206-1.449.617-.436.411-.652,1.156-.652,2.234v4.438h-1.406v-8.367Z" />
            <path class="uuid-362eaf71-9752-4f90-852c-b925cc90667c"
                d="m511.896,141.545h1.43v1.594h-1.43v-1.594Zm0,3.148h1.43v8.328h-1.43v-8.328Z" />
            <path class="uuid-362eaf71-9752-4f90-852c-b925cc90667c"
                d="m520.047,144.912c.249.156.532.43.849.82v-4.227h1.352v11.516h-1.266v-1.164c-.327.516-.714.888-1.16,1.117s-.957.344-1.533.344c-.929,0-1.732-.392-2.412-1.176s-1.02-1.827-1.02-3.129c0-1.219.31-2.274.93-3.168s1.506-1.34,2.658-1.34c.638,0,1.172.136,1.603.406Zm-3.139,6.273c.378.604.984.906,1.818.906.648,0,1.181-.28,1.598-.84s.626-1.363.626-2.41c0-1.058-.215-1.84-.646-2.348-.43-.508-.961-.762-1.594-.762-.704,0-1.275.271-1.714.812-.438.542-.656,1.339-.656,2.391,0,.896.188,1.646.567,2.25Z" />
            <path class="uuid-362eaf71-9752-4f90-852c-b925cc90667c"
                d="m528.946,144.912c.249.156.532.43.849.82v-4.227h1.352v11.516h-1.266v-1.164c-.327.516-.714.888-1.16,1.117s-.957.344-1.533.344c-.929,0-1.732-.392-2.412-1.176s-1.02-1.827-1.02-3.129c0-1.219.31-2.274.93-3.168s1.506-1.34,2.658-1.34c.638,0,1.172.136,1.603.406Zm-3.139,6.273c.378.604.984.906,1.818.906.648,0,1.181-.28,1.598-.84s.626-1.363.626-2.41c0-1.058-.215-1.84-.646-2.348-.43-.508-.961-.762-1.594-.762-.704,0-1.275.271-1.714.812-.438.542-.656,1.339-.656,2.391,0,.896.188,1.646.567,2.25Z" />
            <path class="uuid-362eaf71-9752-4f90-852c-b925cc90667c"
                d="m533.287,141.545h1.406v11.477h-1.406v-11.477Z" />
            <path class="uuid-362eaf71-9752-4f90-852c-b925cc90667c"
                d="m541.97,144.885c.554.278.976.64,1.266,1.082.279.422.466.914.56,1.477.082.386.124,1,.124,1.844h-6.086c.025.852.225,1.534.597,2.049s.948.771,1.729.771c.729,0,1.311-.243,1.744-.729.243-.283.415-.61.517-.981h1.383c-.037.308-.158.649-.363,1.027-.206.378-.436.687-.688.926-.424.417-.949.698-1.574.844-.336.083-.716.125-1.14.125-1.035,0-1.912-.379-2.632-1.137s-1.079-1.819-1.079-3.184c0-1.344.362-2.435,1.087-3.273s1.672-1.258,2.842-1.258c.59,0,1.162.14,1.716.418Zm.504,3.285c-.057-.609-.188-1.097-.396-1.461-.382-.677-1.02-1.016-1.913-1.016-.641,0-1.178.233-1.611.699s-.664,1.059-.689,1.777h4.609Z" />
        </g>
        <g>
            <path class="uuid-362eaf71-9752-4f90-852c-b925cc90667c"
                d="m498.568,110.503h1.391v1.188c.333-.411.635-.711.906-.898.463-.317.989-.477,1.578-.477.666,0,1.203.164,1.609.492.229.188.438.464.625.828.312-.448.68-.78,1.102-.996s.896-.324,1.422-.324c1.125,0,1.891.406,2.297,1.219.219.438.328,1.026.328,1.766v5.57h-1.461v-5.812c0-.558-.14-.94-.418-1.148-.279-.208-.619-.312-1.02-.312-.553,0-1.027.185-1.426.555s-.598.987-.598,1.852v4.867h-1.43v-5.461c0-.567-.068-.981-.203-1.242-.214-.391-.612-.586-1.195-.586-.531,0-1.015.206-1.449.617-.436.411-.652,1.156-.652,2.234v4.438h-1.406v-8.367Z" />
            <path class="uuid-362eaf71-9752-4f90-852c-b925cc90667c"
                d="m516.38,113.807c.323-.042.539-.177.648-.405.062-.126.094-.307.094-.542,0-.48-.171-.829-.511-1.047-.341-.217-.828-.325-1.462-.325-.733,0-1.253.199-1.56.597-.172.22-.283.547-.335.981h-1.312c.025-1.034.36-1.754,1.003-2.158.642-.405,1.388-.607,2.235-.607.983,0,1.781.188,2.396.562.608.375.913.958.913,1.75v4.82c0,.146.029.264.09.352.06.089.186.133.379.133.062,0,.133-.004.211-.012s.161-.02.25-.035v1.039c-.219.062-.386.102-.5.117-.115.016-.271.023-.469.023-.484,0-.836-.172-1.055-.516-.115-.182-.195-.439-.242-.773-.287.375-.698.701-1.234.977-.537.276-1.128.414-1.773.414-.776,0-1.41-.235-1.902-.706s-.738-1.06-.738-1.768c0-.774.242-1.376.727-1.802.484-.427,1.119-.689,1.906-.789l2.242-.28Zm-2.961,3.799c.297.233.648.351,1.055.351.494,0,.974-.114,1.438-.343.781-.38,1.172-1.001,1.172-1.864v-1.131c-.172.109-.393.201-.663.273-.271.073-.535.126-.795.157l-.85.108c-.51.068-.893.175-1.149.32-.436.244-.652.634-.652,1.169,0,.405.148.725.445.959Z" />
            <path class="uuid-362eaf71-9752-4f90-852c-b925cc90667c"
                d="m521.076,108.167h1.422v2.336h1.336v1.148h-1.336v5.461c0,.292.099.487.297.586.109.058.291.086.547.086.067,0,.141-.002.219-.005.078-.004.169-.013.273-.026v1.117c-.162.047-.33.081-.504.102-.175.021-.363.031-.566.031-.656,0-1.102-.168-1.336-.504s-.352-.772-.352-1.309v-5.539h-1.133v-1.148h1.133v-2.336Z" />
            <path class="uuid-362eaf71-9752-4f90-852c-b925cc90667c"
                d="m525.24,107.354h1.406v4.281c.333-.422.633-.719.898-.891.453-.297,1.018-.445,1.695-.445,1.213,0,2.036.425,2.469,1.273.234.464.352,1.106.352,1.93v5.367h-1.445v-5.273c0-.614-.078-1.065-.234-1.352-.256-.458-.734-.688-1.438-.688-.584,0-1.112.2-1.586.602-.475.401-.711,1.159-.711,2.273v4.438h-1.406v-11.516Z" />
            <path class="uuid-362eaf71-9752-4f90-852c-b925cc90667c"
                d="m539.306,110.733c.554.278.976.64,1.266,1.082.279.422.466.914.56,1.477.082.386.124,1,.124,1.844h-6.086c.025.852.225,1.534.597,2.049s.948.771,1.729.771c.729,0,1.311-.243,1.744-.729.243-.283.415-.61.517-.981h1.383c-.037.308-.158.649-.363,1.027-.206.378-.436.687-.688.926-.424.417-.949.698-1.574.844-.336.083-.716.125-1.14.125-1.035,0-1.912-.379-2.632-1.137s-1.079-1.819-1.079-3.184c0-1.344.362-2.435,1.087-3.273s1.672-1.258,2.842-1.258c.59,0,1.162.14,1.716.418Zm.504,3.285c-.057-.609-.188-1.097-.396-1.461-.382-.677-1.02-1.016-1.913-1.016-.641,0-1.178.233-1.611.699s-.664,1.059-.689,1.777h4.609Z" />
            <path class="uuid-362eaf71-9752-4f90-852c-b925cc90667c"
                d="m543.037,110.503h1.391v1.188c.333-.411.635-.711.906-.898.463-.317.989-.477,1.578-.477.666,0,1.203.164,1.609.492.229.188.438.464.625.828.312-.448.68-.78,1.102-.996s.896-.324,1.422-.324c1.125,0,1.891.406,2.297,1.219.219.438.328,1.026.328,1.766v5.57h-1.461v-5.812c0-.558-.14-.94-.418-1.148-.279-.208-.619-.312-1.02-.312-.553,0-1.027.185-1.426.555s-.598.987-.598,1.852v4.867h-1.43v-5.461c0-.567-.068-.981-.203-1.242-.214-.391-.612-.586-1.195-.586-.531,0-1.015.206-1.449.617-.436.411-.652,1.156-.652,2.234v4.438h-1.406v-8.367Z" />
            <path class="uuid-362eaf71-9752-4f90-852c-b925cc90667c"
                d="m560.849,113.807c.323-.042.539-.177.648-.405.062-.126.094-.307.094-.542,0-.48-.171-.829-.511-1.047-.341-.217-.828-.325-1.462-.325-.733,0-1.253.199-1.56.597-.172.22-.283.547-.335.981h-1.312c.025-1.034.36-1.754,1.003-2.158.642-.405,1.388-.607,2.235-.607.983,0,1.781.188,2.396.562.608.375.913.958.913,1.75v4.82c0,.146.029.264.09.352.06.089.186.133.379.133.062,0,.133-.004.211-.012s.161-.02.25-.035v1.039c-.219.062-.386.102-.5.117-.115.016-.271.023-.469.023-.484,0-.836-.172-1.055-.516-.115-.182-.195-.439-.242-.773-.287.375-.698.701-1.234.977-.537.276-1.128.414-1.773.414-.776,0-1.41-.235-1.902-.706s-.738-1.06-.738-1.768c0-.774.242-1.376.727-1.802.484-.427,1.119-.689,1.906-.789l2.242-.28Zm-2.961,3.799c.297.233.648.351,1.055.351.494,0,.974-.114,1.438-.343.781-.38,1.172-1.001,1.172-1.864v-1.131c-.172.109-.393.201-.663.273-.271.073-.535.126-.795.157l-.85.108c-.51.068-.893.175-1.149.32-.436.244-.652.634-.652,1.169,0,.405.148.725.445.959Z" />
            <path class="uuid-362eaf71-9752-4f90-852c-b925cc90667c"
                d="m565.544,108.167h1.422v2.336h1.336v1.148h-1.336v5.461c0,.292.099.487.297.586.109.058.291.086.547.086.067,0,.141-.002.219-.005.078-.004.169-.013.273-.026v1.117c-.162.047-.33.081-.504.102-.175.021-.363.031-.566.031-.656,0-1.102-.168-1.336-.504s-.352-.772-.352-1.309v-5.539h-1.133v-1.148h1.133v-2.336Z" />
            <path class="uuid-362eaf71-9752-4f90-852c-b925cc90667c"
                d="m569.708,107.394h1.43v1.594h-1.43v-1.594Zm0,3.148h1.43v8.328h-1.43v-8.328Z" />
            <path class="uuid-362eaf71-9752-4f90-852c-b925cc90667c"
                d="m578.791,110.948c.591.458.946,1.247,1.066,2.367h-1.367c-.084-.516-.273-.944-.57-1.285s-.773-.512-1.43-.512c-.896,0-1.537.438-1.922,1.311-.25.567-.375,1.268-.375,2.1,0,.837.177,1.542.531,2.114.354.572.911.858,1.672.858.583,0,1.045-.178,1.387-.533.341-.355.576-.842.707-1.459h1.367c-.156,1.109-.547,1.921-1.172,2.434s-1.425.77-2.398.77c-1.094,0-1.967-.399-2.617-1.199-.651-.8-.977-1.798-.977-2.996,0-1.469.356-2.612,1.07-3.43.713-.817,1.622-1.227,2.727-1.227.942,0,1.709.229,2.301.688Z" />
            <path class="uuid-362eaf71-9752-4f90-852c-b925cc90667c"
                d="m585.748,113.807c.323-.042.539-.177.648-.405.062-.126.094-.307.094-.542,0-.48-.171-.829-.511-1.047-.341-.217-.828-.325-1.462-.325-.733,0-1.253.199-1.56.597-.172.22-.283.547-.335.981h-1.312c.025-1.034.36-1.754,1.003-2.158.642-.405,1.388-.607,2.235-.607.983,0,1.781.188,2.396.562.608.375.913.958.913,1.75v4.82c0,.146.029.264.09.352.06.089.186.133.379.133.062,0,.133-.004.211-.012s.161-.02.25-.035v1.039c-.219.062-.386.102-.5.117-.115.016-.271.023-.469.023-.484,0-.836-.172-1.055-.516-.115-.182-.195-.439-.242-.773-.287.375-.698.701-1.234.977-.537.276-1.128.414-1.773.414-.776,0-1.41-.235-1.902-.706s-.738-1.06-.738-1.768c0-.774.242-1.376.727-1.802.484-.427,1.119-.689,1.906-.789l2.242-.28Zm-2.961,3.799c.297.233.648.351,1.055.351.494,0,.974-.114,1.438-.343.781-.38,1.172-1.001,1.172-1.864v-1.131c-.172.109-.393.201-.663.273-.271.073-.535.126-.795.157l-.85.108c-.51.068-.893.175-1.149.32-.436.244-.652.634-.652,1.169,0,.405.148.725.445.959Z" />
            <path class="uuid-362eaf71-9752-4f90-852c-b925cc90667c"
                d="m590.201,107.394h1.406v11.477h-1.406v-11.477Z" />
        </g>
        <g>
            <path class="uuid-362eaf71-9752-4f90-852c-b925cc90667c"
                d="m498.568,208.849h1.43v1.594h-1.43v-1.594Zm0,3.148h1.43v8.328h-1.43v-8.328Z" />
            <path class="uuid-362eaf71-9752-4f90-852c-b925cc90667c"
                d="m506.719,212.215c.249.156.532.43.849.82v-4.226h1.352v11.515h-1.266v-1.164c-.327.516-.714.888-1.16,1.117s-.957.344-1.533.344c-.929,0-1.732-.392-2.412-1.176s-1.02-1.827-1.02-3.129c0-1.219.31-2.274.93-3.168s1.506-1.34,2.658-1.34c.638,0,1.172.136,1.603.406Zm-3.139,6.273c.378.604.984.906,1.818.906.648,0,1.181-.28,1.598-.84s.626-1.363.626-2.41c0-1.058-.215-1.84-.646-2.348-.43-.508-.961-.762-1.594-.762-.704,0-1.275.271-1.714.812-.438.542-.656,1.339-.656,2.391,0,.896.188,1.646.567,2.25Z" />
            <path class="uuid-362eaf71-9752-4f90-852c-b925cc90667c"
                d="m516.189,212.188c.554.278.976.64,1.266,1.082.279.422.466.914.56,1.477.082.386.124,1,.124,1.844h-6.086c.025.852.225,1.534.597,2.049s.948.771,1.729.771c.729,0,1.311-.243,1.744-.729.243-.283.415-.61.517-.981h1.383c-.037.308-.158.649-.363,1.027-.206.378-.436.687-.688.926-.424.417-.949.698-1.574.844-.336.083-.716.125-1.14.125-1.035,0-1.912-.379-2.632-1.137s-1.079-1.819-1.079-3.184c0-1.344.362-2.435,1.087-3.273s1.672-1.258,2.842-1.258c.59,0,1.162.14,1.716.418Zm.504,3.285c-.057-.609-.188-1.097-.396-1.461-.382-.677-1.02-1.016-1.913-1.016-.641,0-1.178.233-1.611.699s-.664,1.059-.689,1.777h4.609Z" />
            <path class="uuid-362eaf71-9752-4f90-852c-b925cc90667c"
                d="m525.982,212.792c.739.718,1.109,1.774,1.109,3.169,0,1.348-.326,2.462-.978,3.341-.651.88-1.663,1.319-3.033,1.319-1.144,0-2.051-.389-2.724-1.167-.672-.778-1.008-1.822-1.008-3.134,0-1.405.354-2.523,1.062-3.356.709-.833,1.66-1.249,2.854-1.249,1.071,0,1.976.359,2.716,1.077Zm-.873,5.561c.342-.704.514-1.489.514-2.353,0-.78-.124-1.415-.371-1.903-.392-.771-1.066-1.155-2.023-1.155-.851,0-1.468.328-1.854.983-.386.655-.579,1.446-.579,2.372,0,.89.193,1.631.579,2.224.387.593.999.89,1.839.89.922,0,1.554-.353,1.896-1.058Z" />
            <path class="uuid-362eaf71-9752-4f90-852c-b925cc90667c"
                d="m533.469,212.293c.265.183.534.448.81.797v-1.055h1.297v7.609c0,1.062-.156,1.901-.468,2.516-.581,1.136-1.679,1.703-3.293,1.703-.898,0-1.653-.202-2.266-.605-.613-.403-.956-1.035-1.028-1.895h1.43c.067.375.202.664.404.867.315.312.812.469,1.491.469,1.072,0,1.774-.38,2.105-1.141.197-.448.288-1.247.272-2.398-.28.427-.617.745-1.012.953s-.916.312-1.564.312c-.902,0-1.692-.321-2.369-.965-.678-.644-1.016-1.707-1.016-3.191,0-1.401.341-2.495,1.023-3.281.682-.786,1.506-1.18,2.471-1.18.653,0,1.225.161,1.712.484Zm.172,1.508c-.425-.5-.966-.75-1.624-.75-.985,0-1.658.464-2.021,1.391-.191.495-.287,1.144-.287,1.945,0,.942.19,1.66.571,2.152s.893.738,1.535.738c1.005,0,1.712-.456,2.122-1.367.228-.516.342-1.117.342-1.805,0-1.036-.213-1.805-.638-2.305Z" />
            <path class="uuid-362eaf71-9752-4f90-852c-b925cc90667c"
                d="m537.755,211.957h1.336v1.445c.109-.281.377-.624.805-1.027.427-.403.919-.605,1.477-.605.025,0,.07.003.133.008s.169.016.32.031v1.484c-.084-.016-.16-.026-.23-.031s-.147-.008-.23-.008c-.709,0-1.253.228-1.633.684-.381.456-.57.98-.57,1.574v4.812h-1.406v-8.367Z" />
            <path class="uuid-362eaf71-9752-4f90-852c-b925cc90667c"
                d="m547.529,215.261c.323-.042.539-.177.648-.405.062-.126.094-.307.094-.542,0-.48-.171-.829-.511-1.047-.341-.217-.828-.325-1.462-.325-.733,0-1.253.199-1.56.597-.172.22-.283.547-.335.981h-1.312c.025-1.034.36-1.754,1.003-2.158.642-.405,1.388-.607,2.235-.607.983,0,1.781.188,2.396.562.608.375.913.958.913,1.75v4.82c0,.146.029.264.09.352.06.089.186.133.379.133.062,0,.133-.004.211-.012s.161-.02.25-.035v1.039c-.219.062-.386.102-.5.117-.115.016-.271.023-.469.023-.484,0-.836-.172-1.055-.516-.115-.182-.195-.439-.242-.773-.287.375-.698.701-1.234.977-.537.276-1.128.414-1.773.414-.776,0-1.41-.235-1.902-.706s-.738-1.06-.738-1.768c0-.774.242-1.376.727-1.802.484-.427,1.119-.689,1.906-.789l2.242-.28Zm-2.961,3.799c.297.233.648.351,1.055.351.494,0,.974-.114,1.438-.343.781-.38,1.172-1.001,1.172-1.864v-1.131c-.172.109-.393.201-.663.273-.271.073-.535.126-.795.157l-.85.108c-.51.068-.893.175-1.149.32-.436.244-.652.634-.652,1.169,0,.405.148.725.445.959Z" />
            <path class="uuid-362eaf71-9752-4f90-852c-b925cc90667c"
                d="m551.826,211.997h1.375v1.109c.282-.38.59-.675.924-.883.476-.312,1.034-.469,1.677-.469.95,0,1.757.363,2.42,1.09s.995,1.765.995,3.113c0,1.823-.479,3.125-1.436,3.906-.606.495-1.312.742-2.117.742-.633,0-1.164-.138-1.593-.414-.251-.156-.53-.425-.839-.805v4.273h-1.406v-11.664Zm5.291,6.559c.436-.55.654-1.371.654-2.465,0-.667-.097-1.239-.29-1.719-.366-.922-1.035-1.383-2.007-1.383-.978,0-1.646.487-2.007,1.461-.193.521-.29,1.183-.29,1.984,0,.646.097,1.195.29,1.648.365.864,1.034,1.297,2.007,1.297.658,0,1.206-.274,1.643-.824Z" />
            <path class="uuid-362eaf71-9752-4f90-852c-b925cc90667c"
                d="m560.841,208.81h1.406v4.281c.333-.422.633-.719.898-.891.453-.297,1.018-.445,1.695-.445,1.213,0,2.036.425,2.469,1.273.234.464.352,1.106.352,1.93v5.367h-1.445v-5.273c0-.614-.078-1.065-.234-1.352-.256-.458-.734-.688-1.438-.688-.584,0-1.112.2-1.586.602-.475.401-.711,1.159-.711,2.273v4.438h-1.406v-11.515Z" />
            <path class="uuid-362eaf71-9752-4f90-852c-b925cc90667c"
                d="m569.74,208.849h1.43v1.594h-1.43v-1.594Zm0,3.148h1.43v8.328h-1.43v-8.328Z" />
            <path class="uuid-362eaf71-9752-4f90-852c-b925cc90667c"
                d="m578.822,212.403c.591.458.946,1.247,1.066,2.367h-1.367c-.084-.516-.273-.944-.57-1.285s-.773-.512-1.43-.512c-.896,0-1.537.438-1.922,1.311-.25.567-.375,1.268-.375,2.1,0,.837.177,1.542.531,2.114.354.572.911.858,1.672.858.583,0,1.045-.178,1.387-.533.341-.355.576-.842.707-1.459h1.367c-.156,1.109-.547,1.921-1.172,2.434s-1.425.77-2.398.77c-1.094,0-1.967-.399-2.617-1.199-.651-.8-.977-1.798-.977-2.996,0-1.469.356-2.612,1.07-3.43.713-.817,1.622-1.227,2.727-1.227.942,0,1.709.229,2.301.688Z" />
        </g>
        <g>
            <path class="uuid-362eaf71-9752-4f90-852c-b925cc90667c"
                d="m498.568,74.203h1.406v4.281c.333-.422.633-.719.898-.891.453-.297,1.018-.445,1.695-.445,1.213,0,2.036.425,2.469,1.273.234.464.352,1.106.352,1.93v5.367h-1.445v-5.273c0-.614-.078-1.065-.234-1.352-.256-.458-.734-.688-1.438-.688-.584,0-1.112.2-1.586.602-.475.401-.711,1.159-.711,2.273v4.438h-1.406v-11.516Z" />
            <path class="uuid-362eaf71-9752-4f90-852c-b925cc90667c"
                d="m511.951,80.655c.323-.042.539-.177.648-.405.062-.126.094-.307.094-.542,0-.48-.171-.829-.511-1.047-.341-.217-.828-.325-1.462-.325-.733,0-1.253.199-1.56.597-.172.22-.283.547-.335.981h-1.312c.025-1.034.36-1.754,1.003-2.158.642-.405,1.388-.607,2.235-.607.983,0,1.781.188,2.396.562.608.375.913.958.913,1.75v4.82c0,.146.029.264.09.352.06.089.186.133.379.133.062,0,.133-.004.211-.012s.161-.02.25-.035v1.039c-.219.062-.386.102-.5.117-.115.016-.271.023-.469.023-.484,0-.836-.172-1.055-.516-.115-.182-.195-.439-.242-.773-.287.375-.698.701-1.234.977-.537.276-1.128.414-1.773.414-.776,0-1.41-.235-1.902-.706s-.738-1.06-.738-1.768c0-.774.242-1.376.727-1.802.484-.427,1.119-.689,1.906-.789l2.242-.28Zm-2.961,3.799c.297.233.648.351,1.055.351.494,0,.974-.114,1.438-.343.781-.38,1.172-1.001,1.172-1.864v-1.131c-.172.109-.393.201-.663.273-.271.073-.535.126-.795.157l-.85.108c-.51.068-.893.175-1.149.32-.436.244-.652.634-.652,1.169,0,.405.148.725.445.959Z" />
            <path class="uuid-362eaf71-9752-4f90-852c-b925cc90667c"
                d="m516.365,77.351h1.336v1.188c.396-.489.814-.841,1.258-1.055.442-.214.935-.32,1.477-.32,1.188,0,1.989.414,2.406,1.242.229.453.344,1.102.344,1.945v5.367h-1.43v-5.273c0-.511-.076-.922-.227-1.234-.25-.521-.703-.781-1.359-.781-.334,0-.607.034-.82.102-.386.114-.725.344-1.016.688-.234.276-.387.562-.457.855s-.105.715-.105,1.262v4.383h-1.406v-8.367Z" />
            <path class="uuid-362eaf71-9752-4f90-852c-b925cc90667c"
                d="m529.915,77.687c.265.183.534.448.81.797v-1.055h1.297v7.609c0,1.062-.156,1.901-.468,2.516-.581,1.136-1.679,1.703-3.293,1.703-.898,0-1.653-.202-2.266-.605-.613-.403-.956-1.035-1.028-1.895h1.43c.067.375.202.664.404.867.315.312.812.469,1.491.469,1.072,0,1.774-.38,2.105-1.141.197-.448.288-1.247.272-2.398-.28.427-.617.745-1.012.953s-.916.312-1.564.312c-.902,0-1.692-.321-2.369-.965-.678-.644-1.016-1.707-1.016-3.191,0-1.401.341-2.495,1.023-3.281.682-.786,1.506-1.18,2.471-1.18.653,0,1.225.161,1.712.484Zm.172,1.508c-.425-.5-.966-.75-1.624-.75-.985,0-1.658.464-2.021,1.391-.191.495-.287,1.144-.287,1.945,0,.942.19,1.66.571,2.152s.893.738,1.535.738c1.005,0,1.712-.456,2.122-1.367.228-.516.342-1.117.342-1.805,0-1.036-.213-1.805-.638-2.305Z" />
            <path class="uuid-362eaf71-9752-4f90-852c-b925cc90667c"
                d="m534.162,74.242h1.43v1.594h-1.43v-1.594Zm0,3.148h1.43v8.328h-1.43v-8.328Z" />
            <path class="uuid-362eaf71-9752-4f90-852c-b925cc90667c"
                d="m537.716,77.351h1.336v1.188c.396-.489.814-.841,1.258-1.055.442-.214.935-.32,1.477-.32,1.188,0,1.989.414,2.406,1.242.229.453.344,1.102.344,1.945v5.367h-1.43v-5.273c0-.511-.076-.922-.227-1.234-.25-.521-.703-.781-1.359-.781-.334,0-.607.034-.82.102-.386.114-.725.344-1.016.688-.234.276-.387.562-.457.855s-.105.715-.105,1.262v4.383h-1.406v-8.367Z" />
            <path class="uuid-362eaf71-9752-4f90-852c-b925cc90667c"
                d="m551.266,77.687c.265.183.534.448.81.797v-1.055h1.297v7.609c0,1.062-.156,1.901-.468,2.516-.581,1.136-1.679,1.703-3.293,1.703-.898,0-1.653-.202-2.266-.605-.613-.403-.956-1.035-1.028-1.895h1.43c.067.375.202.664.404.867.315.312.812.469,1.491.469,1.072,0,1.774-.38,2.105-1.141.197-.448.288-1.247.272-2.398-.28.427-.617.745-1.012.953s-.916.312-1.564.312c-.902,0-1.692-.321-2.369-.965-.678-.644-1.016-1.707-1.016-3.191,0-1.401.341-2.495,1.023-3.281.682-.786,1.506-1.18,2.471-1.18.653,0,1.225.161,1.712.484Zm.172,1.508c-.425-.5-.966-.75-1.624-.75-.985,0-1.658.464-2.021,1.391-.191.495-.287,1.144-.287,1.945,0,.942.19,1.66.571,2.152s.893.738,1.535.738c1.005,0,1.712-.456,2.122-1.367.228-.516.342-1.117.342-1.805,0-1.036-.213-1.805-.638-2.305Z" />
        </g>
        <g>
            <path class="uuid-362eaf71-9752-4f90-852c-b925cc90667c"
                d="m277.57,244.664h1.391v1.188c.333-.411.635-.711.906-.898.463-.317.989-.477,1.578-.477.667,0,1.203.164,1.609.492.229.188.438.464.625.828.312-.448.68-.78,1.102-.996s.896-.324,1.422-.324c1.125,0,1.891.406,2.297,1.219.219.438.328,1.026.328,1.766v5.57h-1.461v-5.812c0-.558-.14-.94-.418-1.148-.279-.208-.619-.312-1.02-.312-.552,0-1.027.185-1.426.555s-.598.987-.598,1.852v4.867h-1.43v-5.461c0-.567-.068-.981-.203-1.242-.214-.391-.612-.586-1.195-.586-.531,0-1.015.206-1.449.617-.435.411-.652,1.156-.652,2.234v4.438h-1.406v-8.367Z" />
            <path class="uuid-362eaf71-9752-4f90-852c-b925cc90667c"
                d="m290.898,241.554h1.43v1.594h-1.43v-1.594Zm0,3.148h1.43v8.328h-1.43v-8.328Z" />
            <path class="uuid-362eaf71-9752-4f90-852c-b925cc90667c"
                d="m299.05,244.921c.249.156.532.43.848.82v-4.227h1.352v11.516h-1.266v-1.164c-.327.516-.713.888-1.16,1.117s-.958.344-1.533.344c-.929,0-1.733-.392-2.413-1.176s-1.02-1.827-1.02-3.129c0-1.219.31-2.274.93-3.168.62-.894,1.506-1.34,2.658-1.34.638,0,1.172.136,1.603.406Zm-3.139,6.273c.378.604.984.906,1.819.906.648,0,1.18-.28,1.597-.84.417-.56.626-1.363.626-2.41,0-1.058-.215-1.84-.645-2.348s-.961-.762-1.594-.762c-.705,0-1.276.271-1.714.812s-.657,1.339-.657,2.391c0,.896.189,1.646.567,2.25Z" />
            <path class="uuid-362eaf71-9752-4f90-852c-b925cc90667c"
                d="m307.948,244.921c.249.156.532.43.848.82v-4.227h1.352v11.516h-1.266v-1.164c-.327.516-.713.888-1.16,1.117s-.958.344-1.533.344c-.929,0-1.733-.392-2.413-1.176s-1.02-1.827-1.02-3.129c0-1.219.31-2.274.93-3.168.62-.894,1.506-1.34,2.658-1.34.638,0,1.172.136,1.603.406Zm-3.139,6.273c.378.604.984.906,1.819.906.648,0,1.18-.28,1.597-.84.417-.56.626-1.363.626-2.41,0-1.058-.215-1.84-.645-2.348s-.961-.762-1.594-.762c-.705,0-1.276.271-1.714.812s-.657,1.339-.657,2.391c0,.896.189,1.646.567,2.25Z" />
            <path class="uuid-362eaf71-9752-4f90-852c-b925cc90667c"
                d="m312.289,241.554h1.406v11.477h-1.406v-11.477Z" />
            <path class="uuid-362eaf71-9752-4f90-852c-b925cc90667c"
                d="m320.972,244.894c.554.278.976.64,1.266,1.082.28.422.466.914.56,1.477.083.386.124,1,.124,1.844h-6.086c.026.852.225,1.534.597,2.049s.948.771,1.729.771c.729,0,1.311-.243,1.744-.729.243-.283.415-.61.517-.981h1.383c-.037.308-.158.649-.363,1.027-.206.378-.436.687-.688.926-.424.417-.949.698-1.574.844-.336.083-.716.125-1.14.125-1.035,0-1.912-.379-2.632-1.137s-1.079-1.819-1.079-3.184c0-1.344.362-2.435,1.087-3.273s1.672-1.258,2.842-1.258c.59,0,1.162.14,1.716.418Zm.504,3.285c-.057-.609-.188-1.097-.395-1.461-.382-.677-1.02-1.016-1.914-1.016-.641,0-1.178.233-1.611.699s-.664,1.059-.689,1.777h4.609Z" />
        </g>
        <g>
            <path class="uuid-362eaf71-9752-4f90-852c-b925cc90667c"
                d="m394.75,244.894c.554.278.976.64,1.266,1.082.28.422.466.914.56,1.477.083.386.124,1,.124,1.844h-6.086c.026.852.225,1.534.597,2.049s.948.771,1.729.771c.729,0,1.311-.243,1.744-.729.243-.283.415-.61.517-.981h1.383c-.037.308-.158.649-.363,1.027-.206.378-.436.687-.688.926-.424.417-.949.698-1.574.844-.336.083-.716.125-1.14.125-1.035,0-1.912-.379-2.632-1.137s-1.079-1.819-1.079-3.184c0-1.344.362-2.435,1.087-3.273s1.672-1.258,2.842-1.258c.59,0,1.162.14,1.716.418Zm.504,3.285c-.057-.609-.188-1.097-.395-1.461-.382-.677-1.02-1.016-1.914-1.016-.641,0-1.178.233-1.611.699s-.664,1.059-.689,1.777h4.609Z" />
            <path class="uuid-362eaf71-9752-4f90-852c-b925cc90667c"
                d="m398.481,244.664h1.336v1.188c.396-.489.814-.841,1.258-1.055.442-.214.935-.32,1.477-.32,1.188,0,1.989.414,2.406,1.242.229.453.344,1.102.344,1.945v5.367h-1.43v-5.273c0-.511-.076-.922-.227-1.234-.25-.521-.703-.781-1.359-.781-.334,0-.607.034-.82.102-.386.114-.725.344-1.016.688-.234.276-.387.562-.457.855s-.105.715-.105,1.262v4.383h-1.406v-8.367Z" />
            <path class="uuid-362eaf71-9752-4f90-852c-b925cc90667c"
                d="m411.976,244.921c.249.156.532.43.849.82v-4.227h1.352v11.516h-1.266v-1.164c-.327.516-.714.888-1.16,1.117s-.957.344-1.533.344c-.929,0-1.732-.392-2.412-1.176s-1.02-1.827-1.02-3.129c0-1.219.31-2.274.93-3.168s1.506-1.34,2.658-1.34c.638,0,1.172.136,1.603.406Zm-3.139,6.273c.378.604.984.906,1.818.906.648,0,1.181-.28,1.598-.84s.626-1.363.626-2.41c0-1.058-.215-1.84-.646-2.348-.43-.508-.961-.762-1.594-.762-.704,0-1.275.271-1.714.812-.438.542-.656,1.339-.656,2.391,0,.896.188,1.646.567,2.25Z" />
        </g>
        <g>
            <path class="uuid-0303eedf-aaa2-4c8b-acd7-3e052343faf1"
                d="m270.828,47.958c.323-.042.539-.177.648-.406.062-.125.094-.306.094-.541,0-.481-.17-.83-.511-1.047-.34-.217-.828-.325-1.462-.325-.733,0-1.253.199-1.56.597-.171.22-.283.547-.335.981h-1.312c.026-1.034.36-1.754,1.003-2.158.642-.405,1.388-.607,2.235-.607.983,0,1.782.188,2.396.562.609.375.913.958.913,1.75v4.821c0,.146.03.263.09.351.06.089.186.133.379.133.062,0,.133-.004.211-.012s.161-.02.25-.035v1.039c-.219.062-.386.102-.5.117-.115.016-.271.023-.469.023-.484,0-.836-.172-1.055-.516-.115-.182-.195-.44-.242-.773-.287.375-.698.701-1.234.977-.537.276-1.128.414-1.773.414-.776,0-1.41-.235-1.902-.706s-.738-1.06-.738-1.768c0-.775.242-1.376.727-1.802s1.12-.689,1.906-.788l2.242-.281Zm-2.961,3.799c.297.234.648.351,1.055.351.495,0,.974-.114,1.438-.343.781-.379,1.172-1.001,1.172-1.864v-1.131c-.172.11-.393.201-.663.274-.271.073-.536.125-.795.156l-.85.109c-.51.068-.893.174-1.149.32-.435.244-.652.634-.652,1.169,0,.405.148.725.445.959Z" />
            <path class="uuid-0303eedf-aaa2-4c8b-acd7-3e052343faf1"
                d="m275.281,41.545h1.406v11.477h-1.406v-11.477Z" />
            <path class="uuid-0303eedf-aaa2-4c8b-acd7-3e052343faf1"
                d="m278.797,41.545h1.43v1.594h-1.43v-1.594Zm0,3.148h1.43v8.328h-1.43v-8.328Z" />
            <path class="uuid-0303eedf-aaa2-4c8b-acd7-3e052343faf1"
                d="m287.003,44.99c.265.183.535.448.81.797v-1.055h1.297v7.609c0,1.062-.156,1.901-.467,2.516-.582,1.135-1.679,1.703-3.293,1.703-.898,0-1.653-.202-2.266-.605-.613-.404-.956-1.035-1.028-1.895h1.43c.067.375.202.664.404.867.315.312.813.469,1.492.469,1.072,0,1.774-.38,2.105-1.141.197-.448.288-1.247.272-2.398-.28.427-.617.745-1.012.953-.394.208-.916.312-1.564.312-.903,0-1.693-.321-2.37-.965-.677-.643-1.016-1.707-1.016-3.191,0-1.401.341-2.495,1.023-3.281.682-.786,1.506-1.18,2.471-1.18.654,0,1.225.162,1.712.484Zm.172,1.508c-.425-.5-.966-.75-1.625-.75-.985,0-1.658.464-2.021,1.391-.192.495-.288,1.144-.288,1.945,0,.943.19,1.66.571,2.152s.893.738,1.535.738c1.005,0,1.712-.456,2.122-1.367.228-.516.342-1.117.342-1.805,0-1.036-.212-1.805-.637-2.305Z" />
            <path class="uuid-0303eedf-aaa2-4c8b-acd7-3e052343faf1"
                d="m291.25,44.654h1.336v1.188c.396-.489.815-.841,1.258-1.055.442-.213.935-.32,1.477-.32,1.188,0,1.989.414,2.406,1.242.229.453.344,1.102.344,1.945v5.367h-1.43v-5.273c0-.51-.076-.922-.227-1.234-.25-.521-.703-.781-1.359-.781-.333,0-.607.034-.82.102-.386.115-.724.344-1.016.688-.234.276-.387.562-.457.855-.07.294-.105.715-.105,1.262v4.383h-1.406v-8.367Z" />
            <path class="uuid-0303eedf-aaa2-4c8b-acd7-3e052343faf1"
                d="m300.148,44.654h1.391v1.188c.333-.411.635-.711.906-.898.463-.317.989-.477,1.578-.477.667,0,1.203.164,1.609.492.229.188.438.464.625.828.312-.448.68-.78,1.102-.996.422-.216.896-.324,1.422-.324,1.125,0,1.891.406,2.297,1.219.219.438.328,1.026.328,1.766v5.57h-1.461v-5.812c0-.557-.14-.94-.418-1.148-.279-.208-.619-.312-1.02-.312-.552,0-1.027.185-1.426.555-.398.37-.598.987-.598,1.852v4.867h-1.43v-5.461c0-.567-.068-.981-.203-1.242-.214-.391-.612-.586-1.195-.586-.531,0-1.015.206-1.449.617-.435.412-.652,1.156-.652,2.234v4.438h-1.406v-8.367Z" />
            <path class="uuid-0303eedf-aaa2-4c8b-acd7-3e052343faf1"
                d="m318.645,44.885c.554.279.976.64,1.266,1.082.28.422.466.914.56,1.477.083.386.124,1,.124,1.844h-6.086c.026.852.225,1.534.597,2.049.372.514.948.771,1.729.771.729,0,1.311-.243,1.744-.73.243-.282.415-.609.517-.981h1.383c-.037.308-.158.65-.363,1.027-.206.378-.436.687-.688.926-.424.417-.949.698-1.574.844-.336.083-.716.125-1.14.125-1.035,0-1.912-.379-2.632-1.137s-1.079-1.819-1.079-3.184c0-1.344.362-2.435,1.087-3.273.725-.838,1.672-1.258,2.842-1.258.59,0,1.162.14,1.716.418Zm.504,3.285c-.057-.609-.188-1.096-.395-1.461-.382-.677-1.02-1.016-1.914-1.016-.641,0-1.178.233-1.611.699-.434.466-.664,1.059-.689,1.777h4.609Z" />
            <path class="uuid-0303eedf-aaa2-4c8b-acd7-3e052343faf1"
                d="m322.375,44.654h1.336v1.188c.396-.489.815-.841,1.258-1.055.442-.213.935-.32,1.477-.32,1.188,0,1.989.414,2.406,1.242.229.453.344,1.102.344,1.945v5.367h-1.43v-5.273c0-.51-.076-.922-.227-1.234-.25-.521-.703-.781-1.359-.781-.333,0-.607.034-.82.102-.386.115-.724.344-1.016.688-.234.276-.387.562-.457.855-.07.294-.105.715-.105,1.262v4.383h-1.406v-8.367Z" />
            <path class="uuid-0303eedf-aaa2-4c8b-acd7-3e052343faf1"
                d="m331.555,42.318h1.422v2.336h1.336v1.148h-1.336v5.461c0,.292.099.487.297.586.109.058.292.086.547.086.067,0,.141-.002.219-.005.078-.004.169-.013.273-.026v1.117c-.162.047-.33.081-.504.102-.175.021-.363.031-.566.031-.656,0-1.102-.168-1.336-.504s-.352-.772-.352-1.309v-5.539h-1.133v-1.148h1.133v-2.336Z" />
        </g>
        <g>
            <path class="uuid-f07e733c-5589-45f7-bbba-6e33c070e677"
                d="m46.113,141.506h1.367v4.164c.309-.401.677-.707,1.106-.918s.894-.316,1.396-.316c1.046,0,1.894.358,2.545,1.074.651.716.977,1.772.977,3.168,0,1.323-.322,2.422-.965,3.297s-1.534,1.312-2.674,1.312c-.638,0-1.176-.154-1.616-.461-.261-.182-.541-.474-.839-.875v1.07h-1.297v-11.516Zm5.377,9.633c.379-.604.568-1.401.568-2.391,0-.88-.189-1.609-.568-2.188s-.937-.867-1.674-.867c-.643,0-1.206.237-1.689.711-.483.474-.725,1.255-.725,2.344,0,.787.099,1.425.298,1.914.371.922,1.063,1.383,2.077,1.383.763,0,1.334-.302,1.713-.906Z" />
            <path class="uuid-f07e733c-5589-45f7-bbba-6e33c070e677"
                d="m59.613,147.958c.323-.042.539-.177.648-.406.062-.125.094-.306.094-.541,0-.481-.17-.83-.511-1.047-.34-.217-.828-.325-1.462-.325-.733,0-1.253.199-1.56.597-.171.22-.283.547-.335.981h-1.312c.026-1.034.36-1.754,1.003-2.158.642-.405,1.388-.607,2.235-.607.983,0,1.782.188,2.396.562.609.375.913.958.913,1.75v4.821c0,.146.03.263.09.351.06.089.186.133.379.133.062,0,.133-.004.211-.012s.161-.02.25-.035v1.039c-.219.062-.386.102-.5.117-.115.016-.271.023-.469.023-.484,0-.836-.172-1.055-.516-.115-.182-.195-.44-.242-.773-.287.375-.698.701-1.234.977-.537.276-1.128.414-1.773.414-.776,0-1.41-.235-1.902-.706s-.738-1.06-.738-1.768c0-.775.242-1.376.727-1.802s1.12-.689,1.906-.788l2.242-.281Zm-2.961,3.799c.297.234.648.351,1.055.351.495,0,.974-.114,1.438-.343.781-.379,1.172-1.001,1.172-1.864v-1.131c-.172.11-.393.201-.663.274-.271.073-.536.125-.795.156l-.85.109c-.51.068-.893.174-1.149.32-.435.244-.652.634-.652,1.169,0,.405.148.725.445.959Z" />
            <path class="uuid-f07e733c-5589-45f7-bbba-6e33c070e677"
                d="m64.863,150.396c.042.469.162.828.359,1.078.361.453.989.68,1.882.68.531,0,.999-.113,1.403-.34.404-.227.606-.577.606-1.051,0-.359-.162-.633-.484-.82-.207-.114-.614-.247-1.223-.398l-1.135-.281c-.725-.177-1.26-.375-1.604-.594-.614-.38-.921-.906-.921-1.578,0-.792.289-1.432.867-1.922.578-.489,1.355-.734,2.332-.734,1.277,0,2.198.37,2.763,1.109.354.469.525.974.515,1.516h-1.328c-.027-.316-.142-.604-.344-.862-.331-.368-.904-.552-1.72-.552-.544,0-.956.101-1.235.304-.28.202-.42.47-.42.802,0,.363.184.654.552.872.212.129.525.244.939.343l.947.227c1.029.245,1.719.482,2.069.711.547.359.82.925.82,1.695,0,.745-.286,1.388-.858,1.93s-1.443.812-2.614.812c-1.26,0-2.152-.283-2.677-.848-.524-.565-.805-1.264-.842-2.098h1.352Z" />
            <path class="uuid-f07e733c-5589-45f7-bbba-6e33c070e677"
                d="m77.195,144.885c.554.279.976.64,1.266,1.082.28.422.466.914.56,1.477.083.386.124,1,.124,1.844h-6.086c.026.852.225,1.534.597,2.049.372.514.948.771,1.729.771.729,0,1.311-.243,1.744-.73.243-.282.415-.609.517-.981h1.383c-.037.308-.158.65-.363,1.027-.206.378-.436.687-.688.926-.424.417-.949.698-1.574.844-.336.083-.716.125-1.14.125-1.035,0-1.912-.379-2.632-1.137s-1.079-1.819-1.079-3.184c0-1.344.362-2.435,1.087-3.273.725-.838,1.672-1.258,2.842-1.258.59,0,1.162.14,1.716.418Zm.504,3.285c-.057-.609-.188-1.096-.395-1.461-.382-.677-1.02-1.016-1.914-1.016-.641,0-1.178.233-1.611.699-.434.466-.664,1.059-.689,1.777h4.609Z" />
            <path class="uuid-f07e733c-5589-45f7-bbba-6e33c070e677"
                d="m80.965,141.545h1.406v11.477h-1.406v-11.477Z" />
            <path class="uuid-f07e733c-5589-45f7-bbba-6e33c070e677"
                d="m84.48,141.545h1.43v1.594h-1.43v-1.594Zm0,3.148h1.43v8.328h-1.43v-8.328Z" />
            <path class="uuid-f07e733c-5589-45f7-bbba-6e33c070e677"
                d="m88.035,144.654h1.336v1.188c.396-.489.815-.841,1.258-1.055.442-.213.935-.32,1.477-.32,1.188,0,1.989.414,2.406,1.242.229.453.344,1.102.344,1.945v5.367h-1.43v-5.273c0-.51-.076-.922-.227-1.234-.25-.521-.703-.781-1.359-.781-.333,0-.607.034-.82.102-.386.115-.724.344-1.016.688-.234.276-.387.562-.457.855-.07.294-.105.715-.105,1.262v4.383h-1.406v-8.367Z" />
            <path class="uuid-f07e733c-5589-45f7-bbba-6e33c070e677"
                d="m102.102,144.885c.554.279.976.64,1.266,1.082.28.422.466.914.56,1.477.083.386.124,1,.124,1.844h-6.086c.026.852.225,1.534.597,2.049.372.514.948.771,1.729.771.729,0,1.311-.243,1.744-.73.243-.282.415-.609.517-.981h1.383c-.037.308-.158.65-.363,1.027-.206.378-.436.687-.688.926-.424.417-.949.698-1.574.844-.336.083-.716.125-1.14.125-1.035,0-1.912-.379-2.632-1.137s-1.079-1.819-1.079-3.184c0-1.344.362-2.435,1.087-3.273.725-.838,1.672-1.258,2.842-1.258.59,0,1.162.14,1.716.418Zm.504,3.285c-.057-.609-.188-1.096-.395-1.461-.382-.677-1.02-1.016-1.914-1.016-.641,0-1.178.233-1.611.699-.434.466-.664,1.059-.689,1.777h4.609Z" />
        </g>
        <rect class="uuid-d80fe32d-89d5-4719-b7b2-2f8b135cd303" x="150" y="75" width="300"
            height="150" />
        <g class="uuid-2fbee630-b89b-45a2-865c-5f9153bdf032">
            <path class="uuid-362eaf71-9752-4f90-852c-b925cc90667c"
                d="m211.511,163.336v-31.567h-11.792v-4.224h28.369v4.224h-11.841v31.567h-4.736Z" />
            <path class="uuid-362eaf71-9752-4f90-852c-b925cc90667c"
                d="m229.431,173.322l-.488-4.126c.96.26,1.798.391,2.515.391.977,0,1.758-.163,2.344-.488.586-.326,1.066-.781,1.44-1.367.276-.439.724-1.53,1.343-3.271.081-.244.211-.603.391-1.074l-9.839-25.977h4.736l5.396,15.015c.7,1.904,1.326,3.906,1.88,6.006.504-2.018,1.106-3.987,1.807-5.908l5.542-15.112h4.395l-9.863,26.367c-1.058,2.848-1.88,4.81-2.466,5.884-.781,1.448-1.677,2.511-2.686,3.187-1.009.675-2.214,1.013-3.613,1.013-.847,0-1.791-.18-2.832-.537Z" />
            <path class="uuid-362eaf71-9752-4f90-852c-b925cc90667c"
                d="m254.626,173.273v-35.864h4.004v3.369c.944-1.318,2.01-2.307,3.198-2.967,1.188-.658,2.628-.988,4.321-.988,2.213,0,4.167.57,5.859,1.709,1.692,1.14,2.97,2.746,3.833,4.822.862,2.074,1.294,4.35,1.294,6.823,0,2.653-.476,5.042-1.428,7.165-.952,2.125-2.336,3.752-4.15,4.883-1.815,1.132-3.723,1.697-5.725,1.697-1.465,0-2.779-.31-3.943-.928-1.164-.618-2.12-1.399-2.869-2.344v12.622h-4.395Zm3.979-22.754c0,3.337.675,5.803,2.026,7.397,1.351,1.596,2.986,2.393,4.907,2.393,1.953,0,3.625-.826,5.017-2.479,1.392-1.651,2.087-4.211,2.087-7.678,0-3.304-.68-5.777-2.039-7.422-1.359-1.644-2.983-2.466-4.871-2.466-1.872,0-3.528.875-4.968,2.624-1.44,1.75-2.161,4.294-2.161,7.63Z" />
            <path class="uuid-362eaf71-9752-4f90-852c-b925cc90667c"
                d="m300.183,154.987l4.541.562c-.716,2.653-2.043,4.712-3.979,6.177-1.937,1.465-4.411,2.197-7.422,2.197-3.792,0-6.799-1.168-9.021-3.504-2.222-2.335-3.333-5.61-3.333-9.826,0-4.361,1.123-7.747,3.369-10.156,2.246-2.408,5.159-3.613,8.74-3.613,3.467,0,6.299,1.181,8.496,3.54,2.197,2.36,3.296,5.681,3.296,9.961,0,.261-.008.651-.024,1.172h-19.336c.163,2.849.968,5.029,2.417,6.543,1.448,1.514,3.255,2.271,5.42,2.271,1.611,0,2.986-.423,4.126-1.27,1.139-.846,2.042-2.197,2.71-4.053Zm-14.429-7.104h14.478c-.195-2.181-.749-3.816-1.66-4.907-1.4-1.692-3.215-2.539-5.444-2.539-2.019,0-3.715.676-5.09,2.026-1.375,1.352-2.136,3.158-2.283,5.42Z" />
            <path class="uuid-362eaf71-9752-4f90-852c-b925cc90667c"
                d="m311.291,163.336v-22.51h-3.882v-3.418h3.882v-2.759c0-1.741.154-3.035.464-3.882.423-1.139,1.167-2.062,2.234-2.771,1.066-.707,2.559-1.062,4.48-1.062,1.237,0,2.604.146,4.102.439l-.659,3.833c-.912-.162-1.774-.244-2.588-.244-1.335,0-2.279.285-2.832.854-.554.57-.83,1.636-.83,3.198v2.393h5.054v3.418h-5.054v22.51h-4.37Z" />
            <path class="uuid-362eaf71-9752-4f90-852c-b925cc90667c"
                d="m341.052,160.138c-1.628,1.384-3.194,2.36-4.7,2.93-1.506.569-3.121.854-4.846.854-2.849,0-5.038-.695-6.567-2.088-1.53-1.391-2.295-3.169-2.295-5.334,0-1.27.289-2.43.867-3.479.578-1.051,1.334-1.893,2.271-2.527.936-.635,1.99-1.114,3.162-1.44.862-.228,2.165-.447,3.906-.659,3.548-.423,6.16-.928,7.837-1.514.016-.602.024-.984.024-1.147,0-1.79-.415-3.052-1.245-3.784-1.123-.992-2.792-1.489-5.005-1.489-2.067,0-3.593.362-4.578,1.087-.985.724-1.713,2.006-2.185,3.845l-4.297-.586c.391-1.839,1.033-3.324,1.929-4.456.895-1.131,2.189-2.002,3.882-2.611,1.692-.611,3.654-.916,5.884-.916,2.213,0,4.012.261,5.396.781,1.383.521,2.4,1.176,3.052,1.965.651.79,1.106,1.787,1.367,2.991.146.749.22,2.1.22,4.053v5.859c0,4.086.093,6.669.281,7.751.187,1.083.557,2.121,1.111,3.113h-4.59c-.456-.911-.749-1.978-.879-3.198Zm-.366-9.814c-1.595.651-3.988,1.205-7.178,1.66-1.807.261-3.084.554-3.833.879-.749.326-1.327.802-1.733,1.429-.407.626-.61,1.322-.61,2.087,0,1.172.443,2.148,1.331,2.93.887.781,2.185,1.172,3.894,1.172,1.692,0,3.198-.37,4.517-1.11,1.318-.741,2.287-1.754,2.905-3.04.472-.992.708-2.457.708-4.395v-1.611Z" />
            <path class="uuid-362eaf71-9752-4f90-852c-b925cc90667c"
                d="m368.86,153.839l4.321.562c-.472,2.979-1.681,5.311-3.625,6.994-1.945,1.686-4.333,2.527-7.166,2.527-3.548,0-6.401-1.16-8.557-3.479-2.157-2.32-3.235-5.644-3.235-9.974,0-2.799.464-5.249,1.392-7.349s2.339-3.674,4.236-4.725c1.896-1.049,3.959-1.574,6.189-1.574,2.815,0,5.119.712,6.909,2.137,1.79,1.424,2.938,3.446,3.442,6.066l-4.272.659c-.407-1.741-1.127-3.052-2.161-3.931-1.034-.879-2.283-1.318-3.748-1.318-2.214,0-4.012.793-5.396,2.381-1.384,1.586-2.075,4.098-2.075,7.531,0,3.483.667,6.015,2.002,7.593,1.334,1.579,3.076,2.368,5.225,2.368,1.725,0,3.166-.528,4.321-1.587,1.155-1.058,1.888-2.686,2.197-4.883Z" />
            <path class="uuid-362eaf71-9752-4f90-852c-b925cc90667c"
                d="m394.69,154.987l4.541.562c-.716,2.653-2.043,4.712-3.979,6.177-1.937,1.465-4.411,2.197-7.422,2.197-3.792,0-6.799-1.168-9.021-3.504-2.222-2.335-3.333-5.61-3.333-9.826,0-4.361,1.123-7.747,3.369-10.156,2.246-2.408,5.159-3.613,8.74-3.613,3.467,0,6.299,1.181,8.496,3.54,2.197,2.36,3.296,5.681,3.296,9.961,0,.261-.008.651-.024,1.172h-19.336c.163,2.849.968,5.029,2.417,6.543,1.448,1.514,3.255,2.271,5.42,2.271,1.611,0,2.986-.423,4.126-1.27,1.139-.846,2.042-2.197,2.71-4.053Zm-14.429-7.104h14.478c-.195-2.181-.749-3.816-1.66-4.907-1.4-1.692-3.215-2.539-5.444-2.539-2.019,0-3.715.676-5.09,2.026-1.375,1.352-2.136,3.158-2.283,5.42Z" />
        </g>
    </g>
    <g id="uuid-be964df8-d515-4a63-b7b7-09800256d083">
        <polyline class="uuid-e0396fc5-3070-4b3d-aa49-b4adf61239f7"
            points="149.959 163.336 457.959 163.336 489.536 183.151" />
        <polyline class="uuid-e0396fc5-3070-4b3d-aa49-b4adf61239f7"
            points="149.959 179.572 457.959 179.572 489.536 216.303" />
        <polyline class="uuid-e0396fc5-3070-4b3d-aa49-b4adf61239f7"
            points="149.959 120.428 457.959 120.428 489.537 83.696" />
        <polyline class="uuid-e0396fc5-3070-4b3d-aa49-b4adf61239f7"
            points="149.959 137.428 457.959 137.428 489.536 116.848" />
        <polyline class="uuid-e0396fc5-3070-4b3d-aa49-b4adf61239f7"
            points="150.041 150 458.041 150 489.536 150" />
        <line class="uuid-12844e9d-beef-4cf8-b6e5-fc5967791749" x1="198.547" y1="75" x2="198.547"
            y2="233" />
        <line class="uuid-12844e9d-beef-4cf8-b6e5-fc5967791749" x1="300" y1="75" x2="300" y2="233" />
        <line class="uuid-12844e9d-beef-4cf8-b6e5-fc5967791749" x1="401.511" y1="75" x2="401.511"
            y2="233" />
    </g>
    <g id="uuid-12e772f0-b8ef-47fc-81b3-f19f38a3fd43">
        <circle class="uuid-362eaf71-9752-4f90-852c-b925cc90667c" cx="198.547" cy="163.336" r="2.5" />
        <g>
            <path class="uuid-8a5e4648-cffa-44fc-aec5-607bef203879"
                d="m191.78,173.279c-30.019,44.758-59.905,39.057-59.905,39.057" />
            <path class="uuid-362eaf71-9752-4f90-852c-b925cc90667c"
                d="m195.047,168.205c-2.449,1.782-5.896,3.722-8.691,4.488l4.913,1.199,3.009,4.064c-.378-2.873.075-6.803.769-9.751Z" />
        </g>
        <g>
            <path class="uuid-362eaf71-9752-4f90-852c-b925cc90667c"
                d="m16.789,204.529v11.5h-2.164v-1.18c-.318.505-.68.872-1.086,1.102-.406.229-.912.344-1.516.344-.995,0-1.832-.402-2.512-1.207s-1.02-1.837-1.02-3.098c0-1.453.334-2.596,1.004-3.43.669-.833,1.563-1.25,2.684-1.25.516,0,.974.113,1.375.34.401.227.727.541.977.941v-4.062h2.258Zm-6,7.297c0,.786.156,1.414.469,1.883.307.474.776.711,1.406.711s1.109-.234,1.438-.703.492-1.075.492-1.82c0-1.042-.263-1.786-.789-2.234-.323-.271-.698-.406-1.125-.406-.651,0-1.129.246-1.434.738s-.457,1.103-.457,1.832Z" />
            <path class="uuid-362eaf71-9752-4f90-852c-b925cc90667c"
                d="m26.102,213.529c-.058.505-.32,1.019-.789,1.539-.729.828-1.75,1.242-3.062,1.242-1.083,0-2.039-.349-2.867-1.047s-1.242-1.833-1.242-3.406c0-1.474.374-2.604,1.121-3.391.747-.786,1.717-1.18,2.91-1.18.708,0,1.346.133,1.914.398.567.266,1.036.685,1.406,1.258.333.505.549,1.091.648,1.758.057.391.081.953.07,1.688h-5.828c.031.854.299,1.453.805,1.797.307.214.677.32,1.109.32.458,0,.831-.13,1.117-.391.156-.141.294-.336.414-.586h2.273Zm-2.203-2.609c-.037-.588-.215-1.035-.535-1.34s-.718-.457-1.191-.457c-.516,0-.916.162-1.199.484-.284.323-.462.761-.535,1.312h3.461Z" />
            <path class="uuid-362eaf71-9752-4f90-852c-b925cc90667c"
                d="m31.703,204.443v1.812c-.125-.016-.335-.027-.629-.035-.294-.008-.498.058-.609.195-.112.138-.168.291-.168.457v.719h1.461v1.57h-1.461v6.867h-2.219v-6.867h-1.242v-1.57h1.219v-.547c0-.911.153-1.539.461-1.883.323-.51,1.102-.766,2.336-.766.141,0,.268.004.383.012.114.008.271.02.469.035Z" />
            <path class="uuid-362eaf71-9752-4f90-852c-b925cc90667c"
                d="m33.359,208.435c.588-.75,1.599-1.125,3.031-1.125.932,0,1.76.185,2.484.555.724.37,1.086,1.068,1.086,2.094v3.906c0,.271.005.599.016.984.016.292.06.489.133.594.073.104.182.19.328.258v.328h-2.422c-.068-.172-.115-.333-.141-.484-.026-.151-.047-.323-.062-.516-.308.333-.662.617-1.062.852-.479.275-1.021.414-1.625.414-.771,0-1.408-.221-1.91-.66-.503-.44-.754-1.063-.754-1.871,0-1.047.403-1.805,1.211-2.273.442-.255,1.094-.438,1.953-.547l.758-.094c.411-.052.706-.117.883-.195.317-.135.477-.346.477-.633,0-.349-.121-.59-.363-.723s-.598-.199-1.066-.199c-.526,0-.898.13-1.117.391-.156.193-.261.453-.312.781h-2.148c.047-.745.255-1.356.625-1.836Zm1.656,5.984c.208.172.463.258.766.258.479,0,.92-.141,1.324-.422.403-.281.613-.794.629-1.539v-.828c-.141.089-.283.16-.426.215-.144.055-.34.105-.59.152l-.5.094c-.469.083-.805.185-1.008.305-.344.203-.516.519-.516.945,0,.38.106.653.32.82Z" />
            <path class="uuid-362eaf71-9752-4f90-852c-b925cc90667c"
                d="m47.398,214.826c-.021.026-.073.104-.156.234-.083.13-.183.245-.297.344-.349.312-.687.526-1.012.641-.326.114-.707.172-1.145.172-1.261,0-2.109-.453-2.547-1.359-.245-.5-.367-1.237-.367-2.211v-5.133h2.281v5.133c0,.484.057.849.172,1.094.203.433.602.648,1.195.648.76,0,1.281-.308,1.562-.922.146-.333.219-.773.219-1.32v-4.633h2.258v8.516h-2.164v-1.203Z" />
            <path class="uuid-362eaf71-9752-4f90-852c-b925cc90667c"
                d="m51.758,204.513h2.227v11.516h-2.227v-11.516Z" />
            <path class="uuid-362eaf71-9752-4f90-852c-b925cc90667c"
                d="m60.055,214.443v1.664l-1.055.039c-1.052.036-1.771-.146-2.156-.547-.25-.255-.375-.648-.375-1.18v-5.242h-1.188v-1.586h1.188v-2.375h2.203v2.375h1.383v1.586h-1.383v4.5c0,.349.044.566.133.652.088.086.359.129.812.129.067,0,.139,0,.215-.004.075-.003.149-.007.223-.012Z" />
            <path class="uuid-362eaf71-9752-4f90-852c-b925cc90667c"
                d="m73.062,208.427c.688.734,1.031,1.812,1.031,3.234,0,1.5-.337,2.644-1.012,3.43-.675.786-1.543,1.18-2.605,1.18-.677,0-1.24-.17-1.688-.508-.245-.188-.484-.461-.719-.82v4.438h-2.203v-11.867h2.133v1.258c.239-.37.495-.661.766-.875.495-.38,1.083-.57,1.766-.57.995,0,1.838.367,2.531,1.102Zm-1.266,3.344c0-.656-.15-1.237-.449-1.742-.3-.505-.785-.758-1.457-.758-.808,0-1.362.383-1.664,1.148-.156.406-.234.922-.234,1.547,0,.989.263,1.685.789,2.086.312.234.682.352,1.109.352.62,0,1.092-.239,1.418-.719.325-.479.488-1.117.488-1.914Z" />
            <path class="uuid-362eaf71-9752-4f90-852c-b925cc90667c"
                d="m82.805,208.591c.719.901,1.078,1.966,1.078,3.195,0,1.25-.359,2.319-1.078,3.207s-1.81,1.332-3.273,1.332-2.555-.444-3.273-1.332-1.078-1.957-1.078-3.207c0-1.229.359-2.294,1.078-3.195.719-.901,1.81-1.352,3.273-1.352s2.555.451,3.273,1.352Zm-3.281.531c-.651,0-1.152.23-1.504.691s-.527,1.119-.527,1.973.176,1.513.527,1.977.853.695,1.504.695,1.151-.231,1.5-.695c.349-.464.523-1.122.523-1.977s-.175-1.512-.523-1.973c-.349-.461-.849-.691-1.5-.691Z" />
            <path class="uuid-362eaf71-9752-4f90-852c-b925cc90667c"
                d="m91.344,207.904c.667.427,1.049,1.162,1.148,2.203h-2.227c-.031-.286-.112-.513-.242-.68-.245-.302-.662-.453-1.25-.453-.484,0-.83.076-1.035.227-.206.151-.309.328-.309.531,0,.255.109.44.328.555.219.12.992.326,2.32.617.885.208,1.549.523,1.992.945.438.427.656.961.656,1.602,0,.844-.314,1.532-.941,2.066-.628.533-1.598.801-2.91.801-1.339,0-2.327-.283-2.965-.848-.638-.565-.957-1.285-.957-2.16h2.258c.047.396.148.677.305.844.276.297.786.445,1.531.445.438,0,.785-.065,1.043-.195s.387-.325.387-.586c0-.25-.104-.44-.312-.57-.208-.13-.982-.354-2.32-.672-.964-.239-1.644-.539-2.039-.898-.396-.354-.594-.864-.594-1.531,0-.786.309-1.462.926-2.027.617-.565,1.485-.848,2.605-.848,1.062,0,1.93.211,2.602.633Z" />
            <path class="uuid-362eaf71-9752-4f90-852c-b925cc90667c"
                d="m96.664,204.443v2.055h-2.258v-2.055h2.258Zm0,3.07v8.516h-2.258v-8.516h2.258Z" />
            <path class="uuid-362eaf71-9752-4f90-852c-b925cc90667c"
                d="m102.719,214.443v1.664l-1.055.039c-1.052.036-1.771-.146-2.156-.547-.25-.255-.375-.648-.375-1.18v-5.242h-1.188v-1.586h1.188v-2.375h2.203v2.375h1.383v1.586h-1.383v4.5c0,.349.044.566.133.652.088.086.359.129.812.129.067,0,.139,0,.215-.004.075-.003.149-.007.223-.012Z" />
            <path class="uuid-362eaf71-9752-4f90-852c-b925cc90667c"
                d="m106.437,204.443v2.055h-2.258v-2.055h2.258Zm0,3.07v8.516h-2.258v-8.516h2.258Z" />
            <path class="uuid-362eaf71-9752-4f90-852c-b925cc90667c"
                d="m115.695,208.591c.719.901,1.078,1.966,1.078,3.195,0,1.25-.359,2.319-1.078,3.207s-1.81,1.332-3.273,1.332-2.555-.444-3.273-1.332-1.078-1.957-1.078-3.207c0-1.229.359-2.294,1.078-3.195.719-.901,1.81-1.352,3.273-1.352s2.555.451,3.273,1.352Zm-3.281.531c-.651,0-1.152.23-1.504.691s-.527,1.119-.527,1.973.176,1.513.527,1.977.853.695,1.504.695,1.151-.231,1.5-.695c.349-.464.523-1.122.523-1.977s-.175-1.512-.523-1.973c-.349-.461-.849-.691-1.5-.691Z" />
            <path class="uuid-362eaf71-9752-4f90-852c-b925cc90667c"
                d="m122.375,209.162c-.755,0-1.273.32-1.555.961-.146.339-.219.771-.219,1.297v4.609h-2.219v-8.5h2.148v1.242c.286-.438.557-.752.812-.945.458-.344,1.039-.516,1.742-.516.88,0,1.6.23,2.16.691.56.461.84,1.226.84,2.293v5.734h-2.281v-5.18c0-.448-.06-.792-.18-1.031-.219-.438-.636-.656-1.25-.656Z" />
        </g>
    </g>
</svg>