<?xml version="1.0" encoding="UTF-8"?><svg xmlns="http://www.w3.org/2000/svg" width="450" height="250" viewBox="0 0 450 250" style="display: block; margin: auto; max-width:100%;"><defs><style>.uuid-95e9f9c4-1ea2-4a5a-b79d-744392ac2073{fill:var(--font-color);}.uuid-2bc4ab1e-7cc6-4faf-9130-1f09acc15e0f{fill:var(--background-lighter);}.uuid-2bc4ab1e-7cc6-4faf-9130-1f09acc15e0f,.uuid-be090b28-0437-4e30-8734-bd3a9e3bca6d{stroke:var(--font-color);stroke-miterlimit:10;}.uuid-be090b28-0437-4e30-8734-bd3a9e3bca6d{fill:none;}</style></defs><g id="uuid-c2a2ec7b-e8c1-4ca5-8247-c5948437e555"><ellipse class="uuid-2bc4ab1e-7cc6-4faf-9130-1f09acc15e0f" cx="75" cy="150" rx="50" ry="25"/><ellipse class="uuid-2bc4ab1e-7cc6-4faf-9130-1f09acc15e0f" cx="225" cy="100" rx="50" ry="25"/><ellipse class="uuid-2bc4ab1e-7cc6-4faf-9130-1f09acc15e0f" cx="225" cy="200" rx="50" ry="25"/><ellipse class="uuid-2bc4ab1e-7cc6-4faf-9130-1f09acc15e0f" cx="375" cy="50" rx="50" ry="25"/><ellipse class="uuid-2bc4ab1e-7cc6-4faf-9130-1f09acc15e0f" cx="375" cy="150" rx="50" ry="25"/><g><path class="uuid-95e9f9c4-1ea2-4a5a-b79d-744392ac2073" d="m66.44,144.343v1.758c-.514-.299-1.032-.524-1.553-.674s-1.051-.225-1.592-.225c-.814,0-1.421.132-1.821.396s-.601.666-.601,1.206c0,.488.15.853.449,1.094s1.045.475,2.236.703l.723.137c.892.169,1.567.508,2.026,1.016s.688,1.168.688,1.982c0,1.081-.384,1.925-1.152,2.534s-1.836.913-3.203.913c-.541,0-1.107-.057-1.699-.171s-1.234-.285-1.924-.513v-1.855c.67.345,1.312.604,1.924.776s1.191.259,1.738.259c.794,0,1.41-.161,1.846-.483s.654-.773.654-1.353c0-.833-.797-1.41-2.393-1.729l-.078-.02-.674-.137c-1.035-.202-1.791-.542-2.266-1.021s-.713-1.131-.713-1.958c0-1.048.355-1.857,1.064-2.427s1.722-.854,3.037-.854c.586,0,1.149.054,1.689.161s1.071.269,1.592.483Z"/><path class="uuid-95e9f9c4-1ea2-4a5a-b79d-744392ac2073" d="m69.956,143.962h1.865l3.174,9.18,3.184-9.18h1.865l-3.887,10.938h-2.314l-3.887-10.938Z"/><path class="uuid-95e9f9c4-1ea2-4a5a-b79d-744392ac2073" d="m91.196,154.197c0,1.641-.387,2.884-1.162,3.73s-1.914,1.27-3.418,1.27c-.495,0-1.012-.045-1.553-.137s-1.081-.225-1.621-.4v-1.777c.638.299,1.217.521,1.738.664s1,.215,1.436.215c.97,0,1.676-.264,2.119-.791s.664-1.364.664-2.51v-1.299c-.287.612-.677,1.068-1.172,1.367s-1.097.449-1.807.449c-1.276,0-2.295-.511-3.057-1.533s-1.143-2.389-1.143-4.102.381-3.089,1.143-4.111,1.781-1.533,3.057-1.533c.703,0,1.299.14,1.787.42s.885.713,1.191,1.299v-1.416h1.797v10.195Zm-1.797-4.854c0-1.348-.22-2.372-.659-3.071s-1.079-1.05-1.919-1.05c-.879,0-1.549.35-2.012,1.05s-.693,1.724-.693,3.071.233,2.375.698,3.081,1.141,1.06,2.026,1.06c.827,0,1.46-.355,1.899-1.064s.659-1.735.659-3.076Z"/></g><g><path class="uuid-95e9f9c4-1ea2-4a5a-b79d-744392ac2073" d="m212.68,198.497c-.384-.299-.775-.518-1.172-.654s-.833-.205-1.309-.205c-1.12,0-1.976.352-2.568,1.055s-.889,1.719-.889,3.047v5.439h-1.807v-10.938h1.807v2.139c.299-.775.76-1.369,1.382-1.782s1.359-.62,2.212-.62c.443,0,.856.055,1.24.166s.752.283,1.104.518v1.836Z"/><path class="uuid-95e9f9c4-1ea2-4a5a-b79d-744392ac2073" d="m224.379,200.812v.879h-7.783v.059c-.052,1.491.233,2.562.854,3.213s1.499.977,2.632.977c.573,0,1.172-.091,1.797-.273s1.292-.459,2.002-.83v1.787c-.684.28-1.343.49-1.978.63s-1.249.21-1.841.21c-1.699,0-3.027-.509-3.984-1.528s-1.436-2.423-1.436-4.214c0-1.745.469-3.138,1.406-4.18s2.188-1.562,3.75-1.562c1.393,0,2.492.472,3.296,1.416s1.232,2.083,1.284,3.418Zm-1.797-.527c-.078-.755-.353-1.408-.825-1.958s-1.151-.825-2.036-.825c-.866,0-1.579.287-2.139.859s-.866,1.217-.918,1.934l5.918-.01Z"/><path class="uuid-95e9f9c4-1ea2-4a5a-b79d-744392ac2073" d="m235.844,206.622c-.482.28-.978.49-1.489.63s-1.034.21-1.567.21c-1.693,0-3.016-.508-3.97-1.523s-1.431-2.422-1.431-4.219.477-3.203,1.431-4.219,2.277-1.523,3.97-1.523c.527,0,1.042.068,1.543.205s1.006.348,1.514.635v1.885c-.475-.423-.952-.729-1.431-.918s-1.021-.283-1.626-.283c-1.126,0-1.992.365-2.598,1.094s-.908,1.771-.908,3.125.304,2.388.913,3.12,1.473,1.099,2.593,1.099c.625,0,1.185-.096,1.68-.288s.954-.49,1.377-.894v1.865Z"/><path class="uuid-95e9f9c4-1ea2-4a5a-b79d-744392ac2073" d="m243.52,193.136v3.105h4.082v1.396h-4.082v5.938c0,.807.153,1.371.459,1.689s.84.479,1.602.479h2.021v1.436h-2.197c-1.348,0-2.298-.27-2.852-.811s-.83-1.471-.83-2.793v-5.938h-2.92v-1.396h2.92v-3.105h1.797Z"/></g><path class="uuid-95e9f9c4-1ea2-4a5a-b79d-744392ac2073" d="m229.155,104.197c0,1.641-.387,2.884-1.162,3.73s-1.914,1.27-3.418,1.27c-.495,0-1.012-.045-1.553-.137s-1.081-.225-1.621-.4v-1.777c.638.299,1.217.521,1.738.664s1,.215,1.436.215c.97,0,1.676-.264,2.119-.791s.664-1.364.664-2.51v-1.299c-.287.612-.677,1.068-1.172,1.367s-1.097.449-1.807.449c-1.276,0-2.295-.511-3.057-1.533s-1.143-2.389-1.143-4.102.381-3.089,1.143-4.111,1.781-1.533,3.057-1.533c.703,0,1.299.14,1.787.42s.885.713,1.191,1.299v-1.416h1.797v10.195Zm-1.797-4.854c0-1.348-.22-2.372-.659-3.071s-1.079-1.05-1.919-1.05c-.879,0-1.549.35-2.012,1.05s-.693,1.724-.693,3.071.233,2.375.698,3.081,1.141,1.06,2.026,1.06c.827,0,1.46-.355,1.899-1.064s.659-1.735.659-3.076Z"/><g><path class="uuid-95e9f9c4-1ea2-4a5a-b79d-744392ac2073" d="m349.238,54.343c-.481.28-.978.49-1.489.63-.511.14-1.033.21-1.567.21-1.692,0-3.016-.508-3.97-1.523-.953-1.016-1.431-2.422-1.431-4.219s.478-3.203,1.431-4.219c.954-1.016,2.277-1.523,3.97-1.523.527,0,1.042.068,1.543.205.502.137,1.006.348,1.514.635v1.885c-.475-.423-.952-.729-1.431-.918s-1.021-.283-1.626-.283c-1.126,0-1.992.365-2.598,1.094s-.908,1.771-.908,3.125.305,2.388.913,3.12c.609.732,1.474,1.099,2.593,1.099.625,0,1.186-.096,1.68-.288.495-.192.954-.49,1.377-.894v1.865Z"/><path class="uuid-95e9f9c4-1ea2-4a5a-b79d-744392ac2073" d="m354.004,44.001h4.6v9.502h3.564v1.396h-8.926v-1.396h3.564v-8.105h-2.803v-1.396Zm2.803-4.248h1.797v2.266h-1.797v-2.266Z"/><path class="uuid-95e9f9c4-1ea2-4a5a-b79d-744392ac2073" d="m374.238,46.218c-.384-.299-.774-.518-1.172-.654-.396-.137-.833-.205-1.309-.205-1.119,0-1.976.352-2.568,1.055-.592.703-.889,1.719-.889,3.047v5.439h-1.807v-10.938h1.807v2.139c.3-.775.761-1.369,1.382-1.782.622-.414,1.359-.62,2.212-.62.443,0,.856.055,1.24.166.385.111.752.283,1.104.518v1.836Z"/><path class="uuid-95e9f9c4-1ea2-4a5a-b79d-744392ac2073" d="m385.361,54.343c-.481.28-.978.49-1.489.63-.511.14-1.033.21-1.567.21-1.692,0-3.016-.508-3.97-1.523-.953-1.016-1.431-2.422-1.431-4.219s.478-3.203,1.431-4.219c.954-1.016,2.277-1.523,3.97-1.523.527,0,1.042.068,1.543.205.502.137,1.006.348,1.514.635v1.885c-.475-.423-.952-.729-1.431-.918s-1.021-.283-1.626-.283c-1.126,0-1.992.365-2.598,1.094s-.908,1.771-.908,3.125.305,2.388.913,3.12c.609.732,1.474,1.099,2.593,1.099.625,0,1.186-.096,1.68-.288.495-.192.954-.49,1.377-.894v1.865Z"/><path class="uuid-95e9f9c4-1ea2-4a5a-b79d-744392ac2073" d="m394.062,50.945c0,.807.148,1.416.444,1.826.297.41.734.615,1.313.615h2.1v1.514h-2.275c-1.074,0-1.905-.343-2.495-1.03-.589-.687-.884-1.662-.884-2.925v-9.893h-2.881v-1.406h4.678v11.299Z"/><path class="uuid-95e9f9c4-1ea2-4a5a-b79d-744392ac2073" d="m410.02,48.533v.879h-7.783v.059c-.052,1.491.233,2.562.854,3.213.622.651,1.499.977,2.632.977.573,0,1.172-.091,1.797-.273s1.293-.459,2.002-.83v1.787c-.684.28-1.343.49-1.978.63s-1.248.21-1.841.21c-1.699,0-3.027-.509-3.984-1.528s-1.436-2.423-1.436-4.214c0-1.745.469-3.138,1.406-4.18s2.188-1.562,3.75-1.562c1.394,0,2.492.472,3.296,1.416.805.944,1.232,2.083,1.284,3.418Zm-1.797-.527c-.078-.755-.353-1.408-.825-1.958-.472-.55-1.15-.825-2.036-.825-.865,0-1.578.287-2.139.859-.56.573-.865,1.217-.918,1.934l5.918-.01Z"/></g><g><path class="uuid-95e9f9c4-1ea2-4a5a-b79d-744392ac2073" d="m349.238,154.343c-.481.28-.978.49-1.489.63-.511.14-1.033.21-1.567.21-1.692,0-3.016-.508-3.97-1.523-.953-1.016-1.431-2.422-1.431-4.219s.478-3.203,1.431-4.219c.954-1.016,2.277-1.523,3.97-1.523.527,0,1.042.068,1.543.205.502.137,1.006.348,1.514.635v1.885c-.475-.423-.952-.729-1.431-.918s-1.021-.283-1.626-.283c-1.126,0-1.992.365-2.598,1.094s-.908,1.771-.908,3.125.305,2.388.913,3.12c.609.732,1.474,1.099,2.593,1.099.625,0,1.186-.096,1.68-.288.495-.192.954-.49,1.377-.894v1.865Z"/><path class="uuid-95e9f9c4-1ea2-4a5a-b79d-744392ac2073" d="m354.004,144.001h4.6v9.502h3.564v1.396h-8.926v-1.396h3.564v-8.105h-2.803v-1.396Zm2.803-4.248h1.797v2.266h-1.797v-2.266Z"/><path class="uuid-95e9f9c4-1ea2-4a5a-b79d-744392ac2073" d="m374.238,146.218c-.384-.299-.774-.518-1.172-.654-.396-.137-.833-.205-1.309-.205-1.119,0-1.976.352-2.568,1.055-.592.703-.889,1.719-.889,3.047v5.439h-1.807v-10.938h1.807v2.139c.3-.775.761-1.369,1.382-1.782.622-.414,1.359-.62,2.212-.62.443,0,.856.055,1.24.166.385.111.752.283,1.104.518v1.836Z"/><path class="uuid-95e9f9c4-1ea2-4a5a-b79d-744392ac2073" d="m385.361,154.343c-.481.28-.978.49-1.489.63-.511.14-1.033.21-1.567.21-1.692,0-3.016-.508-3.97-1.523-.953-1.016-1.431-2.422-1.431-4.219s.478-3.203,1.431-4.219c.954-1.016,2.277-1.523,3.97-1.523.527,0,1.042.068,1.543.205.502.137,1.006.348,1.514.635v1.885c-.475-.423-.952-.729-1.431-.918s-1.021-.283-1.626-.283c-1.126,0-1.992.365-2.598,1.094s-.908,1.771-.908,3.125.305,2.388.913,3.12c.609.732,1.474,1.099,2.593,1.099.625,0,1.186-.096,1.68-.288.495-.192.954-.49,1.377-.894v1.865Z"/><path class="uuid-95e9f9c4-1ea2-4a5a-b79d-744392ac2073" d="m394.062,150.945c0,.807.148,1.416.444,1.826.297.41.734.615,1.313.615h2.1v1.514h-2.275c-1.074,0-1.905-.343-2.495-1.03-.589-.687-.884-1.662-.884-2.925v-9.893h-2.881v-1.406h4.678v11.299Z"/><path class="uuid-95e9f9c4-1ea2-4a5a-b79d-744392ac2073" d="m410.02,148.533v.879h-7.783v.059c-.052,1.491.233,2.562.854,3.213.622.651,1.499.977,2.632.977.573,0,1.172-.091,1.797-.273s1.293-.459,2.002-.83v1.787c-.684.28-1.343.49-1.978.63s-1.248.21-1.841.21c-1.699,0-3.027-.509-3.984-1.528s-1.436-2.423-1.436-4.214c0-1.745.469-3.138,1.406-4.18s2.188-1.562,3.75-1.562c1.394,0,2.492.472,3.296,1.416.805.944,1.232,2.083,1.284,3.418Zm-1.797-.527c-.078-.755-.353-1.408-.825-1.958-.472-.55-1.15-.825-2.036-.825-.865,0-1.578.287-2.139.859-.56.573-.865,1.217-.918,1.934l5.918-.01Z"/></g></g><g id="uuid-14d0c354-0f1e-432d-8fe8-7b1e8cdcdf9d"><g><line class="uuid-be090b28-0437-4e30-8734-bd3a9e3bca6d" x1="266.602" y1="86.133" x2="327.672" y2="65.776"/><path class="uuid-95e9f9c4-1ea2-4a5a-b79d-744392ac2073" d="m333.398,63.867c-2.361,1.898-5.135,4.717-6.605,7.215l.128-5.056-3.136-3.967c2.674,1.116,6.585,1.707,9.612,1.808Z"/></g><g><line class="uuid-be090b28-0437-4e30-8734-bd3a9e3bca6d" x1="266.602" y1="113.867" x2="327.672" y2="134.224"/><path class="uuid-95e9f9c4-1ea2-4a5a-b79d-744392ac2073" d="m333.398,136.133c-3.027.102-6.938.693-9.613,1.809l3.136-3.968-.128-5.055c1.47,2.497,4.244,5.317,6.605,7.214Z"/></g><g><line class="uuid-be090b28-0437-4e30-8734-bd3a9e3bca6d" x1="116.602" y1="136.133" x2="177.672" y2="115.776"/><path class="uuid-95e9f9c4-1ea2-4a5a-b79d-744392ac2073" d="m183.398,113.867c-2.361,1.898-5.135,4.717-6.605,7.215l.128-5.056-3.136-3.967c2.674,1.116,6.585,1.707,9.612,1.808Z"/></g><g><line class="uuid-be090b28-0437-4e30-8734-bd3a9e3bca6d" x1="116.602" y1="163.867" x2="177.672" y2="184.224"/><path class="uuid-95e9f9c4-1ea2-4a5a-b79d-744392ac2073" d="m183.398,186.133c-3.027.102-6.938.693-9.613,1.809l3.136-3.968-.128-5.055c1.47,2.497,4.244,5.317,6.605,7.214Z"/></g></g></svg>