<svg xmlns="http://www.w3.org/2000/svg" width="450" height="250" viewBox="0 0 450 250">
  <defs>
    <style>
      .a {
        fill: #f8f8f8;
      }

      .a, .c {
        stroke: #404040;
        stroke-miterlimit: 10;
      }

      .b {
        fill: #404040;
      }

      .c {
        fill: none;
      }
    </style>
  </defs>
  <g>
    <ellipse class="a" cx="75" cy="150" rx="50" ry="25"/>
    <ellipse class="a" cx="225" cy="100" rx="50" ry="25"/>
    <ellipse class="a" cx="225" cy="200" rx="50" ry="25"/>
    <ellipse class="a" cx="375" cy="50" rx="50" ry="25"/>
    <ellipse class="a" cx="375" cy="150" rx="50" ry="25"/>
    <g>
      <path class="b" d="M66.44,144.3433v1.7578a6.8539,6.8539,0,0,0-1.5527-.6739,5.7273,5.7273,0,0,0-1.5918-.2246,3.354,3.354,0,0,0-1.8213.3955,1.3447,1.3447,0,0,0-.6006,1.2061,1.32,1.32,0,0,0,.4492,1.0937,6.13,6.13,0,0,0,2.2364.7032l.7226.1367a3.522,3.522,0,0,1,2.0264,1.0156,2.8428,2.8428,0,0,1,.6885,1.9824,3.0536,3.0536,0,0,1-1.1524,2.5342,5.0326,5.0326,0,0,1-3.2031.9131,9.0112,9.0112,0,0,1-1.6992-.1709,15.4877,15.4877,0,0,1-1.9238-.5127V152.644a10.3721,10.3721,0,0,0,1.9238.7764,6.4171,6.4171,0,0,0,1.7383.2588,3.0587,3.0587,0,0,0,1.8457-.4834,1.5854,1.5854,0,0,0,.6543-1.3525q0-1.25-2.3926-1.7286l-.0781-.0195-.6739-.1367a4.2985,4.2985,0,0,1-2.2656-1.02,2.6571,2.6571,0,0,1-.7129-1.958,2.9333,2.9333,0,0,1,1.0645-2.4268,4.7447,4.7447,0,0,1,3.0371-.8545,8.6423,8.6423,0,0,1,1.6894.1612A8.5179,8.5179,0,0,1,66.44,144.3433Z"/>
      <path class="b" d="M69.9561,143.9624h1.8652l3.1738,9.18,3.1836-9.18h1.8652L76.1572,154.9H73.8428Z"/>
      <path class="b" d="M91.1963,154.1968a5.3463,5.3463,0,0,1-1.1621,3.73,4.404,4.404,0,0,1-3.418,1.27,9.327,9.327,0,0,1-1.5527-.1367,11.3542,11.3542,0,0,1-1.6211-.4v-1.7774a11.06,11.06,0,0,0,1.7383.6641,5.4544,5.4544,0,0,0,1.4355.2148,2.6171,2.6171,0,0,0,2.1192-.791,3.8709,3.8709,0,0,0,.664-2.51v-1.2988a3.0536,3.0536,0,0,1-1.1719,1.3672,3.4291,3.4291,0,0,1-1.8066.4492,3.6215,3.6215,0,0,1-3.0566-1.5332,7.95,7.95,0,0,1,0-8.2129,3.6218,3.6218,0,0,1,3.0566-1.5332,3.5424,3.5424,0,0,1,1.7871.42,3.0921,3.0921,0,0,1,1.1914,1.2988v-1.416h1.7969Zm-1.7969-4.8535a5.8268,5.8268,0,0,0-.6592-3.0713,2.13,2.13,0,0,0-1.9189-1.05,2.2631,2.2631,0,0,0-2.0117,1.05,7.1473,7.1473,0,0,0,.0049,6.1523,2.2771,2.2771,0,0,0,2.0263,1.06,2.1067,2.1067,0,0,0,1.8994-1.0645A5.885,5.885,0,0,0,89.3994,149.3433Z"/>
    </g>
    <g>
      <path class="b" d="M212.68,198.4971a4.0749,4.0749,0,0,0-1.1719-.6543,3.9982,3.9982,0,0,0-1.3086-.2051,3.17,3.17,0,0,0-2.5683,1.0547,4.61,4.61,0,0,0-.8887,3.0469v5.4394h-1.8067V196.2412h1.8067V198.38a3.6466,3.6466,0,0,1,1.3818-1.7822,3.9,3.9,0,0,1,2.2119-.62,4.454,4.454,0,0,1,1.24.1661,3.9635,3.9635,0,0,1,1.1035.5175Z"/>
      <path class="b" d="M224.3789,200.8115v.8789h-7.7832v.0586a4.33,4.33,0,0,0,.8545,3.2129,3.4669,3.4669,0,0,0,2.6318.9766,6.4179,6.4179,0,0,0,1.7969-.2735,11.0048,11.0048,0,0,0,2.002-.83v1.7871a12.1572,12.1572,0,0,1-1.9776.63,8.5343,8.5343,0,0,1-1.8408.21,5.2,5.2,0,0,1-3.9844-1.5283,5.9106,5.9106,0,0,1-1.4355-4.2139,6.013,6.013,0,0,1,1.4062-4.18,4.7986,4.7986,0,0,1,3.75-1.5625,4.1023,4.1023,0,0,1,3.2959,1.4161A5.4374,5.4374,0,0,1,224.3789,200.8115Zm-1.7969-.5273a3.481,3.481,0,0,0-.8252-1.958,2.5355,2.5355,0,0,0-2.0361-.8252,2.8634,2.8634,0,0,0-2.1387.8594,3.03,3.03,0,0,0-.9179,1.9335Z"/>
      <path class="b" d="M235.8438,206.6221a6.2533,6.2533,0,0,1-1.4893.63,5.9033,5.9033,0,0,1-1.5674.21,5.18,5.18,0,0,1-3.97-1.5234,6.9353,6.9353,0,0,1,0-8.4375,5.18,5.18,0,0,1,3.97-1.5235,5.84,5.84,0,0,1,1.543.2051,6.6369,6.6369,0,0,1,1.5137.6348v1.8847a4.86,4.86,0,0,0-1.4307-.9179,4.3971,4.3971,0,0,0-1.626-.2832,3.1857,3.1857,0,0,0-2.5976,1.0937,5.8085,5.8085,0,0,0,.0048,6.2451,3.1826,3.1826,0,0,0,2.5928,1.0987,4.6159,4.6159,0,0,0,1.68-.2881,4.1866,4.1866,0,0,0,1.377-.8936Z"/>
      <path class="b" d="M243.52,193.1357v3.1055h4.0821v1.3965H243.52v5.9375a2.4288,2.4288,0,0,0,.459,1.6894,2.1708,2.1708,0,0,0,1.6016.4786h2.0215v1.4355h-2.1973a4.0226,4.0226,0,0,1-2.8516-.81,3.82,3.82,0,0,1-.83-2.793v-5.9375h-2.92v-1.3965h2.92v-3.1055Z"/>
    </g>
    <path class="b" d="M229.1553,104.1968a5.3463,5.3463,0,0,1-1.1621,3.73,4.404,4.404,0,0,1-3.418,1.27,9.327,9.327,0,0,1-1.5527-.1367,11.3542,11.3542,0,0,1-1.6211-.4v-1.7774a11.0626,11.0626,0,0,0,1.7382.6641,5.4551,5.4551,0,0,0,1.4356.2148,2.6167,2.6167,0,0,0,2.1191-.791,3.87,3.87,0,0,0,.6641-2.51v-1.2988a3.0536,3.0536,0,0,1-1.1719,1.3672,3.4291,3.4291,0,0,1-1.8066.4492,3.6218,3.6218,0,0,1-3.0567-1.5332,7.9511,7.9511,0,0,1,0-8.2129,3.6221,3.6221,0,0,1,3.0567-1.5332,3.5424,3.5424,0,0,1,1.7871.42,3.0927,3.0927,0,0,1,1.1914,1.2988v-1.416h1.7969Zm-1.7969-4.8535a5.8268,5.8268,0,0,0-.6592-3.0713,2.13,2.13,0,0,0-1.9189-1.05,2.2631,2.2631,0,0,0-2.0117,1.05,7.1478,7.1478,0,0,0,.0048,6.1523,2.2773,2.2773,0,0,0,2.0264,1.06,2.1067,2.1067,0,0,0,1.8994-1.0645A5.885,5.885,0,0,0,227.3584,99.3433Z"/>
    <g>
      <path class="b" d="M349.2383,54.3433a6.2357,6.2357,0,0,1-1.4893.63,5.8939,5.8939,0,0,1-1.5674.21,5.182,5.182,0,0,1-3.97-1.5234,5.9227,5.9227,0,0,1-1.4307-4.2188,5.9223,5.9223,0,0,1,1.4307-4.2187,5.1817,5.1817,0,0,1,3.97-1.5235,5.8369,5.8369,0,0,1,1.543.2051,6.6239,6.6239,0,0,1,1.5137.6348v1.8847a4.8537,4.8537,0,0,0-1.4307-.9179,4.3971,4.3971,0,0,0-1.626-.2832,3.1867,3.1867,0,0,0-2.5976,1.0937,4.7687,4.7687,0,0,0-.9082,3.125,4.7563,4.7563,0,0,0,.9131,3.12,3.1836,3.1836,0,0,0,2.5927,1.0987,4.614,4.614,0,0,0,1.68-.2881,4.1764,4.1764,0,0,0,1.377-.8936Z"/>
      <path class="b" d="M354.0039,44.0015h4.6v9.5019h3.5645V54.9h-8.9258V53.5034h3.5644V45.3979h-2.8027Zm2.8027-4.2481h1.7969V42.019h-1.7969Z"/>
      <path class="b" d="M374.2383,46.2183a4.06,4.06,0,0,0-1.1719-.6543,3.9913,3.9913,0,0,0-1.3086-.2051,3.1712,3.1712,0,0,0-2.5683,1.0547,4.6128,4.6128,0,0,0-.8887,3.0468V54.9h-1.8067V43.9624h1.8067v2.1387a3.653,3.653,0,0,1,1.3818-1.7823,3.9027,3.9027,0,0,1,2.2119-.62,4.4527,4.4527,0,0,1,1.24.166,3.9572,3.9572,0,0,1,1.1035.5176Z"/>
      <path class="b" d="M385.3613,54.3433a6.2334,6.2334,0,0,1-1.4892.63,5.8944,5.8944,0,0,1-1.5674.21,5.1819,5.1819,0,0,1-3.97-1.5234,5.9223,5.9223,0,0,1-1.4307-4.2188,5.9218,5.9218,0,0,1,1.4307-4.2187,5.1816,5.1816,0,0,1,3.97-1.5235,5.8374,5.8374,0,0,1,1.543.2051,6.6251,6.6251,0,0,1,1.5136.6348v1.8847a4.8533,4.8533,0,0,0-1.4306-.9179,4.3975,4.3975,0,0,0-1.626-.2832,3.1867,3.1867,0,0,0-2.5977,1.0937,4.7693,4.7693,0,0,0-.9082,3.125,4.7563,4.7563,0,0,0,.9131,3.12,3.1838,3.1838,0,0,0,2.5928,1.0987,4.6144,4.6144,0,0,0,1.68-.2881,4.1749,4.1749,0,0,0,1.3769-.8936Z"/>
      <path class="b" d="M394.0625,50.9448a3.1123,3.1123,0,0,0,.4443,1.8262,1.5176,1.5176,0,0,0,1.3135.6152h2.1V54.9h-2.2754a3.1094,3.1094,0,0,1-2.4951-1.03,4.3625,4.3625,0,0,1-.8838-2.9248V41.0522h-2.8808V39.646h4.6777Z"/>
      <path class="b" d="M410.02,48.5327v.8789h-7.7832V49.47a4.3349,4.3349,0,0,0,.8545,3.2129,3.4677,3.4677,0,0,0,2.6319.9766,6.4151,6.4151,0,0,0,1.7968-.2735,10.9974,10.9974,0,0,0,2.002-.83v1.7871a12.1564,12.1564,0,0,1-1.9776.63,8.5248,8.5248,0,0,1-1.8408.21,5.2,5.2,0,0,1-3.9843-1.5283,5.9106,5.9106,0,0,1-1.4356-4.2139,6.0131,6.0131,0,0,1,1.4063-4.18,4.7986,4.7986,0,0,1,3.75-1.5625,4.1015,4.1015,0,0,1,3.2959,1.416A5.4325,5.4325,0,0,1,410.02,48.5327Zm-1.7968-.5273a3.4789,3.4789,0,0,0-.8252-1.958,2.5344,2.5344,0,0,0-2.0362-.8252,2.8648,2.8648,0,0,0-2.1386.8593,3.0347,3.0347,0,0,0-.918,1.9336Z"/>
    </g>
    <g>
      <path class="b" d="M349.2383,154.3433a6.2357,6.2357,0,0,1-1.4893.63,5.8939,5.8939,0,0,1-1.5674.21,5.182,5.182,0,0,1-3.97-1.5234,6.9353,6.9353,0,0,1,0-8.4375,5.1817,5.1817,0,0,1,3.97-1.5235,5.8369,5.8369,0,0,1,1.543.2051,6.6239,6.6239,0,0,1,1.5137.6348v1.8847a4.8537,4.8537,0,0,0-1.4307-.9179,4.3971,4.3971,0,0,0-1.626-.2832,3.1867,3.1867,0,0,0-2.5976,1.0937,5.8088,5.8088,0,0,0,.0049,6.2451,3.1836,3.1836,0,0,0,2.5927,1.0987,4.614,4.614,0,0,0,1.68-.2881,4.1764,4.1764,0,0,0,1.377-.8936Z"/>
      <path class="b" d="M354.0039,144.0015h4.6v9.5019h3.5645V154.9h-8.9258v-1.3965h3.5644v-8.1055h-2.8027Zm2.8027-4.2481h1.7969v2.2656h-1.7969Z"/>
      <path class="b" d="M374.2383,146.2183a4.06,4.06,0,0,0-1.1719-.6543,3.9913,3.9913,0,0,0-1.3086-.2051,3.1712,3.1712,0,0,0-2.5683,1.0547,4.6128,4.6128,0,0,0-.8887,3.0468v5.44h-1.8067V143.9624h1.8067v2.1387a3.653,3.653,0,0,1,1.3818-1.7823,3.9027,3.9027,0,0,1,2.2119-.62,4.4527,4.4527,0,0,1,1.24.166,3.9572,3.9572,0,0,1,1.1035.5176Z"/>
      <path class="b" d="M385.3613,154.3433a6.2334,6.2334,0,0,1-1.4892.63,5.8944,5.8944,0,0,1-1.5674.21,5.1819,5.1819,0,0,1-3.97-1.5234,6.9353,6.9353,0,0,1,0-8.4375,5.1816,5.1816,0,0,1,3.97-1.5235,5.8374,5.8374,0,0,1,1.543.2051,6.6251,6.6251,0,0,1,1.5136.6348v1.8847a4.8533,4.8533,0,0,0-1.4306-.9179,4.3975,4.3975,0,0,0-1.626-.2832,3.1867,3.1867,0,0,0-2.5977,1.0937,5.8088,5.8088,0,0,0,.0049,6.2451,3.1838,3.1838,0,0,0,2.5928,1.0987,4.6144,4.6144,0,0,0,1.68-.2881,4.1749,4.1749,0,0,0,1.3769-.8936Z"/>
      <path class="b" d="M394.0625,150.9448a3.1123,3.1123,0,0,0,.4443,1.8262,1.5176,1.5176,0,0,0,1.3135.6152h2.1V154.9h-2.2754a3.1094,3.1094,0,0,1-2.4951-1.03,4.3625,4.3625,0,0,1-.8838-2.9248v-9.8926h-2.8808V139.646h4.6777Z"/>
      <path class="b" d="M410.02,148.5327v.8789h-7.7832v.0586a4.3349,4.3349,0,0,0,.8545,3.2129,3.4677,3.4677,0,0,0,2.6319.9766,6.4151,6.4151,0,0,0,1.7968-.2735,10.9974,10.9974,0,0,0,2.002-.83v1.7871a12.1564,12.1564,0,0,1-1.9776.63,8.5248,8.5248,0,0,1-1.8408.21,5.2,5.2,0,0,1-3.9843-1.5283,5.9106,5.9106,0,0,1-1.4356-4.2139,6.0131,6.0131,0,0,1,1.4063-4.18,4.7986,4.7986,0,0,1,3.75-1.5625,4.1015,4.1015,0,0,1,3.2959,1.416A5.4325,5.4325,0,0,1,410.02,148.5327Zm-1.7968-.5273a3.4789,3.4789,0,0,0-.8252-1.958,2.5344,2.5344,0,0,0-2.0362-.8252,2.8648,2.8648,0,0,0-2.1386.8593,3.0347,3.0347,0,0,0-.918,1.9336Z"/>
    </g>
  </g>
  <g>
    <g>
      <line class="c" x1="266.6022" y1="86.1326" x2="327.6723" y2="65.7759"/>
      <path class="b" d="M333.3978,63.8674a30.2224,30.2224,0,0,0-6.6048,7.2147l.128-5.0557L323.7854,62.06A30.1962,30.1962,0,0,0,333.3978,63.8674Z"/>
    </g>
    <g>
      <line class="c" x1="266.6022" y1="113.8674" x2="327.6723" y2="134.2241"/>
      <path class="b" d="M333.3978,136.1326a30.2192,30.2192,0,0,0-9.6127,1.8089l3.1359-3.9679-.1283-5.0548A30.1967,30.1967,0,0,0,333.3978,136.1326Z"/>
    </g>
    <g>
      <line class="c" x1="116.6022" y1="136.1326" x2="177.6723" y2="115.7759"/>
      <path class="b" d="M183.3978,113.8674a30.2224,30.2224,0,0,0-6.6048,7.2147l.128-5.0557-3.1356-3.9669A30.1962,30.1962,0,0,0,183.3978,113.8674Z"/>
    </g>
    <g>
      <line class="c" x1="116.6022" y1="163.8674" x2="177.6723" y2="184.2241"/>
      <path class="b" d="M183.3978,186.1326a30.2192,30.2192,0,0,0-9.6127,1.8089l3.1359-3.9679-.1284-5.0548A30.1992,30.1992,0,0,0,183.3978,186.1326Z"/>
    </g>
  </g>
</svg>
