<?xml version="1.0" encoding="utf-8"?>
<!-- Generator: Adobe Illustrator 25.2.3, SVG Export Plug-In . SVG Version: 6.00 Build 0)  -->
<svg version="1.1" id="Layer_1" focusable="false" xmlns="http://www.w3.org/2000/svg" xmlns:xlink="http://www.w3.org/1999/xlink"
	 x="0px" y="0px" viewBox="0 0 512 512" style="enable-background:new 0 0 512 512;" xml:space="preserve">
<style type="text/css">
	.st0{fill:#AAAAAA;}
</style>
<path class="st0" d="M252.8,14.2C114.1,14.2,8,119.5,8,258.2C8,369.1,77.8,464,177.5,497.4c12.8,2.3,17.3-5.6,17.3-12.1
	c0-6.2-0.3-40.4-0.3-61.4c0,0-70,15-84.7-29.8c0,0-11.4-29.1-27.8-36.6c0,0-22.9-15.7,1.6-15.4c0,0,24.9,2,38.6,25.8
	c21.9,38.6,58.6,27.5,72.9,20.9c2.3-16,8.8-27.1,16-33.7c-55.9-6.2-112.3-14.3-112.3-110.5c0-27.5,7.6-41.3,23.6-58.9
	c-2.6-6.5-11.1-33.3,2.6-67.9c20.9-6.5,69,27,69,27c20-5.6,41.5-8.5,62.8-8.5c21.3,0,42.8,2.9,62.8,8.5c0,0,48.1-33.6,69-27
	c13.7,34.7,5.2,61.4,2.6,67.9c16,17.7,25.8,31.5,25.8,58.9c0,96.5-58.9,104.2-114.8,110.5c9.2,7.9,17,22.9,17,46.4
	c0,33.7-0.3,75.4-0.3,83.6c0,6.5,4.6,14.4,17.3,12.1C436.2,464,504,369.1,504,258.2C504,119.5,391.5,14.2,252.8,14.2z"/>
</svg>
