<svg xmlns="http://www.w3.org/2000/svg" width="16" height="16" viewBox="0 0 16 16">
  <path d="M10.67,8a4.062,4.062,0,0,1-4.05,4.064H4.064a4.065,4.065,0,0,1,0-8.129h1.4a.427.427,0,0,1,.315.716,4.926,4.926,0,0,0-.813,1.18.432.432,0,0,1-.386.243H4.089a1.925,1.925,0,1,0-.025,3.85H6.606A1.924,1.924,0,0,0,8.531,8,1.894,1.894,0,0,0,8.5,7.643a.431.431,0,0,1,.107-.37,1.068,1.068,0,0,1,.785-.343h.8a.429.429,0,0,1,.422.357A4.056,4.056,0,0,1,10.67,8Z" style="fill: #333"/>
  <path d="M16,8a4.069,4.069,0,0,0-4.064-4.065H9.38A4.064,4.064,0,0,0,5.393,8.713a.429.429,0,0,0,.422.357h.8A1.068,1.068,0,0,0,7.4,8.727a.431.431,0,0,0,.107-.37A1.9,1.9,0,0,1,7.469,8,1.925,1.925,0,0,1,9.394,6.074h2.542a1.925,1.925,0,1,1-.025,3.85h-.495a.432.432,0,0,0-.386.243,4.926,4.926,0,0,1-.813,1.18.427.427,0,0,0,.315.716h1.4A4.068,4.068,0,0,0,16,8Z" style="fill: #333"/>
</svg>
