<?xml version="1.0" encoding="utf-8"?>
<!-- Generator: Adobe Illustrator 25.2.3, SVG Export Plug-In . SVG Version: 6.00 Build 0)  -->
<svg xmlns="http://www.w3.org/2000/svg" width="16" height="16" viewBox="0 0 16 16">
<style type="text/css">
	.st0{fill:var(--font-color);}
</style>
<g>
	<path class="st0" d="M4,11.4c-2.2,0-4-1.8-4-4s1.8-4,4-4h2.3c2.2,0,4,1.8,4,4c0,0.7-0.2,1.4-0.5,2C9.6,9.7,9.2,9.8,9,9.6
		C8.7,9.5,8.6,9.1,8.8,8.9C9,8.4,9.1,7.9,9.1,7.4c0-1.6-1.3-2.9-2.9-2.9H4c-1.6,0-2.9,1.3-2.9,2.9s1.3,2.9,2.9,2.9
		c0.3,0,0.6,0.3,0.6,0.6C4.6,11.2,4.3,11.4,4,11.4z"/>
</g>
<g>
	<path class="st0" d="M12,12.6H9.7c-2.2,0-4-1.8-4-4c0-0.7,0.2-1.4,0.5-2C6.4,6.3,6.8,6.2,7,6.4c0.3,0.2,0.4,0.5,0.2,0.8
		C7,7.6,6.9,8.1,6.9,8.6c0,1.6,1.3,2.9,2.9,2.9H12c1.6,0,2.9-1.3,2.9-2.9c0-1.6-1.3-2.9-2.9-2.9c-0.3,0-0.6-0.3-0.6-0.6
		s0.3-0.6,0.6-0.6c2.2,0,4,1.8,4,4S14.2,12.6,12,12.6z"/>
</g>
</svg>