<svg xmlns="http://www.w3.org/2000/svg" width="32" height="32" viewBox="0 0 32 32">
  <path fill="var(--font-color)"
    d="m16,23.5c-2.083,0-3.854-.729-5.313-2.187-1.458-1.458-2.188-3.229-2.188-5.313s.729-3.854,2.188-5.313c1.458-1.458,3.229-2.187,5.313-2.187.111,0,.229.003.354.01s.285.017.479.031c-.5.444-.889.993-1.167,1.646s-.417,1.34-.417,2.062c0,1.25.437,2.312,1.312,3.188s1.937,1.312,3.187,1.312c.722,0,1.41-.128,2.063-.385s1.201-.615,1.646-1.073c.014.167.024.302.031.406s.01.205.01.302c0,2.083-.729,3.854-2.188,5.313s-3.229,2.187-5.312,2.187Zm0-1.25c1.514,0,2.833-.469,3.958-1.406s1.826-2.038,2.104-3.302c-.347.153-.72.267-1.118.344-.398.076-.796.115-1.194.115-1.593,0-2.949-.56-4.07-1.68-1.12-1.12-1.68-2.477-1.68-4.07,0-.333.035-.691.104-1.073s.194-.816.375-1.302c-1.361.375-2.49,1.135-3.385,2.281s-1.344,2.427-1.344,3.844c0,1.736.608,3.212,1.823,4.427,1.215,1.215,2.691,1.823,4.427,1.823Z" />
</svg>