<svg id="adca40e8-c71a-4ac3-bf21-f986458175af" xmlns="http://www.w3.org/2000/svg" width="16" height="16" viewBox="0 0 16 16">
  <defs>
    <style>
      .cls-1 {
        fill: #404040;
      }
    </style>
  </defs>
  <path class="cls-1" d="M.9,15.5l-.2-.2a.7559.7559,0,0,1,.1-.4c0-.1.1-.2.2-.3v-.1h.3a2.5122,2.5122,0,0,0,2.1-1c.1-.1,1.4-2.2,3.8-6.4S11,.8,11,.8a.2151.2151,0,0,1,.2-.2H12c.1.1.1.1.1.2l.6,6.8c.4,4.5.6,6.8.6,6.8a4.1059,4.1059,0,0,0,1.4.2h.4l.1.1a.3674.3674,0,0,1-.1.3c0,.1-.1.3-.1.4s-.1.1-.3.1H9.3c-.1,0-.1-.1-.1-.2a.6012.6012,0,0,1,.1-.4c0-.1.1-.2.1-.3l.1-.1h.4c.8,0,1.2-.1,1.3-.4L10.9,11H6l-.7,1.2c-.3.4-.5.9-.8,1.4a.3674.3674,0,0,0-.1.3c0,.4.3.6,1,.6.3,0,.4.1.4.2a.3674.3674,0,0,1-.1.3c0,.1-.1.3-.1.4a.3674.3674,0,0,1-.3.1H.9Zm9.9-5.4q0-.15-.3-3.3c-.2-2.1-.3-3-.3-3.1l-.5.9A24.1212,24.1212,0,0,1,8.4,6.9L6.5,10.1h4.3Z"/>
</svg>
